<?xml version="1.0" encoding="UTF-8" standalone="no"?><svg xmlns="http://www.w3.org/2000/svg" xmlns:xlink="http://www.w3.org/1999/xlink" contentScriptType="application/ecmascript" contentStyleType="text/css" height="321px" preserveAspectRatio="none" style="width:416px;height:321px;" version="1.1" viewBox="0 0 416 321" width="416px" zoomAndPan="magnify"><defs><filter height="300%" id="f1sis1z4kgxclw" width="300%" x="-1" y="-1"><feGaussianBlur result="blurOut" stdDeviation="2.0"/><feColorMatrix in="blurOut" result="blurOut2" type="matrix" values="0 0 0 0 0 0 0 0 0 0 0 0 0 0 0 0 0 0 .4 0"/><feOffset dx="4.0" dy="4.0" in="blurOut2" result="blurOut3"/><feBlend in="SourceGraphic" in2="blurOut3" mode="normal"/></filter></defs><g><!--class Component--><rect fill="#FEFECE" filter="url(#f1sis1z4kgxclw)" height="60.9551" id="Component" style="stroke: #A80036; stroke-width: 1.5;" width="101" x="200.5" y="8"/><ellipse cx="216.85" cy="24" fill="#ADD1B2" rx="11" ry="11" style="stroke: #A80036; stroke-width: 1.0;"/><path d="M219.3231,30.1431 Q218.7421,30.4419 218.1029,30.5913 Q217.4638,30.7407 216.7582,30.7407 Q214.2514,30.7407 212.9315,29.0889 Q211.6117,27.437 211.6117,24.3159 Q211.6117,21.1865 212.9315,19.5347 Q214.2514,17.8828 216.7582,17.8828 Q217.4638,17.8828 218.1112,18.0322 Q218.7587,18.1816 219.3231,18.4805 L219.3231,21.2031 Q218.6923,20.6221 218.0988,20.3523 Q217.5053,20.0825 216.8744,20.0825 Q215.5297,20.0825 214.8449,21.1492 Q214.1601,22.2158 214.1601,24.3159 Q214.1601,26.4077 214.8449,27.4744 Q215.5297,28.541 216.8744,28.541 Q217.5053,28.541 218.0988,28.2712 Q218.6923,28.0015 219.3231,27.4204 Z "/><text fill="#000000" font-family="sans-serif" font-size="12" lengthAdjust="spacingAndGlyphs" textLength="66" x="231.15" y="28.5352">Component</text><line style="stroke: #A80036; stroke-width: 1.5;" x1="201.5" x2="300.5" y1="40" y2="40"/><line style="stroke: #A80036; stroke-width: 1.5;" x1="201.5" x2="300.5" y1="48" y2="48"/><ellipse cx="211.5" cy="59.9775" fill="#84BE84" rx="3" ry="3" style="stroke: #038048; stroke-width: 1.0;"/><text fill="#000000" font-family="sans-serif" font-size="11" lengthAdjust="spacingAndGlyphs" textLength="75" x="220.5" y="62.6348">void operate()</text><!--class ConcreteComponent--><rect fill="#FEFECE" filter="url(#f1sis1z4kgxclw)" height="60.9551" id="ConcreteComponent" style="stroke: #A80036; stroke-width: 1.5;" width="149" x="256.5" y="129"/><ellipse cx="271.5" cy="145" fill="#ADD1B2" rx="11" ry="11" style="stroke: #A80036; stroke-width: 1.0;"/><path d="M273.9731,151.1431 Q273.3921,151.4419 272.7529,151.5913 Q272.1138,151.7407 271.4082,151.7407 Q268.9014,151.7407 267.5815,150.0889 Q266.2617,148.437 266.2617,145.3159 Q266.2617,142.1865 267.5815,140.5347 Q268.9014,138.8828 271.4082,138.8828 Q272.1138,138.8828 272.7612,139.0322 Q273.4087,139.1816 273.9731,139.4805 L273.9731,142.2031 Q273.3423,141.6221 272.7488,141.3523 Q272.1553,141.0825 271.5244,141.0825 Q270.1797,141.0825 269.4949,142.1492 Q268.8101,143.2158 268.8101,145.3159 Q268.8101,147.4077 269.4949,148.4744 Q270.1797,149.541 271.5244,149.541 Q272.1553,149.541 272.7488,149.2712 Q273.3423,149.0015 273.9731,148.4204 Z "/><text fill="#000000" font-family="sans-serif" font-size="12" lengthAdjust="spacingAndGlyphs" textLength="117" x="285.5" y="149.5352">ConcreteComponent</text><line style="stroke: #A80036; stroke-width: 1.5;" x1="257.5" x2="404.5" y1="161" y2="161"/><line style="stroke: #A80036; stroke-width: 1.5;" x1="257.5" x2="404.5" y1="169" y2="169"/><ellipse cx="267.5" cy="180.9775" fill="#84BE84" rx="3" ry="3" style="stroke: #038048; stroke-width: 1.0;"/><text fill="#000000" font-family="sans-serif" font-size="11" lengthAdjust="spacingAndGlyphs" textLength="75" x="276.5" y="183.6348">void operate()</text><!--class Decorator--><rect fill="#FEFECE" filter="url(#f1sis1z4kgxclw)" height="60.9551" id="Decorator" style="stroke: #A80036; stroke-width: 1.5;" width="101" x="120.5" y="129"/><ellipse cx="140.9" cy="145" fill="#ADD1B2" rx="11" ry="11" style="stroke: #A80036; stroke-width: 1.0;"/><path d="M143.3731,151.1431 Q142.7921,151.4419 142.1529,151.5913 Q141.5138,151.7407 140.8082,151.7407 Q138.3014,151.7407 136.9815,150.0889 Q135.6617,148.437 135.6617,145.3159 Q135.6617,142.1865 136.9815,140.5347 Q138.3014,138.8828 140.8082,138.8828 Q141.5138,138.8828 142.1612,139.0322 Q142.8087,139.1816 143.3731,139.4805 L143.3731,142.2031 Q142.7423,141.6221 142.1488,141.3523 Q141.5553,141.0825 140.9244,141.0825 Q139.5797,141.0825 138.8949,142.1492 Q138.2101,143.2158 138.2101,145.3159 Q138.2101,147.4077 138.8949,148.4744 Q139.5797,149.541 140.9244,149.541 Q141.5553,149.541 142.1488,149.2712 Q142.7423,149.0015 143.3731,148.4204 Z "/><text fill="#000000" font-family="sans-serif" font-size="12" lengthAdjust="spacingAndGlyphs" textLength="57" x="156.1" y="149.5352">Decorator</text><line style="stroke: #A80036; stroke-width: 1.5;" x1="121.5" x2="220.5" y1="161" y2="161"/><line style="stroke: #A80036; stroke-width: 1.5;" x1="121.5" x2="220.5" y1="169" y2="169"/><ellipse cx="131.5" cy="180.9775" fill="#84BE84" rx="3" ry="3" style="stroke: #038048; stroke-width: 1.0;"/><text fill="#000000" font-family="sans-serif" font-size="11" lengthAdjust="spacingAndGlyphs" textLength="75" x="140.5" y="183.6348">void operate()</text><!--class ConcreteDecoratorA--><rect fill="#FEFECE" filter="url(#f1sis1z4kgxclw)" height="60.9551" id="ConcreteDecoratorA" style="stroke: #A80036; stroke-width: 1.5;" width="148" x="6" y="250"/><ellipse cx="21" cy="266" fill="#ADD1B2" rx="11" ry="11" style="stroke: #A80036; stroke-width: 1.0;"/><path d="M23.4731,272.1431 Q22.8921,272.4419 22.2529,272.5913 Q21.6138,272.7407 20.9082,272.7407 Q18.4014,272.7407 17.0815,271.0889 Q15.7617,269.437 15.7617,266.3159 Q15.7617,263.1865 17.0815,261.5347 Q18.4014,259.8828 20.9082,259.8828 Q21.6138,259.8828 22.2612,260.0322 Q22.9087,260.1816 23.4731,260.4805 L23.4731,263.2031 Q22.8423,262.6221 22.2488,262.3523 Q21.6553,262.0825 21.0244,262.0825 Q19.6797,262.0825 18.9949,263.1492 Q18.3101,264.2158 18.3101,266.3159 Q18.3101,268.4077 18.9949,269.4744 Q19.6797,270.541 21.0244,270.541 Q21.6553,270.541 22.2488,270.2712 Q22.8423,270.0015 23.4731,269.4204 Z "/><text fill="#000000" font-family="sans-serif" font-size="12" lengthAdjust="spacingAndGlyphs" textLength="116" x="35" y="270.5352">ConcreteDecoratorA</text><line style="stroke: #A80036; stroke-width: 1.5;" x1="7" x2="153" y1="282" y2="282"/><line style="stroke: #A80036; stroke-width: 1.5;" x1="7" x2="153" y1="290" y2="290"/><ellipse cx="17" cy="301.9775" fill="#84BE84" rx="3" ry="3" style="stroke: #038048; stroke-width: 1.0;"/><text fill="#000000" font-family="sans-serif" font-size="11" lengthAdjust="spacingAndGlyphs" textLength="75" x="26" y="304.6348">void operate()</text><!--class ConcreteDecoratorB--><rect fill="#FEFECE" filter="url(#f1sis1z4kgxclw)" height="60.9551" id="ConcreteDecoratorB" style="stroke: #A80036; stroke-width: 1.5;" width="147" x="189.5" y="250"/><ellipse cx="204.5" cy="266" fill="#ADD1B2" rx="11" ry="11" style="stroke: #A80036; stroke-width: 1.0;"/><path d="M206.9731,272.1431 Q206.3921,272.4419 205.7529,272.5913 Q205.1138,272.7407 204.4082,272.7407 Q201.9014,272.7407 200.5815,271.0889 Q199.2617,269.437 199.2617,266.3159 Q199.2617,263.1865 200.5815,261.5347 Q201.9014,259.8828 204.4082,259.8828 Q205.1138,259.8828 205.7612,260.0322 Q206.4087,260.1816 206.9731,260.4805 L206.9731,263.2031 Q206.3423,262.6221 205.7488,262.3523 Q205.1553,262.0825 204.5244,262.0825 Q203.1797,262.0825 202.4949,263.1492 Q201.8101,264.2158 201.8101,266.3159 Q201.8101,268.4077 202.4949,269.4744 Q203.1797,270.541 204.5244,270.541 Q205.1553,270.541 205.7488,270.2712 Q206.3423,270.0015 206.9731,269.4204 Z "/><text fill="#000000" font-family="sans-serif" font-size="12" lengthAdjust="spacingAndGlyphs" textLength="115" x="218.5" y="270.5352">ConcreteDecoratorB</text><line style="stroke: #A80036; stroke-width: 1.5;" x1="190.5" x2="335.5" y1="282" y2="282"/><line style="stroke: #A80036; stroke-width: 1.5;" x1="190.5" x2="335.5" y1="290" y2="290"/><ellipse cx="200.5" cy="301.9775" fill="#84BE84" rx="3" ry="3" style="stroke: #038048; stroke-width: 1.0;"/><text fill="#000000" font-family="sans-serif" font-size="11" lengthAdjust="spacingAndGlyphs" textLength="75" x="209.5" y="304.6348">void operate()</text><!--link Component to ConcreteComponent--><path d="M282.3619,85.9349 C291.9335,100.4119 302.1981,115.9371 310.8191,128.9764 " fill="none" id="Component-ConcreteComponent" style="stroke: #A80036; stroke-width: 1.0;"/><polygon fill="none" points="276.3785,89.5773,271.1874,69.0334,288.0569,81.8561,276.3785,89.5773" style="stroke: #A80036; stroke-width: 1.0;"/><!--link Component to Decorator--><path d="M219.6381,85.9349 C210.0665,100.4119 199.8019,115.9371 191.1809,128.9764 " fill="none" id="Component-Decorator" style="stroke: #A80036; stroke-width: 1.0;"/><polygon fill="none" points="213.9431,81.8561,230.8126,69.0334,225.6215,89.5773,213.9431,81.8561" style="stroke: #A80036; stroke-width: 1.0;"/><!--link Decorator to ConcreteDecoratorA--><path d="M135.6845,206.458 C124.695,221.0704 112.8699,236.7938 102.9558,249.9764 " fill="none" id="Decorator-ConcreteDecoratorA" style="stroke: #A80036; stroke-width: 1.0;"/><polygon fill="none" points="130.4212,201.8102,148.0369,190.0334,141.6101,210.225,130.4212,201.8102" style="stroke: #A80036; stroke-width: 1.0;"/><!--link Decorator to ConcreteDecoratorB--><path d="M206.3416,205.9819 C217.5537,220.7283 229.6599,236.6505 239.7919,249.9764 " fill="none" id="Decorator-ConcreteDecoratorB" style="stroke: #A80036; stroke-width: 1.0;"/><polygon fill="none" points="200.7483,210.1909,194.2155,190.0334,211.8928,201.7174,200.7483,210.1909" style="stroke: #A80036; stroke-width: 1.0;"/><!--link Decorator to ConcreteComponent--><path d="M221.625,159.5 C231.4483,159.5 241.2716,159.5 251.095,159.5 " fill="none" id="Decorator-ConcreteComponent" style="stroke: #A80036; stroke-width: 1.0;"/><polygon fill="#A80036" points="256.2319,159.5,247.2319,155.5,251.2319,159.5,247.2319,163.5,256.2319,159.5" style="stroke: #A80036; stroke-width: 1.0;"/><!--
@startuml
class Component{
+ void operate()
}
class ConcreteComponent extends Component{
+ void operate()
}
class Decorator extends Component{
+ void operate()
}
class ConcreteDecoratorA extends Decorator{
+ void operate()
}
class ConcreteDecoratorB extends Decorator{
+ void operate()
}

Decorator -> ConcreteComponent
@enduml

PlantUML version 1.2018.10(Sun Aug 26 01:02:59 CST 2018)
(APACHE source distribution)
Java Runtime: OpenJDK Runtime Environment
JVM: OpenJDK 64-Bit Server VM
Java Version: 12+33
Operating System: Mac OS X
OS Version: 10.14.4
Default Encoding: UTF-8
Language: zh
Country: CN
--></g></svg>