<?xml version="1.0" encoding="UTF-8" standalone="no"?><svg xmlns="http://www.w3.org/2000/svg" xmlns:xlink="http://www.w3.org/1999/xlink" contentScriptType="application/ecmascript" contentStyleType="text/css" height="131px" preserveAspectRatio="none" style="width:242px;height:131px;" version="1.1" viewBox="0 0 242 131" width="242px" zoomAndPan="magnify"><defs><filter height="300%" id="f1k6648ydn96o0" width="300%" x="-1" y="-1"><feGaussianBlur result="blurOut" stdDeviation="2.0"/><feColorMatrix in="blurOut" result="blurOut2" type="matrix" values="0 0 0 0 0 0 0 0 0 0 0 0 0 0 0 0 0 0 .4 0"/><feOffset dx="4.0" dy="4.0" in="blurOut2" result="blurOut3"/><feBlend in="SourceGraphic" in2="blurOut3" mode="normal"/></filter></defs><g><!--class Product--><rect fill="#FEFECE" filter="url(#f1k6648ydn96o0)" height="48" id="Product" style="stroke: #A80036; stroke-width: 1.5;" width="76" x="6" y="40.5"/><ellipse cx="21" cy="56.5" fill="#ADD1B2" rx="11" ry="11" style="stroke: #A80036; stroke-width: 1.0;"/><path d="M23.4731,62.6431 Q22.8921,62.9419 22.2529,63.0913 Q21.6138,63.2407 20.9082,63.2407 Q18.4014,63.2407 17.0815,61.5889 Q15.7617,59.937 15.7617,56.8159 Q15.7617,53.6865 17.0815,52.0347 Q18.4014,50.3828 20.9082,50.3828 Q21.6138,50.3828 22.2612,50.5322 Q22.9087,50.6816 23.4731,50.9805 L23.4731,53.7031 Q22.8423,53.1221 22.2488,52.8523 Q21.6553,52.5825 21.0244,52.5825 Q19.6797,52.5825 18.9949,53.6492 Q18.3101,54.7158 18.3101,56.8159 Q18.3101,58.9077 18.9949,59.9744 Q19.6797,61.041 21.0244,61.041 Q21.6553,61.041 22.2488,60.7712 Q22.8423,60.5015 23.4731,59.9204 Z "/><text fill="#000000" font-family="sans-serif" font-size="12" lengthAdjust="spacingAndGlyphs" textLength="44" x="35" y="61.0352">Product</text><line style="stroke: #A80036; stroke-width: 1.5;" x1="7" x2="81" y1="72.5" y2="72.5"/><line style="stroke: #A80036; stroke-width: 1.5;" x1="7" x2="81" y1="80.5" y2="80.5"/><!--class Builder--><rect fill="#FEFECE" filter="url(#f1k6648ydn96o0)" height="112.7754" id="Builder" style="stroke: #A80036; stroke-width: 1.5;" width="114" x="117" y="8"/><ellipse cx="150.9" cy="24" fill="#ADD1B2" rx="11" ry="11" style="stroke: #A80036; stroke-width: 1.0;"/><path d="M153.3731,30.1431 Q152.7921,30.4419 152.1529,30.5913 Q151.5138,30.7407 150.8082,30.7407 Q148.3014,30.7407 146.9815,29.0889 Q145.6617,27.437 145.6617,24.3159 Q145.6617,21.1865 146.9815,19.5347 Q148.3014,17.8828 150.8082,17.8828 Q151.5138,17.8828 152.1612,18.0322 Q152.8087,18.1816 153.3731,18.4805 L153.3731,21.2031 Q152.7423,20.6221 152.1488,20.3523 Q151.5553,20.0825 150.9244,20.0825 Q149.5797,20.0825 148.8949,21.1492 Q148.2101,22.2158 148.2101,24.3159 Q148.2101,26.4077 148.8949,27.4744 Q149.5797,28.541 150.9244,28.541 Q151.5553,28.541 152.1488,28.2712 Q152.7423,28.0015 153.3731,27.4204 Z "/><text fill="#000000" font-family="sans-serif" font-size="12" lengthAdjust="spacingAndGlyphs" textLength="40" x="169.1" y="28.5352">Builder</text><line style="stroke: #A80036; stroke-width: 1.5;" x1="118" x2="230" y1="40" y2="40"/><rect fill="none" height="6" style="stroke: #C82930; stroke-width: 1.0;" width="6" x="125" y="48.9775"/><text fill="#000000" font-family="sans-serif" font-size="11" lengthAdjust="spacingAndGlyphs" textLength="88" x="137" y="54.6348">Product product</text><line style="stroke: #A80036; stroke-width: 1.5;" x1="118" x2="230" y1="60.9551" y2="60.9551"/><ellipse cx="128" cy="72.9326" fill="#84BE84" rx="3" ry="3" style="stroke: #038048; stroke-width: 1.0;"/><text fill="#000000" font-family="sans-serif" font-size="11" lengthAdjust="spacingAndGlyphs" textLength="54" x="137" y="75.5898">Builder a()</text><ellipse cx="128" cy="85.8877" fill="#84BE84" rx="3" ry="3" style="stroke: #038048; stroke-width: 1.0;"/><text fill="#000000" font-family="sans-serif" font-size="11" lengthAdjust="spacingAndGlyphs" textLength="55" x="137" y="88.5449">Builder b()</text><ellipse cx="128" cy="98.8428" fill="#84BE84" rx="3" ry="3" style="stroke: #038048; stroke-width: 1.0;"/><text fill="#000000" font-family="sans-serif" font-size="11" lengthAdjust="spacingAndGlyphs" textLength="54" x="137" y="101.5">Builder c()</text><ellipse cx="128" cy="111.7979" fill="#84BE84" rx="3" ry="3" style="stroke: #038048; stroke-width: 1.0;"/><text fill="#000000" font-family="sans-serif" font-size="11" lengthAdjust="spacingAndGlyphs" textLength="80" x="137" y="114.4551">Product build()</text><!--
@startuml
class Product{
}
class Builder{
- Product product
+ Builder a()
+ Builder b()
+ Builder c()
+ Product build()
}
@enduml

PlantUML version 1.2018.10(Sun Aug 26 01:02:59 CST 2018)
(APACHE source distribution)
Java Runtime: OpenJDK Runtime Environment
JVM: OpenJDK 64-Bit Server VM
Java Version: 12+33
Operating System: Mac OS X
OS Version: 10.14.4
Default Encoding: UTF-8
Language: zh
Country: CN
--></g></svg>