<?xml version="1.0" encoding="UTF-8" standalone="no"?><svg xmlns="http://www.w3.org/2000/svg" xmlns:xlink="http://www.w3.org/1999/xlink" contentScriptType="application/ecmascript" contentStyleType="text/css" height="226px" preserveAspectRatio="none" style="width:316px;height:226px;" version="1.1" viewBox="0 0 316 226" width="316px" zoomAndPan="magnify"><defs><filter height="300%" id="fdr6tv654k2qz" width="300%" x="-1" y="-1"><feGaussianBlur result="blurOut" stdDeviation="2.0"/><feColorMatrix in="blurOut" result="blurOut2" type="matrix" values="0 0 0 0 0 0 0 0 0 0 0 0 0 0 0 0 0 0 .4 0"/><feOffset dx="4.0" dy="4.0" in="blurOut2" result="blurOut3"/><feBlend in="SourceGraphic" in2="blurOut3" mode="normal"/></filter></defs><g><!--class Component--><rect fill="#FEFECE" filter="url(#fdr6tv654k2qz)" height="60.9551" id="Component" style="stroke: #A80036; stroke-width: 1.5;" width="101" x="89" y="8"/><ellipse cx="105.35" cy="24" fill="#ADD1B2" rx="11" ry="11" style="stroke: #A80036; stroke-width: 1.0;"/><path d="M107.8231,30.1431 Q107.2421,30.4419 106.6029,30.5913 Q105.9638,30.7407 105.2582,30.7407 Q102.7514,30.7407 101.4315,29.0889 Q100.1117,27.437 100.1117,24.3159 Q100.1117,21.1865 101.4315,19.5347 Q102.7514,17.8828 105.2582,17.8828 Q105.9638,17.8828 106.6112,18.0322 Q107.2587,18.1816 107.8231,18.4805 L107.8231,21.2031 Q107.1923,20.6221 106.5988,20.3523 Q106.0053,20.0825 105.3744,20.0825 Q104.0297,20.0825 103.3449,21.1492 Q102.6601,22.2158 102.6601,24.3159 Q102.6601,26.4077 103.3449,27.4744 Q104.0297,28.541 105.3744,28.541 Q106.0053,28.541 106.5988,28.2712 Q107.1923,28.0015 107.8231,27.4204 Z "/><text fill="#000000" font-family="sans-serif" font-size="12" lengthAdjust="spacingAndGlyphs" textLength="66" x="119.65" y="28.5352">Component</text><line style="stroke: #A80036; stroke-width: 1.5;" x1="90" x2="189" y1="40" y2="40"/><line style="stroke: #A80036; stroke-width: 1.5;" x1="90" x2="189" y1="48" y2="48"/><ellipse cx="100" cy="59.9775" fill="#84BE84" rx="3" ry="3" style="stroke: #038048; stroke-width: 1.0;"/><text fill="#000000" font-family="sans-serif" font-size="11" lengthAdjust="spacingAndGlyphs" textLength="75" x="109" y="62.6348">void operate()</text><!--class Leaf--><rect fill="#FEFECE" filter="url(#fdr6tv654k2qz)" height="60.9551" id="Leaf" style="stroke: #A80036; stroke-width: 1.5;" width="101" x="6" y="142"/><ellipse cx="41.25" cy="158" fill="#ADD1B2" rx="11" ry="11" style="stroke: #A80036; stroke-width: 1.0;"/><path d="M43.7231,164.1431 Q43.1421,164.4419 42.5029,164.5913 Q41.8638,164.7407 41.1582,164.7407 Q38.6514,164.7407 37.3315,163.0889 Q36.0117,161.437 36.0117,158.3159 Q36.0117,155.1865 37.3315,153.5347 Q38.6514,151.8828 41.1582,151.8828 Q41.8638,151.8828 42.5112,152.0322 Q43.1587,152.1816 43.7231,152.4805 L43.7231,155.2031 Q43.0923,154.6221 42.4988,154.3523 Q41.9053,154.0825 41.2744,154.0825 Q39.9297,154.0825 39.2449,155.1492 Q38.5601,156.2158 38.5601,158.3159 Q38.5601,160.4077 39.2449,161.4744 Q39.9297,162.541 41.2744,162.541 Q41.9053,162.541 42.4988,162.2712 Q43.0923,162.0015 43.7231,161.4204 Z "/><text fill="#000000" font-family="sans-serif" font-size="12" lengthAdjust="spacingAndGlyphs" textLength="24" x="59.75" y="162.5352">Leaf</text><line style="stroke: #A80036; stroke-width: 1.5;" x1="7" x2="106" y1="174" y2="174"/><line style="stroke: #A80036; stroke-width: 1.5;" x1="7" x2="106" y1="182" y2="182"/><ellipse cx="17" cy="193.9775" fill="#84BE84" rx="3" ry="3" style="stroke: #038048; stroke-width: 1.0;"/><text fill="#000000" font-family="sans-serif" font-size="11" lengthAdjust="spacingAndGlyphs" textLength="75" x="26" y="196.6348">void operate()</text><!--class Composite--><rect fill="#FEFECE" filter="url(#fdr6tv654k2qz)" height="86.8652" id="Composite" style="stroke: #A80036; stroke-width: 1.5;" width="163" x="142" y="129"/><ellipse cx="188.75" cy="145" fill="#ADD1B2" rx="11" ry="11" style="stroke: #A80036; stroke-width: 1.0;"/><path d="M191.2231,151.1431 Q190.6421,151.4419 190.0029,151.5913 Q189.3638,151.7407 188.6582,151.7407 Q186.1514,151.7407 184.8315,150.0889 Q183.5117,148.437 183.5117,145.3159 Q183.5117,142.1865 184.8315,140.5347 Q186.1514,138.8828 188.6582,138.8828 Q189.3638,138.8828 190.0112,139.0322 Q190.6587,139.1816 191.2231,139.4805 L191.2231,142.2031 Q190.5923,141.6221 189.9988,141.3523 Q189.4053,141.0825 188.7744,141.0825 Q187.4297,141.0825 186.7449,142.1492 Q186.0601,143.2158 186.0601,145.3159 Q186.0601,147.4077 186.7449,148.4744 Q187.4297,149.541 188.7744,149.541 Q189.4053,149.541 189.9988,149.2712 Q190.5923,149.0015 191.2231,148.4204 Z "/><text fill="#000000" font-family="sans-serif" font-size="12" lengthAdjust="spacingAndGlyphs" textLength="61" x="209.25" y="149.5352">Composite</text><line style="stroke: #A80036; stroke-width: 1.5;" x1="143" x2="304" y1="161" y2="161"/><line style="stroke: #A80036; stroke-width: 1.5;" x1="143" x2="304" y1="169" y2="169"/><ellipse cx="153" cy="180.9775" fill="#84BE84" rx="3" ry="3" style="stroke: #038048; stroke-width: 1.0;"/><text fill="#000000" font-family="sans-serif" font-size="11" lengthAdjust="spacingAndGlyphs" textLength="117" x="162" y="183.6348">void add(Component)</text><ellipse cx="153" cy="193.9326" fill="#84BE84" rx="3" ry="3" style="stroke: #038048; stroke-width: 1.0;"/><text fill="#000000" font-family="sans-serif" font-size="11" lengthAdjust="spacingAndGlyphs" textLength="137" x="162" y="196.5898">void remove(Component)</text><ellipse cx="153" cy="206.8877" fill="#84BE84" rx="3" ry="3" style="stroke: #038048; stroke-width: 1.0;"/><text fill="#000000" font-family="sans-serif" font-size="11" lengthAdjust="spacingAndGlyphs" textLength="75" x="162" y="209.5449">void operate()</text><!--link Component to Leaf--><path d="M109.8054,86.4407 C98.3625,104.9148 85.6134,125.4976 75.4533,141.9007 " fill="none" id="Component-Leaf" style="stroke: #A80036; stroke-width: 1.0;"/><polygon fill="none" points="103.9757,82.5589,120.4581,69.2423,115.8775,89.9309,103.9757,82.5589" style="stroke: #A80036; stroke-width: 1.0;"/><!--link Component to Composite--><path d="M169.6137,86.5385 C178.2905,100.3801 187.7049,115.3983 196.2009,128.9514 " fill="none" id="Component-Composite" style="stroke: #A80036; stroke-width: 1.0;"/><polygon fill="none" points="163.463,89.906,158.7713,69.2423,175.3251,82.4701,163.463,89.906" style="stroke: #A80036; stroke-width: 1.0;"/><!--
@startuml
class Component{
+ void operate()
}

class Leaf extends Component{
+ void operate()
}

class Composite extends Component{
+ void add(Component)
+ void remove(Component)
+ void operate()
}

@enduml

PlantUML version 1.2018.10(Sun Aug 26 01:02:59 CST 2018)
(APACHE source distribution)
Java Runtime: OpenJDK Runtime Environment
JVM: OpenJDK 64-Bit Server VM
Java Version: 12+33
Operating System: Mac OS X
OS Version: 10.14.4
Default Encoding: UTF-8
Language: zh
Country: CN
--></g></svg>