<?xml version="1.0" encoding="UTF-8" standalone="no"?><svg xmlns="http://www.w3.org/2000/svg" xmlns:xlink="http://www.w3.org/1999/xlink" contentScriptType="application/ecmascript" contentStyleType="text/css" height="200px" preserveAspectRatio="none" style="width:320px;height:200px;" version="1.1" viewBox="0 0 320 200" width="320px" zoomAndPan="magnify"><defs><filter height="300%" id="f13s4619m5jj3m" width="300%" x="-1" y="-1"><feGaussianBlur result="blurOut" stdDeviation="2.0"/><feColorMatrix in="blurOut" result="blurOut2" type="matrix" values="0 0 0 0 0 0 0 0 0 0 0 0 0 0 0 0 0 0 .4 0"/><feOffset dx="4.0" dy="4.0" in="blurOut2" result="blurOut3"/><feBlend in="SourceGraphic" in2="blurOut3" mode="normal"/></filter></defs><g><!--class Subject--><rect fill="#FEFECE" filter="url(#f13s4619m5jj3m)" height="60.9551" id="Subject" style="stroke: #A80036; stroke-width: 1.5;" width="101" x="102" y="8"/><ellipse cx="129.15" cy="24" fill="#B4A7E5" rx="11" ry="11" style="stroke: #A80036; stroke-width: 1.0;"/><path d="M125.5777,20.2651 L125.5777,18.1069 L132.9571,18.1069 L132.9571,20.2651 L130.4918,20.2651 L130.4918,28.3418 L132.9571,28.3418 L132.9571,30.5 L125.5777,30.5 L125.5777,28.3418 L128.0431,28.3418 L128.0431,20.2651 Z "/><text fill="#000000" font-family="sans-serif" font-size="12" font-style="italic" lengthAdjust="spacingAndGlyphs" textLength="42" x="145.85" y="28.5352">Subject</text><line style="stroke: #A80036; stroke-width: 1.5;" x1="103" x2="202" y1="40" y2="40"/><line style="stroke: #A80036; stroke-width: 1.5;" x1="103" x2="202" y1="48" y2="48"/><ellipse cx="113" cy="59.9775" fill="#84BE84" rx="3" ry="3" style="stroke: #038048; stroke-width: 1.0;"/><text fill="#000000" font-family="sans-serif" font-size="11" lengthAdjust="spacingAndGlyphs" textLength="75" x="122" y="62.6348">void request()</text><!--class ConcreteSubject--><rect fill="#FEFECE" filter="url(#f13s4619m5jj3m)" height="60.9551" id="ConcreteSubject" style="stroke: #A80036; stroke-width: 1.5;" width="125" x="6" y="129"/><ellipse cx="21" cy="145" fill="#ADD1B2" rx="11" ry="11" style="stroke: #A80036; stroke-width: 1.0;"/><path d="M23.4731,151.1431 Q22.8921,151.4419 22.2529,151.5913 Q21.6138,151.7407 20.9082,151.7407 Q18.4014,151.7407 17.0815,150.0889 Q15.7617,148.437 15.7617,145.3159 Q15.7617,142.1865 17.0815,140.5347 Q18.4014,138.8828 20.9082,138.8828 Q21.6138,138.8828 22.2612,139.0322 Q22.9087,139.1816 23.4731,139.4805 L23.4731,142.2031 Q22.8423,141.6221 22.2488,141.3523 Q21.6553,141.0825 21.0244,141.0825 Q19.6797,141.0825 18.9949,142.1492 Q18.3101,143.2158 18.3101,145.3159 Q18.3101,147.4077 18.9949,148.4744 Q19.6797,149.541 21.0244,149.541 Q21.6553,149.541 22.2488,149.2712 Q22.8423,149.0015 23.4731,148.4204 Z "/><text fill="#000000" font-family="sans-serif" font-size="12" lengthAdjust="spacingAndGlyphs" textLength="93" x="35" y="149.5352">ConcreteSubject</text><line style="stroke: #A80036; stroke-width: 1.5;" x1="7" x2="130" y1="161" y2="161"/><line style="stroke: #A80036; stroke-width: 1.5;" x1="7" x2="130" y1="169" y2="169"/><ellipse cx="17" cy="180.9775" fill="#84BE84" rx="3" ry="3" style="stroke: #038048; stroke-width: 1.0;"/><text fill="#000000" font-family="sans-serif" font-size="11" lengthAdjust="spacingAndGlyphs" textLength="75" x="26" y="183.6348">void request()</text><!--class ProxyObject--><rect fill="#FEFECE" filter="url(#f13s4619m5jj3m)" height="60.9551" id="ProxyObject" style="stroke: #A80036; stroke-width: 1.5;" width="143" x="166" y="129"/><ellipse cx="199.45" cy="145" fill="#ADD1B2" rx="11" ry="11" style="stroke: #A80036; stroke-width: 1.0;"/><path d="M201.9231,151.1431 Q201.3421,151.4419 200.7029,151.5913 Q200.0638,151.7407 199.3582,151.7407 Q196.8514,151.7407 195.5315,150.0889 Q194.2117,148.437 194.2117,145.3159 Q194.2117,142.1865 195.5315,140.5347 Q196.8514,138.8828 199.3582,138.8828 Q200.0638,138.8828 200.7112,139.0322 Q201.3587,139.1816 201.9231,139.4805 L201.9231,142.2031 Q201.2923,141.6221 200.6988,141.3523 Q200.1053,141.0825 199.4744,141.0825 Q198.1297,141.0825 197.4449,142.1492 Q196.7601,143.2158 196.7601,145.3159 Q196.7601,147.4077 197.4449,148.4744 Q198.1297,149.541 199.4744,149.541 Q200.1053,149.541 200.6988,149.2712 Q201.2923,149.0015 201.9231,148.4204 Z "/><text fill="#000000" font-family="sans-serif" font-size="12" lengthAdjust="spacingAndGlyphs" textLength="70" x="217.55" y="149.5352">ProxyObject</text><line style="stroke: #A80036; stroke-width: 1.5;" x1="167" x2="308" y1="161" y2="161"/><line style="stroke: #A80036; stroke-width: 1.5;" x1="167" x2="308" y1="169" y2="169"/><ellipse cx="177" cy="180.9775" fill="#84BE84" rx="3" ry="3" style="stroke: #038048; stroke-width: 1.0;"/><text fill="#000000" font-family="sans-serif" font-size="11" lengthAdjust="spacingAndGlyphs" textLength="117" x="186" y="183.6348">void customRequest()</text><!--link Subject to ConcreteSubject--><path d="M119.57,85.9349 C109.5198,100.4119 98.742,115.9371 89.69,128.9764 " fill="none" id="Subject-ConcreteSubject" style="stroke: #A80036; stroke-width: 1.0; stroke-dasharray: 7.0,7.0;"/><polygon fill="none" points="114.1476,81.4707,131.3033,69.0334,125.6481,89.4545,114.1476,81.4707" style="stroke: #A80036; stroke-width: 1.0;"/><!--link Subject to ProxyObject--><path d="M185.487,85.458 C195.7519,100.0704 206.7973,115.7938 216.0578,128.9764 " fill="none" id="Subject-ProxyObject" style="stroke: #A80036; stroke-width: 1.0; stroke-dasharray: 7.0,7.0;"/><polygon fill="none" points="179.7176,89.4228,173.9491,69.0334,191.1735,81.3752,179.7176,89.4228" style="stroke: #A80036; stroke-width: 1.0;"/><!--link ConcreteSubject to ProxyObject--><path d="M136.3299,159.5 C146.1115,159.5 155.893,159.5 165.6745,159.5 " fill="none" id="ConcreteSubject-ProxyObject" style="stroke: #A80036; stroke-width: 1.0;"/><polygon fill="#A80036" points="131.2148,159.5,140.2148,163.5,136.2148,159.5,140.2148,155.5,131.2148,159.5" style="stroke: #A80036; stroke-width: 1.0;"/><!--
@startuml
interface Subject{
+ void request()
}
class ConcreteSubject{
+ void request()
}
class ProxyObject{
+ void customRequest()
}
Subject <|.. ConcreteSubject
Subject <|.. ProxyObject
ConcreteSubject <- ProxyObject
@enduml

PlantUML version 1.2018.10(Sun Aug 26 01:02:59 CST 2018)
(APACHE source distribution)
Java Runtime: OpenJDK Runtime Environment
JVM: OpenJDK 64-Bit Server VM
Java Version: 12+33
Operating System: Mac OS X
OS Version: 10.14.4
Default Encoding: UTF-8
Language: zh
Country: CN
--></g></svg>