<?xml version="1.0" encoding="UTF-8" standalone="no"?><svg xmlns="http://www.w3.org/2000/svg" xmlns:xlink="http://www.w3.org/1999/xlink" contentScriptType="application/ecmascript" contentStyleType="text/css" height="201px" preserveAspectRatio="none" style="width:743px;height:201px;" version="1.1" viewBox="0 0 743 201" width="743px" zoomAndPan="magnify"><defs><filter height="300%" id="f45is6fd3z89z" width="300%" x="-1" y="-1"><feGaussianBlur result="blurOut" stdDeviation="2.0"/><feColorMatrix in="blurOut" result="blurOut2" type="matrix" values="0 0 0 0 0 0 0 0 0 0 0 0 0 0 0 0 0 0 .4 0"/><feOffset dx="4.0" dy="4.0" in="blurOut2" result="blurOut3"/><feBlend in="SourceGraphic" in2="blurOut3" mode="normal"/></filter></defs><g><!--class ProductA--><rect fill="#FEFECE" filter="url(#f45is6fd3z89z)" height="48" id="ProductA" style="stroke: #A80036; stroke-width: 1.5;" width="84" x="31.5" y="21"/><ellipse cx="46.5" cy="37" fill="#B4A7E5" rx="11" ry="11" style="stroke: #A80036; stroke-width: 1.0;"/><path d="M42.9277,33.2651 L42.9277,31.1069 L50.3071,31.1069 L50.3071,33.2651 L47.8418,33.2651 L47.8418,41.3418 L50.3071,41.3418 L50.3071,43.5 L42.9277,43.5 L42.9277,41.3418 L45.3931,41.3418 L45.3931,33.2651 Z "/><text fill="#000000" font-family="sans-serif" font-size="12" font-style="italic" lengthAdjust="spacingAndGlyphs" textLength="52" x="60.5" y="41.5352">ProductA</text><line style="stroke: #A80036; stroke-width: 1.5;" x1="32.5" x2="114.5" y1="53" y2="53"/><line style="stroke: #A80036; stroke-width: 1.5;" x1="32.5" x2="114.5" y1="61" y2="61"/><!--class ProductB--><rect fill="#FEFECE" filter="url(#f45is6fd3z89z)" height="48" id="ProductB" style="stroke: #A80036; stroke-width: 1.5;" width="83" x="202" y="21"/><ellipse cx="217" cy="37" fill="#B4A7E5" rx="11" ry="11" style="stroke: #A80036; stroke-width: 1.0;"/><path d="M213.4277,33.2651 L213.4277,31.1069 L220.8071,31.1069 L220.8071,33.2651 L218.3418,33.2651 L218.3418,41.3418 L220.8071,41.3418 L220.8071,43.5 L213.4277,43.5 L213.4277,41.3418 L215.8931,41.3418 L215.8931,33.2651 Z "/><text fill="#000000" font-family="sans-serif" font-size="12" font-style="italic" lengthAdjust="spacingAndGlyphs" textLength="51" x="231" y="41.5352">ProductB</text><line style="stroke: #A80036; stroke-width: 1.5;" x1="203" x2="284" y1="53" y2="53"/><line style="stroke: #A80036; stroke-width: 1.5;" x1="203" x2="284" y1="61" y2="61"/><!--class ConcreteProductA--><rect fill="#FEFECE" filter="url(#f45is6fd3z89z)" height="48" id="ConcreteProductA" style="stroke: #A80036; stroke-width: 1.5;" width="135" x="6" y="142"/><ellipse cx="21" cy="158" fill="#ADD1B2" rx="11" ry="11" style="stroke: #A80036; stroke-width: 1.0;"/><path d="M23.4731,164.1431 Q22.8921,164.4419 22.2529,164.5913 Q21.6138,164.7407 20.9082,164.7407 Q18.4014,164.7407 17.0815,163.0889 Q15.7617,161.437 15.7617,158.3159 Q15.7617,155.1865 17.0815,153.5347 Q18.4014,151.8828 20.9082,151.8828 Q21.6138,151.8828 22.2612,152.0322 Q22.9087,152.1816 23.4731,152.4805 L23.4731,155.2031 Q22.8423,154.6221 22.2488,154.3523 Q21.6553,154.0825 21.0244,154.0825 Q19.6797,154.0825 18.9949,155.1492 Q18.3101,156.2158 18.3101,158.3159 Q18.3101,160.4077 18.9949,161.4744 Q19.6797,162.541 21.0244,162.541 Q21.6553,162.541 22.2488,162.2712 Q22.8423,162.0015 23.4731,161.4204 Z "/><text fill="#000000" font-family="sans-serif" font-size="12" lengthAdjust="spacingAndGlyphs" textLength="103" x="35" y="162.5352">ConcreteProductA</text><line style="stroke: #A80036; stroke-width: 1.5;" x1="7" x2="140" y1="174" y2="174"/><line style="stroke: #A80036; stroke-width: 1.5;" x1="7" x2="140" y1="182" y2="182"/><!--class ConcreteProductB--><rect fill="#FEFECE" filter="url(#f45is6fd3z89z)" height="48" id="ConcreteProductB" style="stroke: #A80036; stroke-width: 1.5;" width="134" x="176.5" y="142"/><ellipse cx="191.5" cy="158" fill="#ADD1B2" rx="11" ry="11" style="stroke: #A80036; stroke-width: 1.0;"/><path d="M193.9731,164.1431 Q193.3921,164.4419 192.7529,164.5913 Q192.1138,164.7407 191.4082,164.7407 Q188.9014,164.7407 187.5815,163.0889 Q186.2617,161.437 186.2617,158.3159 Q186.2617,155.1865 187.5815,153.5347 Q188.9014,151.8828 191.4082,151.8828 Q192.1138,151.8828 192.7612,152.0322 Q193.4087,152.1816 193.9731,152.4805 L193.9731,155.2031 Q193.3423,154.6221 192.7488,154.3523 Q192.1553,154.0825 191.5244,154.0825 Q190.1797,154.0825 189.4949,155.1492 Q188.8101,156.2158 188.8101,158.3159 Q188.8101,160.4077 189.4949,161.4744 Q190.1797,162.541 191.5244,162.541 Q192.1553,162.541 192.7488,162.2712 Q193.3423,162.0015 193.9731,161.4204 Z "/><text fill="#000000" font-family="sans-serif" font-size="12" lengthAdjust="spacingAndGlyphs" textLength="102" x="205.5" y="162.5352">ConcreteProductB</text><line style="stroke: #A80036; stroke-width: 1.5;" x1="177.5" x2="309.5" y1="174" y2="174"/><line style="stroke: #A80036; stroke-width: 1.5;" x1="177.5" x2="309.5" y1="182" y2="182"/><!--class ProductFactory--><rect fill="#FEFECE" filter="url(#f45is6fd3z89z)" height="73.9102" id="ProductFactory" style="stroke: #A80036; stroke-width: 1.5;" width="128" x="474.5" y="8"/><ellipse cx="494.45" cy="24" fill="#B4A7E5" rx="11" ry="11" style="stroke: #A80036; stroke-width: 1.0;"/><path d="M490.8777,20.2651 L490.8777,18.1069 L498.2571,18.1069 L498.2571,20.2651 L495.7918,20.2651 L495.7918,28.3418 L498.2571,28.3418 L498.2571,30.5 L490.8777,30.5 L490.8777,28.3418 L493.3431,28.3418 L493.3431,20.2651 Z "/><text fill="#000000" font-family="sans-serif" font-size="12" font-style="italic" lengthAdjust="spacingAndGlyphs" textLength="85" x="509.55" y="28.5352">ProductFactory</text><line style="stroke: #A80036; stroke-width: 1.5;" x1="475.5" x2="601.5" y1="40" y2="40"/><line style="stroke: #A80036; stroke-width: 1.5;" x1="475.5" x2="601.5" y1="48" y2="48"/><ellipse cx="485.5" cy="59.9775" fill="#84BE84" rx="3" ry="3" style="stroke: #038048; stroke-width: 1.0;"/><text fill="#000000" font-family="sans-serif" font-size="11" lengthAdjust="spacingAndGlyphs" textLength="102" x="494.5" y="62.6348">ProductA createA()</text><ellipse cx="485.5" cy="72.9326" fill="#84BE84" rx="3" ry="3" style="stroke: #038048; stroke-width: 1.0;"/><text fill="#000000" font-family="sans-serif" font-size="11" lengthAdjust="spacingAndGlyphs" textLength="98" x="494.5" y="75.5898">ProductB createB()</text><!--class ConcreteProductFactory1--><rect fill="#FEFECE" filter="url(#f45is6fd3z89z)" height="48" id="ConcreteProductFactory1" style="stroke: #A80036; stroke-width: 1.5;" width="176" x="556.5" y="142"/><ellipse cx="571.5" cy="158" fill="#ADD1B2" rx="11" ry="11" style="stroke: #A80036; stroke-width: 1.0;"/><path d="M573.9731,164.1431 Q573.3921,164.4419 572.7529,164.5913 Q572.1138,164.7407 571.4082,164.7407 Q568.9014,164.7407 567.5815,163.0889 Q566.2617,161.437 566.2617,158.3159 Q566.2617,155.1865 567.5815,153.5347 Q568.9014,151.8828 571.4082,151.8828 Q572.1138,151.8828 572.7612,152.0322 Q573.4087,152.1816 573.9731,152.4805 L573.9731,155.2031 Q573.3423,154.6221 572.7488,154.3523 Q572.1553,154.0825 571.5244,154.0825 Q570.1797,154.0825 569.4949,155.1492 Q568.8101,156.2158 568.8101,158.3159 Q568.8101,160.4077 569.4949,161.4744 Q570.1797,162.541 571.5244,162.541 Q572.1553,162.541 572.7488,162.2712 Q573.3423,162.0015 573.9731,161.4204 Z "/><text fill="#000000" font-family="sans-serif" font-size="12" lengthAdjust="spacingAndGlyphs" textLength="144" x="585.5" y="162.5352">ConcreteProductFactory1</text><line style="stroke: #A80036; stroke-width: 1.5;" x1="557.5" x2="731.5" y1="174" y2="174"/><line style="stroke: #A80036; stroke-width: 1.5;" x1="557.5" x2="731.5" y1="182" y2="182"/><!--class ConcreteProductFactory2--><rect fill="#FEFECE" filter="url(#f45is6fd3z89z)" height="48" id="ConcreteProductFactory2" style="stroke: #A80036; stroke-width: 1.5;" width="176" x="345.5" y="142"/><ellipse cx="360.5" cy="158" fill="#ADD1B2" rx="11" ry="11" style="stroke: #A80036; stroke-width: 1.0;"/><path d="M362.9731,164.1431 Q362.3921,164.4419 361.7529,164.5913 Q361.1138,164.7407 360.4082,164.7407 Q357.9014,164.7407 356.5815,163.0889 Q355.2617,161.437 355.2617,158.3159 Q355.2617,155.1865 356.5815,153.5347 Q357.9014,151.8828 360.4082,151.8828 Q361.1138,151.8828 361.7612,152.0322 Q362.4087,152.1816 362.9731,152.4805 L362.9731,155.2031 Q362.3423,154.6221 361.7488,154.3523 Q361.1553,154.0825 360.5244,154.0825 Q359.1797,154.0825 358.4949,155.1492 Q357.8101,156.2158 357.8101,158.3159 Q357.8101,160.4077 358.4949,161.4744 Q359.1797,162.541 360.5244,162.541 Q361.1553,162.541 361.7488,162.2712 Q362.3423,162.0015 362.9731,161.4204 Z "/><text fill="#000000" font-family="sans-serif" font-size="12" lengthAdjust="spacingAndGlyphs" textLength="144" x="374.5" y="162.5352">ConcreteProductFactory2</text><line style="stroke: #A80036; stroke-width: 1.5;" x1="346.5" x2="520.5" y1="174" y2="174"/><line style="stroke: #A80036; stroke-width: 1.5;" x1="346.5" x2="520.5" y1="182" y2="182"/><!--link ProductA to ConcreteProductA--><path d="M73.5,89.3886 C73.5,107.1241 73.5,126.8519 73.5,141.8466 " fill="none" id="ProductA-ConcreteProductA" style="stroke: #A80036; stroke-width: 1.0; stroke-dasharray: 7.0,7.0;"/><polygon fill="none" points="66.5001,89.1954,73.5,69.1953,80.5001,89.1953,66.5001,89.1954" style="stroke: #A80036; stroke-width: 1.0;"/><!--link ProductB to ConcreteProductB--><path d="M243.5,89.3886 C243.5,107.1241 243.5,126.8519 243.5,141.8466 " fill="none" id="ProductB-ConcreteProductB" style="stroke: #A80036; stroke-width: 1.0; stroke-dasharray: 7.0,7.0;"/><polygon fill="none" points="236.5001,89.1954,243.5,69.1953,250.5001,89.1953,236.5001,89.1954" style="stroke: #A80036; stroke-width: 1.0;"/><!--link ProductFactory to ConcreteProductFactory1--><path d="M584.426,97.4249 C598.0306,112.9548 612.2684,129.2074 623.4667,141.9903 " fill="none" id="ProductFactory-ConcreteProductFactory1" style="stroke: #A80036; stroke-width: 1.0; stroke-dasharray: 7.0,7.0;"/><polygon fill="none" points="579.082,101.9478,571.1684,82.2913,589.6127,92.7225,579.082,101.9478" style="stroke: #A80036; stroke-width: 1.0;"/><!--link ProductFactory to ConcreteProductFactory2--><path d="M493.0073,97.4249 C479.531,112.9548 465.4275,129.2074 454.3348,141.9903 " fill="none" id="ProductFactory-ConcreteProductFactory2" style="stroke: #A80036; stroke-width: 1.0; stroke-dasharray: 7.0,7.0;"/><polygon fill="none" points="487.7447,92.809,506.1398,82.2913,498.3186,101.9847,487.7447,92.809" style="stroke: #A80036; stroke-width: 1.0;"/><!--link ConcreteProductA to ConcreteProductFactory1--><path d="M113.3227,139.2314 C131.5917,128.5124 154.04,117.4308 176,112 C325.2806,75.0823 371.5239,80.3053 522,112 C549.7465,117.8442 578.8683,130.3822 601.753,141.9067 " fill="none" id="ConcreteProductA-ConcreteProductFactory1" style="stroke: #A80036; stroke-width: 1.0;"/><polygon fill="#A80036" points="108.771,141.9451,118.5498,140.7721,113.0657,139.3847,114.4531,133.9006,108.771,141.9451" style="stroke: #A80036; stroke-width: 1.0;"/><!--link ConcreteProductB to ConcreteProductFactory1--><path d="M282.9005,139.234 C300.9849,128.5155 323.2185,117.4335 345,112 C421.3276,92.9596 445.0224,95.7862 522,112 C549.7465,117.8442 578.8683,130.3822 601.753,141.9067 " fill="none" id="ConcreteProductB-ConcreteProductFactory1" style="stroke: #A80036; stroke-width: 1.0;"/><polygon fill="#A80036" points="278.395,141.9476,288.1684,140.7309,282.6782,139.368,284.0411,133.8778,278.395,141.9476" style="stroke: #A80036; stroke-width: 1.0;"/><!--link ConcreteProductA to ConcreteProductFactory2--><path d="M113.3227,139.2314 C131.5917,128.5124 154.04,117.4308 176,112 C233.8139,97.7024 251.7048,99.8124 310,112 C337.945,117.8424 367.3032,130.3803 390.3811,141.9052 " fill="none" id="ConcreteProductA-ConcreteProductFactory2" style="stroke: #A80036; stroke-width: 1.0;"/><polygon fill="#A80036" points="108.771,141.9451,118.5498,140.7721,113.0657,139.3847,114.4531,133.9006,108.771,141.9451" style="stroke: #A80036; stroke-width: 1.0;"/><!--link ConcreteProductB to ConcreteProductFactory2--><path d="M315.796,166 C325.6021,166 335.4083,166 345.2145,166 " fill="none" id="ConcreteProductB-ConcreteProductFactory2" style="stroke: #A80036; stroke-width: 1.0;"/><polygon fill="#A80036" points="310.668,166,319.668,170,315.668,166,319.668,162,310.668,166" style="stroke: #A80036; stroke-width: 1.0;"/><!--
@startuml
interface ProductA{
}
interface ProductB{
}
class ConcreteProductA{
}
class ConcreteProductB{
}
interface ProductFactory{
+ ProductA createA()
+ ProductB createB()
}
class ConcreteProductFactory1{
}
class ConcreteProductFactory2{
}
ProductA <|.. ConcreteProductA
ProductB <|.. ConcreteProductB
ProductFactory <|.. ConcreteProductFactory1
ProductFactory <|.. ConcreteProductFactory2

ConcreteProductA <- ConcreteProductFactory1
ConcreteProductB <- ConcreteProductFactory1
ConcreteProductA <- ConcreteProductFactory2
ConcreteProductB <- ConcreteProductFactory2
@enduml

PlantUML version 1.2018.10(Sun Aug 26 01:02:59 CST 2018)
(APACHE source distribution)
Java Runtime: OpenJDK Runtime Environment
JVM: OpenJDK 64-Bit Server VM
Java Version: 12+33
Operating System: Mac OS X
OS Version: 10.14.4
Default Encoding: UTF-8
Language: zh
Country: CN
--></g></svg>