<?xml version="1.0" encoding="UTF-8" standalone="no"?><svg xmlns="http://www.w3.org/2000/svg" xmlns:xlink="http://www.w3.org/1999/xlink" contentScriptType="application/ecmascript" contentStyleType="text/css" height="188px" preserveAspectRatio="none" style="width:347px;height:188px;" version="1.1" viewBox="0 0 347 188" width="347px" zoomAndPan="magnify"><defs><filter height="300%" id="fx4f62vx4wbha" width="300%" x="-1" y="-1"><feGaussianBlur result="blurOut" stdDeviation="2.0"/><feColorMatrix in="blurOut" result="blurOut2" type="matrix" values="0 0 0 0 0 0 0 0 0 0 0 0 0 0 0 0 0 0 .4 0"/><feOffset dx="4.0" dy="4.0" in="blurOut2" result="blurOut3"/><feBlend in="SourceGraphic" in2="blurOut3" mode="normal"/></filter></defs><g><!--class Product--><rect fill="#FEFECE" filter="url(#fx4f62vx4wbha)" height="48" id="Product" style="stroke: #A80036; stroke-width: 1.5;" width="76" x="31.5" y="14.5"/><ellipse cx="46.5" cy="30.5" fill="#B4A7E5" rx="11" ry="11" style="stroke: #A80036; stroke-width: 1.0;"/><path d="M42.9277,26.7651 L42.9277,24.6069 L50.3071,24.6069 L50.3071,26.7651 L47.8418,26.7651 L47.8418,34.8418 L50.3071,34.8418 L50.3071,37 L42.9277,37 L42.9277,34.8418 L45.3931,34.8418 L45.3931,26.7651 Z "/><text fill="#000000" font-family="sans-serif" font-size="12" font-style="italic" lengthAdjust="spacingAndGlyphs" textLength="44" x="60.5" y="35.0352">Product</text><line style="stroke: #A80036; stroke-width: 1.5;" x1="32.5" x2="106.5" y1="46.5" y2="46.5"/><line style="stroke: #A80036; stroke-width: 1.5;" x1="32.5" x2="106.5" y1="54.5" y2="54.5"/><!--class ConcreteProduct--><rect fill="#FEFECE" filter="url(#fx4f62vx4wbha)" height="48" id="ConcreteProduct" style="stroke: #A80036; stroke-width: 1.5;" width="127" x="6" y="129"/><ellipse cx="21" cy="145" fill="#ADD1B2" rx="11" ry="11" style="stroke: #A80036; stroke-width: 1.0;"/><path d="M23.4731,151.1431 Q22.8921,151.4419 22.2529,151.5913 Q21.6138,151.7407 20.9082,151.7407 Q18.4014,151.7407 17.0815,150.0889 Q15.7617,148.437 15.7617,145.3159 Q15.7617,142.1865 17.0815,140.5347 Q18.4014,138.8828 20.9082,138.8828 Q21.6138,138.8828 22.2612,139.0322 Q22.9087,139.1816 23.4731,139.4805 L23.4731,142.2031 Q22.8423,141.6221 22.2488,141.3523 Q21.6553,141.0825 21.0244,141.0825 Q19.6797,141.0825 18.9949,142.1492 Q18.3101,143.2158 18.3101,145.3159 Q18.3101,147.4077 18.9949,148.4744 Q19.6797,149.541 21.0244,149.541 Q21.6553,149.541 22.2488,149.2712 Q22.8423,149.0015 23.4731,148.4204 Z "/><text fill="#000000" font-family="sans-serif" font-size="12" lengthAdjust="spacingAndGlyphs" textLength="95" x="35" y="149.5352">ConcreteProduct</text><line style="stroke: #A80036; stroke-width: 1.5;" x1="7" x2="132" y1="161" y2="161"/><line style="stroke: #A80036; stroke-width: 1.5;" x1="7" x2="132" y1="169" y2="169"/><!--class ProductFactory--><rect fill="#FEFECE" filter="url(#fx4f62vx4wbha)" height="60.9551" id="ProductFactory" style="stroke: #A80036; stroke-width: 1.5;" width="117" x="194" y="8"/><ellipse cx="209" cy="24" fill="#B4A7E5" rx="11" ry="11" style="stroke: #A80036; stroke-width: 1.0;"/><path d="M205.4277,20.2651 L205.4277,18.1069 L212.8071,18.1069 L212.8071,20.2651 L210.3418,20.2651 L210.3418,28.3418 L212.8071,28.3418 L212.8071,30.5 L205.4277,30.5 L205.4277,28.3418 L207.8931,28.3418 L207.8931,20.2651 Z "/><text fill="#000000" font-family="sans-serif" font-size="12" font-style="italic" lengthAdjust="spacingAndGlyphs" textLength="85" x="223" y="28.5352">ProductFactory</text><line style="stroke: #A80036; stroke-width: 1.5;" x1="195" x2="310" y1="40" y2="40"/><line style="stroke: #A80036; stroke-width: 1.5;" x1="195" x2="310" y1="48" y2="48"/><ellipse cx="205" cy="59.9775" fill="#84BE84" rx="3" ry="3" style="stroke: #038048; stroke-width: 1.0;"/><text fill="#000000" font-family="sans-serif" font-size="11" lengthAdjust="spacingAndGlyphs" textLength="86" x="214" y="62.6348">Product create()</text><!--class ConcreteProductFactory--><rect fill="#FEFECE" filter="url(#fx4f62vx4wbha)" height="48" id="ConcreteProductFactory" style="stroke: #A80036; stroke-width: 1.5;" width="168" x="168.5" y="129"/><ellipse cx="183.5" cy="145" fill="#ADD1B2" rx="11" ry="11" style="stroke: #A80036; stroke-width: 1.0;"/><path d="M185.9731,151.1431 Q185.3921,151.4419 184.7529,151.5913 Q184.1138,151.7407 183.4082,151.7407 Q180.9014,151.7407 179.5815,150.0889 Q178.2617,148.437 178.2617,145.3159 Q178.2617,142.1865 179.5815,140.5347 Q180.9014,138.8828 183.4082,138.8828 Q184.1138,138.8828 184.7612,139.0322 Q185.4087,139.1816 185.9731,139.4805 L185.9731,142.2031 Q185.3423,141.6221 184.7488,141.3523 Q184.1553,141.0825 183.5244,141.0825 Q182.1797,141.0825 181.4949,142.1492 Q180.8101,143.2158 180.8101,145.3159 Q180.8101,147.4077 181.4949,148.4744 Q182.1797,149.541 183.5244,149.541 Q184.1553,149.541 184.7488,149.2712 Q185.3423,149.0015 185.9731,148.4204 Z "/><text fill="#000000" font-family="sans-serif" font-size="12" lengthAdjust="spacingAndGlyphs" textLength="136" x="197.5" y="149.5352">ConcreteProductFactory</text><line style="stroke: #A80036; stroke-width: 1.5;" x1="169.5" x2="335.5" y1="161" y2="161"/><line style="stroke: #A80036; stroke-width: 1.5;" x1="169.5" x2="335.5" y1="169" y2="169"/><!--link Product to ConcreteProduct--><path d="M69.5,82.5131 C69.5,98.1695 69.5,115.2233 69.5,128.6343 " fill="none" id="Product-ConcreteProduct" style="stroke: #A80036; stroke-width: 1.0; stroke-dasharray: 7.0,7.0;"/><polygon fill="none" points="62.5001,82.503,69.5,62.503,76.5001,82.5029,62.5001,82.503" style="stroke: #A80036; stroke-width: 1.0;"/><!--link ProductFactory to ConcreteProductFactory--><path d="M252.5,89.2346 C252.5,102.9779 252.5,117.2288 252.5,128.7634 " fill="none" id="ProductFactory-ConcreteProductFactory" style="stroke: #A80036; stroke-width: 1.0; stroke-dasharray: 7.0,7.0;"/><polygon fill="none" points="245.5001,89.1839,252.5,69.1839,259.5001,89.1839,245.5001,89.1839" style="stroke: #A80036; stroke-width: 1.0;"/><!--link ConcreteProduct to ConcreteProductFactory--><path d="M138.3126,153 C148.2402,153 158.1678,153 168.0954,153 " fill="none" id="ConcreteProduct-ConcreteProductFactory" style="stroke: #A80036; stroke-width: 1.0;"/><polygon fill="#A80036" points="133.1211,153,142.1211,157,138.1211,153,142.1211,149,133.1211,153" style="stroke: #A80036; stroke-width: 1.0;"/><!--
@startuml
interface Product{
}
class ConcreteProduct{
}
interface ProductFactory{
+ Product create()
}
class ConcreteProductFactory{
}
Product <|.. ConcreteProduct
ProductFactory <|.. ConcreteProductFactory
ConcreteProduct <- ConcreteProductFactory
@enduml

PlantUML version 1.2018.10(Sun Aug 26 01:02:59 CST 2018)
(APACHE source distribution)
Java Runtime: OpenJDK Runtime Environment
JVM: OpenJDK 64-Bit Server VM
Java Version: 12+33
Operating System: Mac OS X
OS Version: 10.14.4
Default Encoding: UTF-8
Language: zh
Country: CN
--></g></svg>