<?xml version="1.0" encoding="UTF-8" standalone="no"?><svg xmlns="http://www.w3.org/2000/svg" xmlns:xlink="http://www.w3.org/1999/xlink" contentScriptType="application/ecmascript" contentStyleType="text/css" height="213px" preserveAspectRatio="none" style="width:419px;height:213px;" version="1.1" viewBox="0 0 419 213" width="419px" zoomAndPan="magnify"><defs><filter height="300%" id="f18h8da5xoxkmh" width="300%" x="-1" y="-1"><feGaussianBlur result="blurOut" stdDeviation="2.0"/><feColorMatrix in="blurOut" result="blurOut2" type="matrix" values="0 0 0 0 0 0 0 0 0 0 0 0 0 0 0 0 0 0 .4 0"/><feOffset dx="4.0" dy="4.0" in="blurOut2" result="blurOut3"/><feBlend in="SourceGraphic" in2="blurOut3" mode="normal"/></filter></defs><g><!--class Chart--><rect fill="#FEFECE" filter="url(#f18h8da5xoxkmh)" height="60.9551" id="Chart" style="stroke: #A80036; stroke-width: 1.5;" width="98" x="200.5" y="8"/><ellipse cx="231.25" cy="24" fill="#B4A7E5" rx="11" ry="11" style="stroke: #A80036; stroke-width: 1.0;"/><path d="M227.6777,20.2651 L227.6777,18.1069 L235.0571,18.1069 L235.0571,20.2651 L232.5918,20.2651 L232.5918,28.3418 L235.0571,28.3418 L235.0571,30.5 L227.6777,30.5 L227.6777,28.3418 L230.1431,28.3418 L230.1431,20.2651 Z "/><text fill="#000000" font-family="sans-serif" font-size="12" font-style="italic" lengthAdjust="spacingAndGlyphs" textLength="31" x="248.75" y="28.5352">Chart</text><line style="stroke: #A80036; stroke-width: 1.5;" x1="201.5" x2="297.5" y1="40" y2="40"/><line style="stroke: #A80036; stroke-width: 1.5;" x1="201.5" x2="297.5" y1="48" y2="48"/><ellipse cx="211.5" cy="59.9775" fill="#84BE84" rx="3" ry="3" style="stroke: #038048; stroke-width: 1.0;"/><text fill="#000000" font-family="sans-serif" font-size="11" lengthAdjust="spacingAndGlyphs" textLength="72" x="220.5" y="62.6348">void display()</text><!--class AbstractChartDisplay--><rect fill="#FEFECE" filter="url(#f18h8da5xoxkmh)" height="73.9102" id="AbstractChartDisplay" style="stroke: #A80036; stroke-width: 1.5;" width="167" x="6" y="129"/><ellipse cx="27.3" cy="145" fill="#ADD1B2" rx="11" ry="11" style="stroke: #A80036; stroke-width: 1.0;"/><path d="M29.7731,151.1431 Q29.1921,151.4419 28.5529,151.5913 Q27.9138,151.7407 27.2082,151.7407 Q24.7014,151.7407 23.3815,150.0889 Q22.0617,148.437 22.0617,145.3159 Q22.0617,142.1865 23.3815,140.5347 Q24.7014,138.8828 27.2082,138.8828 Q27.9138,138.8828 28.5612,139.0322 Q29.2087,139.1816 29.7731,139.4805 L29.7731,142.2031 Q29.1423,141.6221 28.5488,141.3523 Q27.9553,141.0825 27.3244,141.0825 Q25.9797,141.0825 25.2949,142.1492 Q24.6101,143.2158 24.6101,145.3159 Q24.6101,147.4077 25.2949,148.4744 Q25.9797,149.541 27.3244,149.541 Q27.9553,149.541 28.5488,149.2712 Q29.1423,149.0015 29.7731,148.4204 Z "/><text fill="#000000" font-family="sans-serif" font-size="12" lengthAdjust="spacingAndGlyphs" textLength="121" x="42.7" y="149.5352">AbstractChartDisplay</text><line style="stroke: #A80036; stroke-width: 1.5;" x1="7" x2="172" y1="161" y2="161"/><rect fill="none" height="6" style="stroke: #C82930; stroke-width: 1.0;" width="6" x="14" y="169.9775"/><text fill="#000000" font-family="sans-serif" font-size="11" lengthAdjust="spacingAndGlyphs" textLength="64" x="26" y="175.6348">chart: Chart</text><line style="stroke: #A80036; stroke-width: 1.5;" x1="7" x2="172" y1="181.9551" y2="181.9551"/><ellipse cx="17" cy="193.9326" fill="#84BE84" rx="3" ry="3" style="stroke: #038048; stroke-width: 1.0;"/><text fill="#000000" font-family="sans-serif" font-size="11" lengthAdjust="spacingAndGlyphs" textLength="141" x="26" y="196.5898">void setChart(Chart chart)</text><!--class FooChart--><rect fill="#FEFECE" filter="url(#f18h8da5xoxkmh)" height="48" id="FooChart" style="stroke: #A80036; stroke-width: 1.5;" width="83" x="208" y="142"/><ellipse cx="223" cy="158" fill="#ADD1B2" rx="11" ry="11" style="stroke: #A80036; stroke-width: 1.0;"/><path d="M225.4731,164.1431 Q224.8921,164.4419 224.2529,164.5913 Q223.6138,164.7407 222.9082,164.7407 Q220.4014,164.7407 219.0815,163.0889 Q217.7617,161.437 217.7617,158.3159 Q217.7617,155.1865 219.0815,153.5347 Q220.4014,151.8828 222.9082,151.8828 Q223.6138,151.8828 224.2612,152.0322 Q224.9087,152.1816 225.4731,152.4805 L225.4731,155.2031 Q224.8423,154.6221 224.2488,154.3523 Q223.6553,154.0825 223.0244,154.0825 Q221.6797,154.0825 220.9949,155.1492 Q220.3101,156.2158 220.3101,158.3159 Q220.3101,160.4077 220.9949,161.4744 Q221.6797,162.541 223.0244,162.541 Q223.6553,162.541 224.2488,162.2712 Q224.8423,162.0015 225.4731,161.4204 Z "/><text fill="#000000" font-family="sans-serif" font-size="12" lengthAdjust="spacingAndGlyphs" textLength="51" x="237" y="162.5352">FooChart</text><line style="stroke: #A80036; stroke-width: 1.5;" x1="209" x2="290" y1="174" y2="174"/><line style="stroke: #A80036; stroke-width: 1.5;" x1="209" x2="290" y1="182" y2="182"/><!--class BarChart--><rect fill="#FEFECE" filter="url(#f18h8da5xoxkmh)" height="48" id="BarChart" style="stroke: #A80036; stroke-width: 1.5;" width="82" x="326.5" y="142"/><ellipse cx="341.5" cy="158" fill="#ADD1B2" rx="11" ry="11" style="stroke: #A80036; stroke-width: 1.0;"/><path d="M343.9731,164.1431 Q343.3921,164.4419 342.7529,164.5913 Q342.1138,164.7407 341.4082,164.7407 Q338.9014,164.7407 337.5815,163.0889 Q336.2617,161.437 336.2617,158.3159 Q336.2617,155.1865 337.5815,153.5347 Q338.9014,151.8828 341.4082,151.8828 Q342.1138,151.8828 342.7612,152.0322 Q343.4087,152.1816 343.9731,152.4805 L343.9731,155.2031 Q343.3423,154.6221 342.7488,154.3523 Q342.1553,154.0825 341.5244,154.0825 Q340.1797,154.0825 339.4949,155.1492 Q338.8101,156.2158 338.8101,158.3159 Q338.8101,160.4077 339.4949,161.4744 Q340.1797,162.541 341.5244,162.541 Q342.1553,162.541 342.7488,162.2712 Q343.3423,162.0015 343.9731,161.4204 Z "/><text fill="#000000" font-family="sans-serif" font-size="12" lengthAdjust="spacingAndGlyphs" textLength="50" x="355.5" y="162.5352">BarChart</text><line style="stroke: #A80036; stroke-width: 1.5;" x1="327.5" x2="407.5" y1="174" y2="174"/><line style="stroke: #A80036; stroke-width: 1.5;" x1="327.5" x2="407.5" y1="182" y2="182"/><!--link Chart to FooChart--><path d="M249.5,89.2199 C249.5,107.2961 249.5,126.8323 249.5,141.6746 " fill="none" id="Chart-FooChart" style="stroke: #A80036; stroke-width: 1.0; stroke-dasharray: 7.0,7.0;"/><polygon fill="none" points="242.5001,89.0395,249.5,69.0394,256.5001,89.0394,242.5001,89.0395" style="stroke: #A80036; stroke-width: 1.0;"/><!--link Chart to BarChart--><path d="M291.5752,83.9626 C309.5911,103.4289 329.9069,125.3804 344.9871,141.6746 " fill="none" id="Chart-BarChart" style="stroke: #A80036; stroke-width: 1.0; stroke-dasharray: 7.0,7.0;"/><polygon fill="none" points="286.2112,88.4725,277.7639,69.0394,296.4861,78.9632,286.2112,88.4725" style="stroke: #A80036; stroke-width: 1.0;"/><!--link Chart to AbstractChartDisplay--><path d="M195.3169,81.6772 C176.0812,97.0056 154.615,114.1115 136.0709,128.8888 " fill="none" id="Chart-AbstractChartDisplay" style="stroke: #A80036; stroke-width: 1.0; stroke-dasharray: 7.0,7.0;"/><polygon fill="none" points="191.1724,76.0291,211.176,69.0394,199.8972,86.978,191.1724,76.0291" style="stroke: #A80036; stroke-width: 1.0;"/><!--
@startuml
interface Chart{
+ void display()
}
class AbstractChartDisplay{
- chart: Chart
+ void setChart(Chart chart)
}
class FooChart{
}
class BarChart{
}

Chart <|.. FooChart
Chart <|.. BarChart
Chart <|.. AbstractChartDisplay
@enduml

PlantUML version 1.2018.10(Sun Aug 26 01:02:59 CST 2018)
(APACHE source distribution)
Java Runtime: OpenJDK Runtime Environment
JVM: OpenJDK 64-Bit Server VM
Java Version: 12+33
Operating System: Mac OS X
OS Version: 10.14.4
Default Encoding: UTF-8
Language: zh
Country: CN
--></g></svg>