<?xml version="1.0" encoding="UTF-8" standalone="no"?><svg xmlns="http://www.w3.org/2000/svg" xmlns:xlink="http://www.w3.org/1999/xlink" contentScriptType="application/ecmascript" contentStyleType="text/css" height="92px" preserveAspectRatio="none" style="width:247px;height:92px;" version="1.1" viewBox="0 0 247 92" width="247px" zoomAndPan="magnify"><defs><filter height="300%" id="f1nhj2vpld9xg9" width="300%" x="-1" y="-1"><feGaussianBlur result="blurOut" stdDeviation="2.0"/><feColorMatrix in="blurOut" result="blurOut2" type="matrix" values="0 0 0 0 0 0 0 0 0 0 0 0 0 0 0 0 0 0 .4 0"/><feOffset dx="4.0" dy="4.0" in="blurOut2" result="blurOut3"/><feBlend in="SourceGraphic" in2="blurOut3" mode="normal"/></filter></defs><g><!--class Singleton--><rect fill="#FEFECE" filter="url(#f1nhj2vpld9xg9)" height="73.9102" id="Singleton" style="stroke: #A80036; stroke-width: 1.5;" width="230" x="6" y="8"/><ellipse cx="91.25" cy="24" fill="#ADD1B2" rx="11" ry="11" style="stroke: #A80036; stroke-width: 1.0;"/><path d="M93.7231,30.1431 Q93.1421,30.4419 92.5029,30.5913 Q91.8638,30.7407 91.1582,30.7407 Q88.6514,30.7407 87.3315,29.0889 Q86.0117,27.437 86.0117,24.3159 Q86.0117,21.1865 87.3315,19.5347 Q88.6514,17.8828 91.1582,17.8828 Q91.8638,17.8828 92.5112,18.0322 Q93.1587,18.1816 93.7231,18.4805 L93.7231,21.2031 Q93.0923,20.6221 92.4988,20.3523 Q91.9053,20.0825 91.2744,20.0825 Q89.9297,20.0825 89.2449,21.1492 Q88.5601,22.2158 88.5601,24.3159 Q88.5601,26.4077 89.2449,27.4744 Q89.9297,28.541 91.2744,28.541 Q91.9053,28.541 92.4988,28.2712 Q93.0923,28.0015 93.7231,27.4204 Z "/><text fill="#000000" font-family="sans-serif" font-size="12" lengthAdjust="spacingAndGlyphs" textLength="51" x="111.75" y="28.5352">Singleton</text><line style="stroke: #A80036; stroke-width: 1.5;" x1="7" x2="235" y1="40" y2="40"/><line style="stroke: #A80036; stroke-width: 1.5;" x1="7" x2="235" y1="48" y2="48"/><rect fill="#F24D5C" height="6" style="stroke: #C82930; stroke-width: 1.0;" width="6" x="14" y="56.9775"/><text fill="#000000" font-family="sans-serif" font-size="11" lengthAdjust="spacingAndGlyphs" textLength="204" x="26" y="62.6348">Singleton INSTANCE = new Singleton()</text><ellipse cx="17" cy="72.9326" fill="#84BE84" rx="3" ry="3" style="stroke: #038048; stroke-width: 1.0;"/><text fill="#000000" font-family="sans-serif" font-size="11" lengthAdjust="spacingAndGlyphs" textLength="123" x="26" y="75.5898">Singleton getInstance()</text><!--
@startuml
class Singleton {
- Singleton INSTANCE = new Singleton()
+ Singleton getInstance()
}
@enduml

PlantUML version 1.2018.10(Sun Aug 26 01:02:59 CST 2018)
(APACHE source distribution)
Java Runtime: OpenJDK Runtime Environment
JVM: OpenJDK 64-Bit Server VM
Java Version: 12+33
Operating System: Mac OS X
OS Version: 10.14.4
Default Encoding: UTF-8
Language: zh
Country: CN
--></g></svg>