<?xml version="1.0" encoding="UTF-8" standalone="no"?><svg xmlns="http://www.w3.org/2000/svg" xmlns:xlink="http://www.w3.org/1999/xlink" contentScriptType="application/ecmascript" contentStyleType="text/css" height="200px" preserveAspectRatio="none" style="width:608px;height:200px;" version="1.1" viewBox="0 0 608 200" width="608px" zoomAndPan="magnify"><defs><filter height="300%" id="f18hlj7evpphkh" width="300%" x="-1" y="-1"><feGaussianBlur result="blurOut" stdDeviation="2.0"/><feColorMatrix in="blurOut" result="blurOut2" type="matrix" values="0 0 0 0 0 0 0 0 0 0 0 0 0 0 0 0 0 0 .4 0"/><feOffset dx="4.0" dy="4.0" in="blurOut2" result="blurOut3"/><feBlend in="SourceGraphic" in2="blurOut3" mode="normal"/></filter></defs><g><!--class ReceiverA--><rect fill="#FEFECE" filter="url(#f18hlj7evpphkh)" height="60.9551" id="ReceiverA" style="stroke: #A80036; stroke-width: 1.5;" width="93" x="6" y="129"/><ellipse cx="22.8" cy="145" fill="#ADD1B2" rx="11" ry="11" style="stroke: #A80036; stroke-width: 1.0;"/><path d="M25.2731,151.1431 Q24.6921,151.4419 24.0529,151.5913 Q23.4138,151.7407 22.7082,151.7407 Q20.2014,151.7407 18.8815,150.0889 Q17.5617,148.437 17.5617,145.3159 Q17.5617,142.1865 18.8815,140.5347 Q20.2014,138.8828 22.7082,138.8828 Q23.4138,138.8828 24.0612,139.0322 Q24.7087,139.1816 25.2731,139.4805 L25.2731,142.2031 Q24.6423,141.6221 24.0488,141.3523 Q23.4553,141.0825 22.8244,141.0825 Q21.4797,141.0825 20.7949,142.1492 Q20.1101,143.2158 20.1101,145.3159 Q20.1101,147.4077 20.7949,148.4744 Q21.4797,149.541 22.8244,149.541 Q23.4553,149.541 24.0488,149.2712 Q24.6423,149.0015 25.2731,148.4204 Z "/><text fill="#000000" font-family="sans-serif" font-size="12" lengthAdjust="spacingAndGlyphs" textLength="57" x="37.2" y="149.5352">ReceiverA</text><line style="stroke: #A80036; stroke-width: 1.5;" x1="7" x2="98" y1="161" y2="161"/><line style="stroke: #A80036; stroke-width: 1.5;" x1="7" x2="98" y1="169" y2="169"/><ellipse cx="17" cy="180.9775" fill="#84BE84" rx="3" ry="3" style="stroke: #038048; stroke-width: 1.0;"/><text fill="#000000" font-family="sans-serif" font-size="11" lengthAdjust="spacingAndGlyphs" textLength="67" x="26" y="183.6348">void action()</text><!--class ReceiverB--><rect fill="#FEFECE" filter="url(#f18hlj7evpphkh)" height="60.9551" id="ReceiverB" style="stroke: #A80036; stroke-width: 1.5;" width="93" x="504" y="129"/><ellipse cx="521.25" cy="145" fill="#ADD1B2" rx="11" ry="11" style="stroke: #A80036; stroke-width: 1.0;"/><path d="M523.7231,151.1431 Q523.1421,151.4419 522.5029,151.5913 Q521.8638,151.7407 521.1582,151.7407 Q518.6514,151.7407 517.3315,150.0889 Q516.0117,148.437 516.0117,145.3159 Q516.0117,142.1865 517.3315,140.5347 Q518.6514,138.8828 521.1582,138.8828 Q521.8638,138.8828 522.5112,139.0322 Q523.1587,139.1816 523.7231,139.4805 L523.7231,142.2031 Q523.0923,141.6221 522.4988,141.3523 Q521.9053,141.0825 521.2744,141.0825 Q519.9297,141.0825 519.2449,142.1492 Q518.5601,143.2158 518.5601,145.3159 Q518.5601,147.4077 519.2449,148.4744 Q519.9297,149.541 521.2744,149.541 Q521.9053,149.541 522.4988,149.2712 Q523.0923,149.0015 523.7231,148.4204 Z "/><text fill="#000000" font-family="sans-serif" font-size="12" lengthAdjust="spacingAndGlyphs" textLength="56" x="535.75" y="149.5352">ReceiverB</text><line style="stroke: #A80036; stroke-width: 1.5;" x1="505" x2="596" y1="161" y2="161"/><line style="stroke: #A80036; stroke-width: 1.5;" x1="505" x2="596" y1="169" y2="169"/><ellipse cx="515" cy="180.9775" fill="#84BE84" rx="3" ry="3" style="stroke: #038048; stroke-width: 1.0;"/><text fill="#000000" font-family="sans-serif" font-size="11" lengthAdjust="spacingAndGlyphs" textLength="67" x="524" y="183.6348">void action()</text><!--class Command--><rect fill="#FEFECE" filter="url(#f18hlj7evpphkh)" height="60.9551" id="Command" style="stroke: #A80036; stroke-width: 1.5;" width="102" x="250.5" y="8"/><ellipse cx="270.45" cy="24" fill="#A9DCDF" rx="11" ry="11" style="stroke: #A80036; stroke-width: 1.0;"/><path d="M270.5633,19.5981 L269.4095,24.6699 L271.7254,24.6699 Z M269.0691,17.3569 L272.0657,17.3569 L275.4109,29.75 L272.9622,29.75 L272.1985,26.687 L268.9197,26.687 L268.1727,29.75 L265.7239,29.75 Z "/><text fill="#000000" font-family="sans-serif" font-size="12" font-style="italic" lengthAdjust="spacingAndGlyphs" textLength="59" x="285.55" y="28.5352">Command</text><line style="stroke: #A80036; stroke-width: 1.5;" x1="251.5" x2="351.5" y1="40" y2="40"/><line style="stroke: #A80036; stroke-width: 1.5;" x1="251.5" x2="351.5" y1="48" y2="48"/><ellipse cx="261.5" cy="59.9775" fill="#84BE84" rx="3" ry="3" style="stroke: #038048; stroke-width: 1.0;"/><text fill="#000000" font-family="sans-serif" font-size="11" lengthAdjust="spacingAndGlyphs" textLength="76" x="270.5" y="62.6348">void execute()</text><!--class ConcreteCommandA--><rect fill="#FEFECE" filter="url(#f18hlj7evpphkh)" height="48" id="ConcreteCommandA" style="stroke: #A80036; stroke-width: 1.5;" width="150" x="134.5" y="135.5"/><ellipse cx="149.5" cy="151.5" fill="#ADD1B2" rx="11" ry="11" style="stroke: #A80036; stroke-width: 1.0;"/><path d="M151.9731,157.6431 Q151.3921,157.9419 150.7529,158.0913 Q150.1138,158.2407 149.4082,158.2407 Q146.9014,158.2407 145.5815,156.5889 Q144.2617,154.937 144.2617,151.8159 Q144.2617,148.6865 145.5815,147.0347 Q146.9014,145.3828 149.4082,145.3828 Q150.1138,145.3828 150.7612,145.5322 Q151.4087,145.6816 151.9731,145.9805 L151.9731,148.7031 Q151.3423,148.1221 150.7488,147.8523 Q150.1553,147.5825 149.5244,147.5825 Q148.1797,147.5825 147.4949,148.6492 Q146.8101,149.7158 146.8101,151.8159 Q146.8101,153.9077 147.4949,154.9744 Q148.1797,156.041 149.5244,156.041 Q150.1553,156.041 150.7488,155.7712 Q151.3423,155.5015 151.9731,154.9204 Z "/><text fill="#000000" font-family="sans-serif" font-size="12" lengthAdjust="spacingAndGlyphs" textLength="118" x="163.5" y="156.0352">ConcreteCommandA</text><line style="stroke: #A80036; stroke-width: 1.5;" x1="135.5" x2="283.5" y1="167.5" y2="167.5"/><line style="stroke: #A80036; stroke-width: 1.5;" x1="135.5" x2="283.5" y1="175.5" y2="175.5"/><!--class ConcreteCommandB--><rect fill="#FEFECE" filter="url(#f18hlj7evpphkh)" height="48" id="ConcreteCommandB" style="stroke: #A80036; stroke-width: 1.5;" width="149" x="320" y="135.5"/><ellipse cx="335" cy="151.5" fill="#ADD1B2" rx="11" ry="11" style="stroke: #A80036; stroke-width: 1.0;"/><path d="M337.4731,157.6431 Q336.8921,157.9419 336.2529,158.0913 Q335.6138,158.2407 334.9082,158.2407 Q332.4014,158.2407 331.0815,156.5889 Q329.7617,154.937 329.7617,151.8159 Q329.7617,148.6865 331.0815,147.0347 Q332.4014,145.3828 334.9082,145.3828 Q335.6138,145.3828 336.2612,145.5322 Q336.9087,145.6816 337.4731,145.9805 L337.4731,148.7031 Q336.8423,148.1221 336.2488,147.8523 Q335.6553,147.5825 335.0244,147.5825 Q333.6797,147.5825 332.9949,148.6492 Q332.3101,149.7158 332.3101,151.8159 Q332.3101,153.9077 332.9949,154.9744 Q333.6797,156.041 335.0244,156.041 Q335.6553,156.041 336.2488,155.7712 Q336.8423,155.5015 337.4731,154.9204 Z "/><text fill="#000000" font-family="sans-serif" font-size="12" lengthAdjust="spacingAndGlyphs" textLength="117" x="349" y="156.0352">ConcreteCommandB</text><line style="stroke: #A80036; stroke-width: 1.5;" x1="321" x2="468" y1="167.5" y2="167.5"/><line style="stroke: #A80036; stroke-width: 1.5;" x1="321" x2="468" y1="175.5" y2="175.5"/><!--link Command to ConcreteCommandA--><path d="M266.0327,85.1472 C252.9699,102.3276 238.7096,121.083 227.7794,135.4587 " fill="none" id="Command-ConcreteCommandA" style="stroke: #A80036; stroke-width: 1.0;"/><polygon fill="none" points="260.6072,80.7174,278.2845,69.0334,271.7517,89.1909,260.6072,80.7174" style="stroke: #A80036; stroke-width: 1.0;"/><!--link Command to ConcreteCommandB--><path d="M337.3528,85.1472 C350.5576,102.3276 364.9729,121.083 376.022,135.4587 " fill="none" id="Command-ConcreteCommandB" style="stroke: #A80036; stroke-width: 1.0;"/><polygon fill="none" points="331.6057,89.1566,324.9678,69.0334,342.7058,80.625,331.6057,89.1566" style="stroke: #A80036; stroke-width: 1.0;"/><!--link ReceiverA to ConcreteCommandA--><path d="M104.3581,159.5 C114.395,159.5 124.4319,159.5 134.4689,159.5 " fill="none" id="ReceiverA-ConcreteCommandA" style="stroke: #A80036; stroke-width: 1.0;"/><polygon fill="#A80036" points="99.1094,159.5,108.1094,163.5,104.1094,159.5,108.1094,155.5,99.1094,159.5" style="stroke: #A80036; stroke-width: 1.0;"/><!--link ConcreteCommandB to ReceiverB--><path d="M469.1484,159.5 C478.9806,159.5 488.8127,159.5 498.6448,159.5 " fill="none" id="ConcreteCommandB-ReceiverB" style="stroke: #A80036; stroke-width: 1.0;"/><polygon fill="#A80036" points="503.7864,159.5,494.7864,155.5,498.7864,159.5,494.7864,163.5,503.7864,159.5" style="stroke: #A80036; stroke-width: 1.0;"/><!--
@startuml

class ReceiverA {
+ void action()
}
class ReceiverB {
+ void action()
}

abstract class Command {
+ void execute()
}

class ConcreteCommandA {
}

class ConcreteCommandB {
}

Command <|- - ConcreteCommandA
Command <|- - ConcreteCommandB
ReceiverA <- ConcreteCommandA
ConcreteCommandB -> ReceiverB
@enduml

PlantUML version 1.2018.10(Sun Aug 26 01:02:59 CST 2018)
(APACHE source distribution)
Java Runtime: OpenJDK Runtime Environment
JVM: OpenJDK 64-Bit Server VM
Java Version: 12+33
Operating System: Mac OS X
OS Version: 10.14.4
Default Encoding: UTF-8
Language: zh
Country: CN
--></g></svg>