<?xml version="1.0" encoding="UTF-8" standalone="no"?><svg xmlns="http://www.w3.org/2000/svg" xmlns:xlink="http://www.w3.org/1999/xlink" contentScriptType="application/ecmascript" contentStyleType="text/css" height="79px" preserveAspectRatio="none" style="width:135px;height:79px;" version="1.1" viewBox="0 0 135 79" width="135px" zoomAndPan="magnify"><defs><filter height="300%" id="f16bpww26tx4lg" width="300%" x="-1" y="-1"><feGaussianBlur result="blurOut" stdDeviation="2.0"/><feColorMatrix in="blurOut" result="blurOut2" type="matrix" values="0 0 0 0 0 0 0 0 0 0 0 0 0 0 0 0 0 0 .4 0"/><feOffset dx="4.0" dy="4.0" in="blurOut2" result="blurOut3"/><feBlend in="SourceGraphic" in2="blurOut3" mode="normal"/></filter></defs><g><!--class Prototype--><rect fill="#FEFECE" filter="url(#f16bpww26tx4lg)" height="60.9551" id="Prototype" style="stroke: #A80036; stroke-width: 1.5;" width="118" x="6" y="8"/><ellipse cx="34.95" cy="24" fill="#ADD1B2" rx="11" ry="11" style="stroke: #A80036; stroke-width: 1.0;"/><path d="M37.4231,30.1431 Q36.8421,30.4419 36.2029,30.5913 Q35.5638,30.7407 34.8582,30.7407 Q32.3514,30.7407 31.0315,29.0889 Q29.7117,27.437 29.7117,24.3159 Q29.7117,21.1865 31.0315,19.5347 Q32.3514,17.8828 34.8582,17.8828 Q35.5638,17.8828 36.2112,18.0322 Q36.8587,18.1816 37.4231,18.4805 L37.4231,21.2031 Q36.7923,20.6221 36.1988,20.3523 Q35.6053,20.0825 34.9744,20.0825 Q33.6297,20.0825 32.9449,21.1492 Q32.2601,22.2158 32.2601,24.3159 Q32.2601,26.4077 32.9449,27.4744 Q33.6297,28.541 34.9744,28.541 Q35.6053,28.541 36.1988,28.2712 Q36.7923,28.0015 37.4231,27.4204 Z "/><text fill="#000000" font-family="sans-serif" font-size="12" lengthAdjust="spacingAndGlyphs" textLength="55" x="52.05" y="28.5352">Prototype</text><line style="stroke: #A80036; stroke-width: 1.5;" x1="7" x2="123" y1="40" y2="40"/><line style="stroke: #A80036; stroke-width: 1.5;" x1="7" x2="123" y1="48" y2="48"/><ellipse cx="17" cy="59.9775" fill="#84BE84" rx="3" ry="3" style="stroke: #038048; stroke-width: 1.0;"/><text fill="#000000" font-family="sans-serif" font-size="11" lengthAdjust="spacingAndGlyphs" textLength="92" x="26" y="62.6348">Prototype clone()</text><!--
@startuml
class Prototype{
+ Prototype clone()
}
@enduml

PlantUML version 1.2018.10(Sun Aug 26 01:02:59 CST 2018)
(APACHE source distribution)
Java Runtime: OpenJDK Runtime Environment
JVM: OpenJDK 64-Bit Server VM
Java Version: 12+33
Operating System: Mac OS X
OS Version: 10.14.4
Default Encoding: UTF-8
Language: zh
Country: CN
--></g></svg>