<?xml version="1.0" encoding="UTF-8" standalone="no"?><svg xmlns="http://www.w3.org/2000/svg" xmlns:xlink="http://www.w3.org/1999/xlink" contentScriptType="application/ecmascript" contentStyleType="text/css" height="201px" preserveAspectRatio="none" style="width:798px;height:201px;" version="1.1" viewBox="0 0 798 201" width="798px" zoomAndPan="magnify"><defs><filter height="300%" id="f45is6fd3z89z" width="300%" x="-1" y="-1"><feGaussianBlur result="blurOut" stdDeviation="2.0"/><feColorMatrix in="blurOut" result="blurOut2" type="matrix" values="0 0 0 0 0 0 0 0 0 0 0 0 0 0 0 0 0 0 .4 0"/><feOffset dx="4.0" dy="4.0" in="blurOut2" result="blurOut3"/><feBlend in="SourceGraphic" in2="blurOut3" mode="normal"/></filter></defs><g><!--class ProductA--><rect fill="#FEFECE" filter="url(#f45is6fd3z89z)" height="48" id="ProductA" style="stroke: #A80036; stroke-width: 1.5;" width="89" x="34.5" y="21"/><ellipse cx="49.5" cy="37" fill="#B4A7E5" rx="11" ry="11" style="stroke: #A80036; stroke-width: 1.0;"/><path d="M45.4219,32.7656 L45.4219,30.6094 L52.8125,30.6094 L52.8125,32.7656 L50.3438,32.7656 L50.3438,40.8438 L52.8125,40.8438 L52.8125,43 L45.4219,43 L45.4219,40.8438 L47.8906,40.8438 L47.8906,32.7656 L45.4219,32.7656 Z "/><text fill="#000000" font-family="sans-serif" font-size="12" font-style="italic" lengthAdjust="spacingAndGlyphs" textLength="57" x="63.5" y="41.1543">ProductA</text><line style="stroke: #A80036; stroke-width: 1.5;" x1="35.5" x2="122.5" y1="53" y2="53"/><line style="stroke: #A80036; stroke-width: 1.5;" x1="35.5" x2="122.5" y1="61" y2="61"/><!--class ProductB--><rect fill="#FEFECE" filter="url(#f45is6fd3z89z)" height="48" id="ProductB" style="stroke: #A80036; stroke-width: 1.5;" width="89" x="215.5" y="21"/><ellipse cx="230.5" cy="37" fill="#B4A7E5" rx="11" ry="11" style="stroke: #A80036; stroke-width: 1.0;"/><path d="M226.4219,32.7656 L226.4219,30.6094 L233.8125,30.6094 L233.8125,32.7656 L231.3438,32.7656 L231.3438,40.8438 L233.8125,40.8438 L233.8125,43 L226.4219,43 L226.4219,40.8438 L228.8906,40.8438 L228.8906,32.7656 L226.4219,32.7656 Z "/><text fill="#000000" font-family="sans-serif" font-size="12" font-style="italic" lengthAdjust="spacingAndGlyphs" textLength="57" x="244.5" y="41.1543">ProductB</text><line style="stroke: #A80036; stroke-width: 1.5;" x1="216.5" x2="303.5" y1="53" y2="53"/><line style="stroke: #A80036; stroke-width: 1.5;" x1="216.5" x2="303.5" y1="61" y2="61"/><!--class ConcreteProductA--><rect fill="#FEFECE" filter="url(#f45is6fd3z89z)" height="48" id="ConcreteProductA" style="stroke: #A80036; stroke-width: 1.5;" width="146" x="6" y="142"/><ellipse cx="21" cy="158" fill="#ADD1B2" rx="11" ry="11" style="stroke: #A80036; stroke-width: 1.0;"/><path d="M23.9688,163.6406 Q23.3906,163.9375 22.75,164.0859 Q22.1094,164.2344 21.4063,164.2344 Q18.9063,164.2344 17.5859,162.5859 Q16.2656,160.9375 16.2656,157.8125 Q16.2656,154.6875 17.5859,153.0313 Q18.9063,151.375 21.4063,151.375 Q22.1094,151.375 22.7578,151.5313 Q23.4063,151.6875 23.9688,151.9844 L23.9688,154.7031 Q23.3438,154.125 22.75,153.8516 Q22.1563,153.5781 21.5313,153.5781 Q20.1875,153.5781 19.5,154.6484 Q18.8125,155.7188 18.8125,157.8125 Q18.8125,159.9063 19.5,160.9766 Q20.1875,162.0469 21.5313,162.0469 Q22.1563,162.0469 22.75,161.7734 Q23.3438,161.5 23.9688,160.9219 L23.9688,163.6406 Z "/><text fill="#000000" font-family="sans-serif" font-size="12" lengthAdjust="spacingAndGlyphs" textLength="114" x="35" y="162.1543">ConcreteProductA</text><line style="stroke: #A80036; stroke-width: 1.5;" x1="7" x2="151" y1="174" y2="174"/><line style="stroke: #A80036; stroke-width: 1.5;" x1="7" x2="151" y1="182" y2="182"/><!--class ConcreteProductB--><rect fill="#FEFECE" filter="url(#f45is6fd3z89z)" height="48" id="ConcreteProductB" style="stroke: #A80036; stroke-width: 1.5;" width="146" x="187" y="142"/><ellipse cx="202" cy="158" fill="#ADD1B2" rx="11" ry="11" style="stroke: #A80036; stroke-width: 1.0;"/><path d="M204.9688,163.6406 Q204.3906,163.9375 203.75,164.0859 Q203.1094,164.2344 202.4063,164.2344 Q199.9063,164.2344 198.5859,162.5859 Q197.2656,160.9375 197.2656,157.8125 Q197.2656,154.6875 198.5859,153.0313 Q199.9063,151.375 202.4063,151.375 Q203.1094,151.375 203.7578,151.5313 Q204.4063,151.6875 204.9688,151.9844 L204.9688,154.7031 Q204.3438,154.125 203.75,153.8516 Q203.1563,153.5781 202.5313,153.5781 Q201.1875,153.5781 200.5,154.6484 Q199.8125,155.7188 199.8125,157.8125 Q199.8125,159.9063 200.5,160.9766 Q201.1875,162.0469 202.5313,162.0469 Q203.1563,162.0469 203.75,161.7734 Q204.3438,161.5 204.9688,160.9219 L204.9688,163.6406 Z "/><text fill="#000000" font-family="sans-serif" font-size="12" lengthAdjust="spacingAndGlyphs" textLength="114" x="216" y="162.1543">ConcreteProductB</text><line style="stroke: #A80036; stroke-width: 1.5;" x1="188" x2="332" y1="174" y2="174"/><line style="stroke: #A80036; stroke-width: 1.5;" x1="188" x2="332" y1="182" y2="182"/><!--class ProductFactory--><rect fill="#FEFECE" filter="url(#f45is6fd3z89z)" height="73.6094" id="ProductFactory" style="stroke: #A80036; stroke-width: 1.5;" width="133" x="510.5" y="8"/><ellipse cx="528.2" cy="24" fill="#B4A7E5" rx="11" ry="11" style="stroke: #A80036; stroke-width: 1.0;"/><path d="M524.1219,19.7656 L524.1219,17.6094 L531.5125,17.6094 L531.5125,19.7656 L529.0438,19.7656 L529.0438,27.8438 L531.5125,27.8438 L531.5125,30 L524.1219,30 L524.1219,27.8438 L526.5906,27.8438 L526.5906,19.7656 L524.1219,19.7656 Z "/><text fill="#000000" font-family="sans-serif" font-size="12" font-style="italic" lengthAdjust="spacingAndGlyphs" textLength="95" x="542.8" y="28.1543">ProductFactory</text><line style="stroke: #A80036; stroke-width: 1.5;" x1="511.5" x2="642.5" y1="40" y2="40"/><line style="stroke: #A80036; stroke-width: 1.5;" x1="511.5" x2="642.5" y1="48" y2="48"/><ellipse cx="521.5" cy="59.9023" fill="#84BE84" rx="3" ry="3" style="stroke: #038048; stroke-width: 1.0;"/><text fill="#000000" font-family="sans-serif" font-size="11" lengthAdjust="spacingAndGlyphs" textLength="105" x="530.5" y="62.2104">ProductA createA()</text><ellipse cx="521.5" cy="72.707" fill="#84BE84" rx="3" ry="3" style="stroke: #038048; stroke-width: 1.0;"/><text fill="#000000" font-family="sans-serif" font-size="11" lengthAdjust="spacingAndGlyphs" textLength="107" x="530.5" y="75.0151">ProductB createB()</text><!--class ConcreteProductFactory1--><rect fill="#FEFECE" filter="url(#f45is6fd3z89z)" height="48" id="ConcreteProductFactory1" style="stroke: #A80036; stroke-width: 1.5;" width="192" x="595" y="142"/><ellipse cx="610" cy="158" fill="#ADD1B2" rx="11" ry="11" style="stroke: #A80036; stroke-width: 1.0;"/><path d="M612.9688,163.6406 Q612.3906,163.9375 611.75,164.0859 Q611.1094,164.2344 610.4063,164.2344 Q607.9063,164.2344 606.5859,162.5859 Q605.2656,160.9375 605.2656,157.8125 Q605.2656,154.6875 606.5859,153.0313 Q607.9063,151.375 610.4063,151.375 Q611.1094,151.375 611.7578,151.5313 Q612.4063,151.6875 612.9688,151.9844 L612.9688,154.7031 Q612.3438,154.125 611.75,153.8516 Q611.1563,153.5781 610.5313,153.5781 Q609.1875,153.5781 608.5,154.6484 Q607.8125,155.7188 607.8125,157.8125 Q607.8125,159.9063 608.5,160.9766 Q609.1875,162.0469 610.5313,162.0469 Q611.1563,162.0469 611.75,161.7734 Q612.3438,161.5 612.9688,160.9219 L612.9688,163.6406 Z "/><text fill="#000000" font-family="sans-serif" font-size="12" lengthAdjust="spacingAndGlyphs" textLength="160" x="624" y="162.1543">ConcreteProductFactory1</text><line style="stroke: #A80036; stroke-width: 1.5;" x1="596" x2="786" y1="174" y2="174"/><line style="stroke: #A80036; stroke-width: 1.5;" x1="596" x2="786" y1="182" y2="182"/><!--class ConcreteProductFactory2--><rect fill="#FEFECE" filter="url(#f45is6fd3z89z)" height="48" id="ConcreteProductFactory2" style="stroke: #A80036; stroke-width: 1.5;" width="192" x="368" y="142"/><ellipse cx="383" cy="158" fill="#ADD1B2" rx="11" ry="11" style="stroke: #A80036; stroke-width: 1.0;"/><path d="M385.9688,163.6406 Q385.3906,163.9375 384.75,164.0859 Q384.1094,164.2344 383.4063,164.2344 Q380.9063,164.2344 379.5859,162.5859 Q378.2656,160.9375 378.2656,157.8125 Q378.2656,154.6875 379.5859,153.0313 Q380.9063,151.375 383.4063,151.375 Q384.1094,151.375 384.7578,151.5313 Q385.4063,151.6875 385.9688,151.9844 L385.9688,154.7031 Q385.3438,154.125 384.75,153.8516 Q384.1563,153.5781 383.5313,153.5781 Q382.1875,153.5781 381.5,154.6484 Q380.8125,155.7188 380.8125,157.8125 Q380.8125,159.9063 381.5,160.9766 Q382.1875,162.0469 383.5313,162.0469 Q384.1563,162.0469 384.75,161.7734 Q385.3438,161.5 385.9688,160.9219 L385.9688,163.6406 Z "/><text fill="#000000" font-family="sans-serif" font-size="12" lengthAdjust="spacingAndGlyphs" textLength="160" x="397" y="162.1543">ConcreteProductFactory2</text><line style="stroke: #A80036; stroke-width: 1.5;" x1="369" x2="559" y1="174" y2="174"/><line style="stroke: #A80036; stroke-width: 1.5;" x1="369" x2="559" y1="182" y2="182"/><!--link ProductA to ConcreteProductA--><path d="M79,89.3886 C79,107.1241 79,126.8519 79,141.8466 " fill="none" id="ProductA-ConcreteProductA" style="stroke: #A80036; stroke-width: 1.0; stroke-dasharray: 7.0,7.0;"/><polygon fill="none" points="72.0001,89.1954,79,69.1953,86.0001,89.1953,72.0001,89.1954" style="stroke: #A80036; stroke-width: 1.0;"/><!--link ProductB to ConcreteProductB--><path d="M260,89.3886 C260,107.1241 260,126.8519 260,141.8466 " fill="none" id="ProductB-ConcreteProductB" style="stroke: #A80036; stroke-width: 1.0; stroke-dasharray: 7.0,7.0;"/><polygon fill="none" points="253.0001,89.1954,260,69.1953,267.0001,89.1953,253.0001,89.1954" style="stroke: #A80036; stroke-width: 1.0;"/><!--link ProductFactory to ConcreteProductFactory1--><path d="M625.9351,96.9399 C640.7041,112.6158 656.2104,129.0742 668.3793,141.9903 " fill="none" id="ProductFactory-ConcreteProductFactory1" style="stroke: #A80036; stroke-width: 1.0; stroke-dasharray: 7.0,7.0;"/><polygon fill="none" points="620.7539,101.6485,612.134,82.2913,630.9437,92.0481,620.7539,101.6485" style="stroke: #A80036; stroke-width: 1.0;"/><!--link ProductFactory to ConcreteProductFactory2--><path d="M528.4942,96.9399 C513.8547,112.6158 498.4844,129.0742 486.4222,141.9903 " fill="none" id="ProductFactory-ConcreteProductFactory2" style="stroke: #A80036; stroke-width: 1.0; stroke-dasharray: 7.0,7.0;"/><polygon fill="none" points="523.4075,92.1307,542.1742,82.2913,533.6395,101.6862,523.4075,92.1307" style="stroke: #A80036; stroke-width: 1.0;"/><!--link ConcreteProductA to ConcreteProductFactory1--><path d="M121.3511,139.2172 C140.7267,128.4955 164.4637,117.4157 187.5,112 C348.8781,74.0609 397.9018,79.6875 560.5,112 C589.8398,117.8306 620.8532,130.3679 645.2816,141.8955 " fill="none" id="ConcreteProductA-ConcreteProductFactory1" style="stroke: #A80036; stroke-width: 1.0;"/><polygon fill="#A80036" points="116.5221,141.9317,126.3276,141.0083,120.8806,139.4816,122.4074,134.0346,116.5221,141.9317" style="stroke: #A80036; stroke-width: 1.0;"/><!--link ConcreteProductB to ConcreteProductFactory1--><path d="M302.3511,139.2172 C321.7267,128.4955 345.4637,117.4157 368.5,112 C451.5686,92.471 476.8033,95.3673 560.5,112 C589.8398,117.8306 620.8532,130.3679 645.2816,141.8955 " fill="none" id="ConcreteProductB-ConcreteProductFactory1" style="stroke: #A80036; stroke-width: 1.0;"/><polygon fill="#A80036" points="297.5221,141.9317,307.3276,141.0083,301.8806,139.4816,303.4074,134.0346,297.5221,141.9317" style="stroke: #A80036; stroke-width: 1.0;"/><!--link ConcreteProductA to ConcreteProductFactory2--><path d="M121.3511,139.2172 C140.7267,128.4955 164.4637,117.4157 187.5,112 C250.6668,97.1499 269.8557,99.3522 333.5,112 C362.8398,117.8306 393.8532,130.3679 418.2816,141.8955 " fill="none" id="ConcreteProductA-ConcreteProductFactory2" style="stroke: #A80036; stroke-width: 1.0;"/><polygon fill="#A80036" points="116.5221,141.9317,126.3276,141.0083,120.8806,139.4816,122.4074,134.0346,116.5221,141.9317" style="stroke: #A80036; stroke-width: 1.0;"/><!--link ConcreteProductB to ConcreteProductFactory2--><path d="M338.4275,166 C348.2087,166 357.9899,166 367.7711,166 " fill="none" id="ConcreteProductB-ConcreteProductFactory2" style="stroke: #A80036; stroke-width: 1.0;"/><polygon fill="#A80036" points="333.3125,166,342.3125,170,338.3125,166,342.3125,162,333.3125,166" style="stroke: #A80036; stroke-width: 1.0;"/><!--
@startuml
interface ProductA{
}
interface ProductB{
}
class ConcreteProductA{
}
class ConcreteProductB{
}
interface ProductFactory{
+ ProductA createA()
+ ProductB createB()
}
class ConcreteProductFactory1{
}
class ConcreteProductFactory2{
}
ProductA <|.. ConcreteProductA
ProductB <|.. ConcreteProductB
ProductFactory <|.. ConcreteProductFactory1
ProductFactory <|.. ConcreteProductFactory2

ConcreteProductA <- ConcreteProductFactory1
ConcreteProductB <- ConcreteProductFactory1
ConcreteProductA <- ConcreteProductFactory2
ConcreteProductB <- ConcreteProductFactory2
@enduml

PlantUML version 1.2018.10(Sun Aug 26 01:02:59 CST 2018)
(APACHE source distribution)
Java Runtime: Java(TM) SE Runtime Environment
JVM: Java HotSpot(TM) 64-Bit Server VM
Java Version: 1.8.0_181-b13
Operating System: Linux
OS Version: 4.15.0-43-generic
Default Encoding: UTF-8
Language: en
Country: US
--></g></svg>