<?xml version="1.0" encoding="UTF-8" standalone="no"?><svg xmlns="http://www.w3.org/2000/svg" xmlns:xlink="http://www.w3.org/1999/xlink" contentScriptType="application/ecmascript" contentStyleType="text/css" height="200px" preserveAspectRatio="none" style="width:217px;height:200px;" version="1.1" viewBox="0 0 217 200" width="217px" zoomAndPan="magnify"><defs><filter height="300%" id="f1g1lqsvxhqeg1" width="300%" x="-1" y="-1"><feGaussianBlur result="blurOut" stdDeviation="2.0"/><feColorMatrix in="blurOut" result="blurOut2" type="matrix" values="0 0 0 0 0 0 0 0 0 0 0 0 0 0 0 0 0 0 .4 0"/><feOffset dx="4.0" dy="4.0" in="blurOut2" result="blurOut3"/><feBlend in="SourceGraphic" in2="blurOut3" mode="normal"/></filter></defs><g><!--class Target--><rect fill="#FEFECE" filter="url(#f1g1lqsvxhqeg1)" height="60.8047" id="Target" style="stroke: #A80036; stroke-width: 1.5;" width="80" x="6" y="8"/><ellipse cx="24.15" cy="24" fill="#B4A7E5" rx="11" ry="11" style="stroke: #A80036; stroke-width: 1.0;"/><path d="M20.0719,19.7656 L20.0719,17.6094 L27.4625,17.6094 L27.4625,19.7656 L24.9938,19.7656 L24.9938,27.8438 L27.4625,27.8438 L27.4625,30 L20.0719,30 L20.0719,27.8438 L22.5406,27.8438 L22.5406,19.7656 L20.0719,19.7656 Z "/><text fill="#000000" font-family="sans-serif" font-size="12" font-style="italic" lengthAdjust="spacingAndGlyphs" textLength="41" x="38.85" y="28.1543">Target</text><line style="stroke: #A80036; stroke-width: 1.5;" x1="7" x2="85" y1="40" y2="40"/><line style="stroke: #A80036; stroke-width: 1.5;" x1="7" x2="85" y1="48" y2="48"/><ellipse cx="17" cy="59.9023" fill="#84BE84" rx="3" ry="3" style="stroke: #038048; stroke-width: 1.0;"/><text fill="#000000" font-family="sans-serif" font-size="11" lengthAdjust="spacingAndGlyphs" textLength="54" x="26" y="62.2104">void call()</text><!--class Adaptee--><rect fill="#FEFECE" filter="url(#f1g1lqsvxhqeg1)" height="60.8047" id="Adaptee" style="stroke: #A80036; stroke-width: 1.5;" width="85" x="121.5" y="8"/><ellipse cx="136.5" cy="24" fill="#ADD1B2" rx="11" ry="11" style="stroke: #A80036; stroke-width: 1.0;"/><path d="M139.4688,29.6406 Q138.8906,29.9375 138.25,30.0859 Q137.6094,30.2344 136.9063,30.2344 Q134.4063,30.2344 133.0859,28.5859 Q131.7656,26.9375 131.7656,23.8125 Q131.7656,20.6875 133.0859,19.0313 Q134.4063,17.375 136.9063,17.375 Q137.6094,17.375 138.2578,17.5313 Q138.9063,17.6875 139.4688,17.9844 L139.4688,20.7031 Q138.8438,20.125 138.25,19.8516 Q137.6563,19.5781 137.0313,19.5781 Q135.6875,19.5781 135,20.6484 Q134.3125,21.7188 134.3125,23.8125 Q134.3125,25.9063 135,26.9766 Q135.6875,28.0469 137.0313,28.0469 Q137.6563,28.0469 138.25,27.7734 Q138.8438,27.5 139.4688,26.9219 L139.4688,29.6406 Z "/><text fill="#000000" font-family="sans-serif" font-size="12" lengthAdjust="spacingAndGlyphs" textLength="53" x="150.5" y="28.1543">Adaptee</text><line style="stroke: #A80036; stroke-width: 1.5;" x1="122.5" x2="205.5" y1="40" y2="40"/><line style="stroke: #A80036; stroke-width: 1.5;" x1="122.5" x2="205.5" y1="48" y2="48"/><ellipse cx="132.5" cy="59.9023" fill="#84BE84" rx="3" ry="3" style="stroke: #038048; stroke-width: 1.0;"/><text fill="#000000" font-family="sans-serif" font-size="11" lengthAdjust="spacingAndGlyphs" textLength="54" x="141.5" y="62.2104">void call()</text><!--class Adapter--><rect fill="#FEFECE" filter="url(#f1g1lqsvxhqeg1)" height="60.8047" id="Adapter" style="stroke: #A80036; stroke-width: 1.5;" width="82" x="64" y="129"/><ellipse cx="79" cy="145" fill="#ADD1B2" rx="11" ry="11" style="stroke: #A80036; stroke-width: 1.0;"/><path d="M81.9688,150.6406 Q81.3906,150.9375 80.75,151.0859 Q80.1094,151.2344 79.4063,151.2344 Q76.9063,151.2344 75.5859,149.5859 Q74.2656,147.9375 74.2656,144.8125 Q74.2656,141.6875 75.5859,140.0313 Q76.9063,138.375 79.4063,138.375 Q80.1094,138.375 80.7578,138.5313 Q81.4063,138.6875 81.9688,138.9844 L81.9688,141.7031 Q81.3438,141.125 80.75,140.8516 Q80.1563,140.5781 79.5313,140.5781 Q78.1875,140.5781 77.5,141.6484 Q76.8125,142.7188 76.8125,144.8125 Q76.8125,146.9063 77.5,147.9766 Q78.1875,149.0469 79.5313,149.0469 Q80.1563,149.0469 80.75,148.7734 Q81.3438,148.5 81.9688,147.9219 L81.9688,150.6406 Z "/><text fill="#000000" font-family="sans-serif" font-size="12" lengthAdjust="spacingAndGlyphs" textLength="50" x="93" y="149.1543">Adapter</text><line style="stroke: #A80036; stroke-width: 1.5;" x1="65" x2="145" y1="161" y2="161"/><line style="stroke: #A80036; stroke-width: 1.5;" x1="65" x2="145" y1="169" y2="169"/><ellipse cx="75" cy="180.9023" fill="#84BE84" rx="3" ry="3" style="stroke: #038048; stroke-width: 1.0;"/><text fill="#000000" font-family="sans-serif" font-size="11" lengthAdjust="spacingAndGlyphs" textLength="54" x="84" y="183.2104">void call()</text><!--link Target to Adapter--><path d="M63.2441,73.8651 C71.7637,91.3375 81.942,112.2116 90.1166,128.9764 " fill="none" id="Target-Adapter" style="stroke: #A80036; stroke-width: 1.0; stroke-dasharray: 7.0,7.0;"/><polygon fill="#A80036" points="60.8882,69.0334,61.2375,78.8761,63.0796,73.5276,68.4281,75.3698,60.8882,69.0334" style="stroke: #A80036; stroke-width: 1.0;"/><!--link Adaptee to Adapter--><path d="M146.7559,73.8651 C138.2363,91.3375 128.058,112.2116 119.8834,128.9764 " fill="none" id="Adaptee-Adapter" style="stroke: #A80036; stroke-width: 1.0; stroke-dasharray: 7.0,7.0;"/><polygon fill="#A80036" points="149.1118,69.0334,141.5719,75.3698,146.9204,73.5276,148.7625,78.8761,149.1118,69.0334" style="stroke: #A80036; stroke-width: 1.0;"/><!--
@startuml
interface Target{
+ void call()
}
class Adaptee{
+ void call()
}
class Adapter{
+ void call()
}
Target <.. Adapter
Adaptee <.. Adapter
@enduml

PlantUML version 1.2018.10(Sun Aug 26 01:02:59 CST 2018)
(APACHE source distribution)
Java Runtime: Java(TM) SE Runtime Environment
JVM: Java HotSpot(TM) 64-Bit Server VM
Java Version: 1.8.0_181-b13
Operating System: Linux
OS Version: 4.15.0-43-generic
Default Encoding: UTF-8
Language: en
Country: US
--></g></svg>