<?xml version="1.0" encoding="UTF-8" standalone="no"?><svg xmlns="http://www.w3.org/2000/svg" xmlns:xlink="http://www.w3.org/1999/xlink" contentScriptType="application/ecmascript" contentStyleType="text/css" height="200px" preserveAspectRatio="none" style="width:211px;height:200px;" version="1.1" viewBox="0 0 211 200" width="211px" zoomAndPan="magnify"><defs><filter height="300%" id="f1g1lqsvxhqeg1" width="300%" x="-1" y="-1"><feGaussianBlur result="blurOut" stdDeviation="2.0"/><feColorMatrix in="blurOut" result="blurOut2" type="matrix" values="0 0 0 0 0 0 0 0 0 0 0 0 0 0 0 0 0 0 .4 0"/><feOffset dx="4.0" dy="4.0" in="blurOut2" result="blurOut3"/><feBlend in="SourceGraphic" in2="blurOut3" mode="normal"/></filter></defs><g><!--class Target--><rect fill="#FEFECE" filter="url(#f1g1lqsvxhqeg1)" height="60.9551" id="Target" style="stroke: #A80036; stroke-width: 1.5;" width="78" x="6" y="8"/><ellipse cx="24.6" cy="24" fill="#B4A7E5" rx="11" ry="11" style="stroke: #A80036; stroke-width: 1.0;"/><path d="M21.0277,20.2651 L21.0277,18.1069 L28.4071,18.1069 L28.4071,20.2651 L25.9418,20.2651 L25.9418,28.3418 L28.4071,28.3418 L28.4071,30.5 L21.0277,30.5 L21.0277,28.3418 L23.4931,28.3418 L23.4931,20.2651 Z "/><text fill="#000000" font-family="sans-serif" font-size="12" font-style="italic" lengthAdjust="spacingAndGlyphs" textLength="38" x="39.4" y="28.5352">Target</text><line style="stroke: #A80036; stroke-width: 1.5;" x1="7" x2="83" y1="40" y2="40"/><line style="stroke: #A80036; stroke-width: 1.5;" x1="7" x2="83" y1="48" y2="48"/><ellipse cx="17" cy="59.9775" fill="#84BE84" rx="3" ry="3" style="stroke: #038048; stroke-width: 1.0;"/><text fill="#000000" font-family="sans-serif" font-size="11" lengthAdjust="spacingAndGlyphs" textLength="52" x="26" y="62.6348">void call()</text><!--class Adaptee--><rect fill="#FEFECE" filter="url(#f1g1lqsvxhqeg1)" height="60.9551" id="Adaptee" style="stroke: #A80036; stroke-width: 1.5;" width="81" x="119.5" y="8"/><ellipse cx="134.5" cy="24" fill="#ADD1B2" rx="11" ry="11" style="stroke: #A80036; stroke-width: 1.0;"/><path d="M136.9731,30.1431 Q136.3921,30.4419 135.7529,30.5913 Q135.1138,30.7407 134.4082,30.7407 Q131.9014,30.7407 130.5815,29.0889 Q129.2617,27.437 129.2617,24.3159 Q129.2617,21.1865 130.5815,19.5347 Q131.9014,17.8828 134.4082,17.8828 Q135.1138,17.8828 135.7612,18.0322 Q136.4087,18.1816 136.9731,18.4805 L136.9731,21.2031 Q136.3423,20.6221 135.7488,20.3523 Q135.1553,20.0825 134.5244,20.0825 Q133.1797,20.0825 132.4949,21.1492 Q131.8101,22.2158 131.8101,24.3159 Q131.8101,26.4077 132.4949,27.4744 Q133.1797,28.541 134.5244,28.541 Q135.1553,28.541 135.7488,28.2712 Q136.3423,28.0015 136.9731,27.4204 Z "/><text fill="#000000" font-family="sans-serif" font-size="12" lengthAdjust="spacingAndGlyphs" textLength="49" x="148.5" y="28.5352">Adaptee</text><line style="stroke: #A80036; stroke-width: 1.5;" x1="120.5" x2="199.5" y1="40" y2="40"/><line style="stroke: #A80036; stroke-width: 1.5;" x1="120.5" x2="199.5" y1="48" y2="48"/><ellipse cx="130.5" cy="59.9775" fill="#84BE84" rx="3" ry="3" style="stroke: #038048; stroke-width: 1.0;"/><text fill="#000000" font-family="sans-serif" font-size="11" lengthAdjust="spacingAndGlyphs" textLength="52" x="139.5" y="62.6348">void call()</text><!--class Adapter--><rect fill="#FEFECE" filter="url(#f1g1lqsvxhqeg1)" height="60.9551" id="Adapter" style="stroke: #A80036; stroke-width: 1.5;" width="79" x="62.5" y="129"/><ellipse cx="77.5" cy="145" fill="#ADD1B2" rx="11" ry="11" style="stroke: #A80036; stroke-width: 1.0;"/><path d="M79.9731,151.1431 Q79.3921,151.4419 78.7529,151.5913 Q78.1138,151.7407 77.4082,151.7407 Q74.9014,151.7407 73.5815,150.0889 Q72.2617,148.437 72.2617,145.3159 Q72.2617,142.1865 73.5815,140.5347 Q74.9014,138.8828 77.4082,138.8828 Q78.1138,138.8828 78.7612,139.0322 Q79.4087,139.1816 79.9731,139.4805 L79.9731,142.2031 Q79.3423,141.6221 78.7488,141.3523 Q78.1553,141.0825 77.5244,141.0825 Q76.1797,141.0825 75.4949,142.1492 Q74.8101,143.2158 74.8101,145.3159 Q74.8101,147.4077 75.4949,148.4744 Q76.1797,149.541 77.5244,149.541 Q78.1553,149.541 78.7488,149.2712 Q79.3423,149.0015 79.9731,148.4204 Z "/><text fill="#000000" font-family="sans-serif" font-size="12" lengthAdjust="spacingAndGlyphs" textLength="47" x="91.5" y="149.5352">Adapter</text><line style="stroke: #A80036; stroke-width: 1.5;" x1="63.5" x2="140.5" y1="161" y2="161"/><line style="stroke: #A80036; stroke-width: 1.5;" x1="63.5" x2="140.5" y1="169" y2="169"/><ellipse cx="73.5" cy="180.9775" fill="#84BE84" rx="3" ry="3" style="stroke: #038048; stroke-width: 1.0;"/><text fill="#000000" font-family="sans-serif" font-size="11" lengthAdjust="spacingAndGlyphs" textLength="52" x="82.5" y="183.6348">void call()</text><!--link Target to Adapter--><path d="M61.6596,73.8651 C69.8904,91.3375 79.7236,112.2116 87.6211,128.9764 " fill="none" id="Target-Adapter" style="stroke: #A80036; stroke-width: 1.0; stroke-dasharray: 7.0,7.0;"/><polygon fill="#A80036" points="59.3835,69.0334,59.6004,78.8799,61.5143,73.5566,66.8376,75.4705,59.3835,69.0334" style="stroke: #A80036; stroke-width: 1.0;"/><!--link Adaptee to Adapter--><path d="M143.0481,73.8651 C134.6729,91.3375 124.6672,112.2116 116.6312,128.9764 " fill="none" id="Adaptee-Adapter" style="stroke: #A80036; stroke-width: 1.0; stroke-dasharray: 7.0,7.0;"/><polygon fill="#A80036" points="145.3642,69.0334,137.8669,75.4201,143.2029,73.5421,145.0809,78.8782,145.3642,69.0334" style="stroke: #A80036; stroke-width: 1.0;"/><!--
@startuml
interface Target{
+ void call()
}
class Adaptee{
+ void call()
}
class Adapter{
+ void call()
}
Target <.. Adapter
Adaptee <.. Adapter
@enduml

PlantUML version 1.2018.10(Sun Aug 26 01:02:59 CST 2018)
(APACHE source distribution)
Java Runtime: OpenJDK Runtime Environment
JVM: OpenJDK 64-Bit Server VM
Java Version: 12+33
Operating System: Mac OS X
OS Version: 10.14.4
Default Encoding: UTF-8
Language: zh
Country: CN
--></g></svg>