<?xml version="1.0" encoding="UTF-8" standalone="no"?><svg xmlns="http://www.w3.org/2000/svg" xmlns:xlink="http://www.w3.org/1999/xlink" contentScriptType="application/ecmascript" contentStyleType="text/css" height="213px" preserveAspectRatio="none" style="width:300px;height:213px;" version="1.1" viewBox="0 0 300 213" width="300px" zoomAndPan="magnify"><defs><filter height="300%" id="fy0lauzuamua7" width="300%" x="-1" y="-1"><feGaussianBlur result="blurOut" stdDeviation="2.0"/><feColorMatrix in="blurOut" result="blurOut2" type="matrix" values="0 0 0 0 0 0 0 0 0 0 0 0 0 0 0 0 0 0 .4 0"/><feOffset dx="4.0" dy="4.0" in="blurOut2" result="blurOut3"/><feBlend in="SourceGraphic" in2="blurOut3" mode="normal"/></filter></defs><g><!--class Target--><rect fill="#FEFECE" filter="url(#fy0lauzuamua7)" height="60.8047" id="Target" style="stroke: #A80036; stroke-width: 1.5;" width="80" x="27" y="8"/><ellipse cx="45.15" cy="24" fill="#B4A7E5" rx="11" ry="11" style="stroke: #A80036; stroke-width: 1.0;"/><path d="M41.0719,19.7656 L41.0719,17.6094 L48.4625,17.6094 L48.4625,19.7656 L45.9938,19.7656 L45.9938,27.8438 L48.4625,27.8438 L48.4625,30 L41.0719,30 L41.0719,27.8438 L43.5406,27.8438 L43.5406,19.7656 L41.0719,19.7656 Z "/><text fill="#000000" font-family="sans-serif" font-size="12" font-style="italic" lengthAdjust="spacingAndGlyphs" textLength="41" x="59.85" y="28.1543">Target</text><line style="stroke: #A80036; stroke-width: 1.5;" x1="28" x2="106" y1="40" y2="40"/><line style="stroke: #A80036; stroke-width: 1.5;" x1="28" x2="106" y1="48" y2="48"/><ellipse cx="38" cy="59.9023" fill="#84BE84" rx="3" ry="3" style="stroke: #038048; stroke-width: 1.0;"/><text fill="#000000" font-family="sans-serif" font-size="11" lengthAdjust="spacingAndGlyphs" textLength="54" x="47" y="62.2104">void call()</text><!--class Adaptee--><rect fill="#FEFECE" filter="url(#fy0lauzuamua7)" height="60.8047" id="Adaptee" style="stroke: #A80036; stroke-width: 1.5;" width="126" x="163" y="135.5"/><ellipse cx="196.45" cy="151.5" fill="#ADD1B2" rx="11" ry="11" style="stroke: #A80036; stroke-width: 1.0;"/><path d="M199.4188,157.1406 Q198.8406,157.4375 198.2,157.5859 Q197.5594,157.7344 196.8563,157.7344 Q194.3563,157.7344 193.0359,156.0859 Q191.7156,154.4375 191.7156,151.3125 Q191.7156,148.1875 193.0359,146.5313 Q194.3563,144.875 196.8563,144.875 Q197.5594,144.875 198.2078,145.0313 Q198.8563,145.1875 199.4188,145.4844 L199.4188,148.2031 Q198.7938,147.625 198.2,147.3516 Q197.6063,147.0781 196.9813,147.0781 Q195.6375,147.0781 194.95,148.1484 Q194.2625,149.2188 194.2625,151.3125 Q194.2625,153.4063 194.95,154.4766 Q195.6375,155.5469 196.9813,155.5469 Q197.6063,155.5469 198.2,155.2734 Q198.7938,155 199.4188,154.4219 L199.4188,157.1406 Z "/><text fill="#000000" font-family="sans-serif" font-size="12" lengthAdjust="spacingAndGlyphs" textLength="53" x="214.55" y="155.6543">Adaptee</text><line style="stroke: #A80036; stroke-width: 1.5;" x1="164" x2="288" y1="167.5" y2="167.5"/><line style="stroke: #A80036; stroke-width: 1.5;" x1="164" x2="288" y1="175.5" y2="175.5"/><ellipse cx="174" cy="187.4023" fill="#84BE84" rx="3" ry="3" style="stroke: #038048; stroke-width: 1.0;"/><text fill="#000000" font-family="sans-serif" font-size="11" lengthAdjust="spacingAndGlyphs" textLength="100" x="183" y="189.7104">void anotherCall()</text><!--class Adapter--><rect fill="#FEFECE" filter="url(#fy0lauzuamua7)" height="73.6094" id="Adapter" style="stroke: #A80036; stroke-width: 1.5;" width="122" x="6" y="129"/><ellipse cx="39" cy="145" fill="#ADD1B2" rx="11" ry="11" style="stroke: #A80036; stroke-width: 1.0;"/><path d="M41.9688,150.6406 Q41.3906,150.9375 40.75,151.0859 Q40.1094,151.2344 39.4063,151.2344 Q36.9063,151.2344 35.5859,149.5859 Q34.2656,147.9375 34.2656,144.8125 Q34.2656,141.6875 35.5859,140.0313 Q36.9063,138.375 39.4063,138.375 Q40.1094,138.375 40.7578,138.5313 Q41.4063,138.6875 41.9688,138.9844 L41.9688,141.7031 Q41.3438,141.125 40.75,140.8516 Q40.1563,140.5781 39.5313,140.5781 Q38.1875,140.5781 37.5,141.6484 Q36.8125,142.7188 36.8125,144.8125 Q36.8125,146.9063 37.5,147.9766 Q38.1875,149.0469 39.5313,149.0469 Q40.1563,149.0469 40.75,148.7734 Q41.3438,148.5 41.9688,147.9219 L41.9688,150.6406 Z "/><text fill="#000000" font-family="sans-serif" font-size="12" lengthAdjust="spacingAndGlyphs" textLength="50" x="57" y="149.1543">Adapter</text><line style="stroke: #A80036; stroke-width: 1.5;" x1="7" x2="127" y1="161" y2="161"/><rect fill="none" height="6" style="stroke: #C82930; stroke-width: 1.0;" width="6" x="14" y="169.9023"/><text fill="#000000" font-family="sans-serif" font-size="11" lengthAdjust="spacingAndGlyphs" textLength="96" x="26" y="175.2104">Adaptee adaptee</text><line style="stroke: #A80036; stroke-width: 1.5;" x1="7" x2="127" y1="181.8047" y2="181.8047"/><ellipse cx="17" cy="193.707" fill="#84BE84" rx="3" ry="3" style="stroke: #038048; stroke-width: 1.0;"/><text fill="#000000" font-family="sans-serif" font-size="11" lengthAdjust="spacingAndGlyphs" textLength="54" x="26" y="196.0151">void call()</text><!--link Target to Adapter--><path d="M67,74.2168 C67,91.2683 67,111.6609 67,128.8888 " fill="none" id="Target-Adapter" style="stroke: #A80036; stroke-width: 1.0; stroke-dasharray: 7.0,7.0;"/><polygon fill="#A80036" points="67,69.0394,63,78.0394,67,74.0394,71,78.0394,67,69.0394" style="stroke: #A80036; stroke-width: 1.0;"/><!--link Adapter to Adaptee--><path d="M128.1777,166 C138.0481,166 147.9185,166 157.7889,166 " fill="none" id="Adapter-Adaptee" style="stroke: #A80036; stroke-width: 1.0;"/><polygon fill="#A80036" points="162.9505,166,153.9505,162,157.9505,166,153.9505,170,162.9505,166" style="stroke: #A80036; stroke-width: 1.0;"/><!--
@startuml
interface Target{
+ void call()
}
class Adaptee{
+ void anotherCall()
}
class Adapter{
- Adaptee adaptee
+ void call()
}
Target <.. Adapter
Adapter -> Adaptee
@enduml

PlantUML version 1.2018.10(Sun Aug 26 01:02:59 CST 2018)
(APACHE source distribution)
Java Runtime: Java(TM) SE Runtime Environment
JVM: Java HotSpot(TM) 64-Bit Server VM
Java Version: 1.8.0_181-b13
Operating System: Linux
OS Version: 4.15.0-43-generic
Default Encoding: UTF-8
Language: en
Country: US
--></g></svg>