<?xml version="1.0" encoding="UTF-8" standalone="no"?><svg xmlns="http://www.w3.org/2000/svg" xmlns:xlink="http://www.w3.org/1999/xlink" contentScriptType="application/ecmascript" contentStyleType="text/css" height="225px" preserveAspectRatio="none" style="width:385px;height:225px;" version="1.1" viewBox="0 0 385 225" width="385px" zoomAndPan="magnify"><defs><filter height="300%" id="foof807eiluys" width="300%" x="-1" y="-1"><feGaussianBlur result="blurOut" stdDeviation="2.0"/><feColorMatrix in="blurOut" result="blurOut2" type="matrix" values="0 0 0 0 0 0 0 0 0 0 0 0 0 0 0 0 0 0 .4 0"/><feOffset dx="4.0" dy="4.0" in="blurOut2" result="blurOut3"/><feBlend in="SourceGraphic" in2="blurOut3" mode="normal"/></filter></defs><g><!--class Implementor--><rect fill="#FEFECE" filter="url(#foof807eiluys)" height="60.8047" id="Implementor" style="stroke: #A80036; stroke-width: 1.5;" width="110" x="264.5" y="20.5"/><ellipse cx="279.5" cy="36.5" fill="#ADD1B2" rx="11" ry="11" style="stroke: #A80036; stroke-width: 1.0;"/><path d="M282.4688,42.1406 Q281.8906,42.4375 281.25,42.5859 Q280.6094,42.7344 279.9063,42.7344 Q277.4063,42.7344 276.0859,41.0859 Q274.7656,39.4375 274.7656,36.3125 Q274.7656,33.1875 276.0859,31.5313 Q277.4063,29.875 279.9063,29.875 Q280.6094,29.875 281.2578,30.0313 Q281.9063,30.1875 282.4688,30.4844 L282.4688,33.2031 Q281.8438,32.625 281.25,32.3516 Q280.6563,32.0781 280.0313,32.0781 Q278.6875,32.0781 278,33.1484 Q277.3125,34.2188 277.3125,36.3125 Q277.3125,38.4063 278,39.4766 Q278.6875,40.5469 280.0313,40.5469 Q280.6563,40.5469 281.25,40.2734 Q281.8438,40 282.4688,39.4219 L282.4688,42.1406 Z "/><text fill="#000000" font-family="sans-serif" font-size="12" lengthAdjust="spacingAndGlyphs" textLength="78" x="293.5" y="40.6543">Implementor</text><line style="stroke: #A80036; stroke-width: 1.5;" x1="265.5" x2="373.5" y1="52.5" y2="52.5"/><line style="stroke: #A80036; stroke-width: 1.5;" x1="265.5" x2="373.5" y1="60.5" y2="60.5"/><ellipse cx="275.5" cy="72.4023" fill="#84BE84" rx="3" ry="3" style="stroke: #038048; stroke-width: 1.0;"/><text fill="#000000" font-family="sans-serif" font-size="11" lengthAdjust="spacingAndGlyphs" textLength="79" x="284.5" y="74.7104">void operate()</text><!--class Abstraction--><rect fill="#FEFECE" filter="url(#foof807eiluys)" height="86.4141" id="Abstraction" style="stroke: #A80036; stroke-width: 1.5;" width="223" x="6" y="8"/><ellipse cx="77.25" cy="24" fill="#ADD1B2" rx="11" ry="11" style="stroke: #A80036; stroke-width: 1.0;"/><path d="M80.2188,29.6406 Q79.6406,29.9375 79,30.0859 Q78.3594,30.2344 77.6563,30.2344 Q75.1563,30.2344 73.8359,28.5859 Q72.5156,26.9375 72.5156,23.8125 Q72.5156,20.6875 73.8359,19.0313 Q75.1563,17.375 77.6563,17.375 Q78.3594,17.375 79.0078,17.5313 Q79.6563,17.6875 80.2188,17.9844 L80.2188,20.7031 Q79.5938,20.125 79,19.8516 Q78.4063,19.5781 77.7813,19.5781 Q76.4375,19.5781 75.75,20.6484 Q75.0625,21.7188 75.0625,23.8125 Q75.0625,25.9063 75.75,26.9766 Q76.4375,28.0469 77.7813,28.0469 Q78.4063,28.0469 79,27.7734 Q79.5938,27.5 80.2188,26.9219 L80.2188,29.6406 Z "/><text fill="#000000" font-family="sans-serif" font-size="12" lengthAdjust="spacingAndGlyphs" textLength="72" x="97.75" y="28.1543">Abstraction</text><line style="stroke: #A80036; stroke-width: 1.5;" x1="7" x2="228" y1="40" y2="40"/><rect fill="none" height="6" style="stroke: #C82930; stroke-width: 1.0;" width="6" x="14" y="48.9023"/><text fill="#000000" font-family="sans-serif" font-size="11" lengthAdjust="spacingAndGlyphs" textLength="100" x="26" y="54.2104">Implementor impl</text><line style="stroke: #A80036; stroke-width: 1.5;" x1="7" x2="228" y1="60.8047" y2="60.8047"/><ellipse cx="17" cy="72.707" fill="#84BE84" rx="3" ry="3" style="stroke: #038048; stroke-width: 1.0;"/><text fill="#000000" font-family="sans-serif" font-size="11" lengthAdjust="spacingAndGlyphs" textLength="197" x="26" y="75.0151">void setImplementor(Implementor)</text><ellipse cx="17" cy="85.5117" fill="#84BE84" rx="3" ry="3" style="stroke: #038048; stroke-width: 1.0;"/><text fill="#000000" font-family="sans-serif" font-size="11" lengthAdjust="spacingAndGlyphs" textLength="105" x="26" y="87.8198">abstract void call()</text><!--class AbstractionA--><rect fill="#FEFECE" filter="url(#foof807eiluys)" height="60.8047" id="AbstractionA" style="stroke: #A80036; stroke-width: 1.5;" width="112" x="61.5" y="154"/><ellipse cx="76.5" cy="170" fill="#ADD1B2" rx="11" ry="11" style="stroke: #A80036; stroke-width: 1.0;"/><path d="M79.4688,175.6406 Q78.8906,175.9375 78.25,176.0859 Q77.6094,176.2344 76.9063,176.2344 Q74.4063,176.2344 73.0859,174.5859 Q71.7656,172.9375 71.7656,169.8125 Q71.7656,166.6875 73.0859,165.0313 Q74.4063,163.375 76.9063,163.375 Q77.6094,163.375 78.2578,163.5313 Q78.9063,163.6875 79.4688,163.9844 L79.4688,166.7031 Q78.8438,166.125 78.25,165.8516 Q77.6563,165.5781 77.0313,165.5781 Q75.6875,165.5781 75,166.6484 Q74.3125,167.7188 74.3125,169.8125 Q74.3125,171.9063 75,172.9766 Q75.6875,174.0469 77.0313,174.0469 Q77.6563,174.0469 78.25,173.7734 Q78.8438,173.5 79.4688,172.9219 L79.4688,175.6406 Z "/><text fill="#000000" font-family="sans-serif" font-size="12" lengthAdjust="spacingAndGlyphs" textLength="80" x="90.5" y="174.1543">AbstractionA</text><line style="stroke: #A80036; stroke-width: 1.5;" x1="62.5" x2="172.5" y1="186" y2="186"/><line style="stroke: #A80036; stroke-width: 1.5;" x1="62.5" x2="172.5" y1="194" y2="194"/><ellipse cx="72.5" cy="205.9023" fill="#84BE84" rx="3" ry="3" style="stroke: #038048; stroke-width: 1.0;"/><text fill="#000000" font-family="sans-serif" font-size="11" lengthAdjust="spacingAndGlyphs" textLength="54" x="81.5" y="208.2104">void call()</text><!--link Abstraction to AbstractionA--><path d="M117.5,114.5557 C117.5,128.1567 117.5,141.935 117.5,153.6248 " fill="none" id="Abstraction-AbstractionA" style="stroke: #A80036; stroke-width: 1.0;"/><polygon fill="none" points="110.5001,114.3437,117.5,94.3436,124.5001,114.3436,110.5001,114.3437" style="stroke: #A80036; stroke-width: 1.0;"/><!--link Abstraction to Implementor--><path d="M229.1523,51 C239.1701,51 249.1879,51 259.2057,51 " fill="none" id="Abstraction-Implementor" style="stroke: #A80036; stroke-width: 1.0;"/><polygon fill="#A80036" points="264.4444,51,255.4444,47,259.4444,51,255.4444,55,264.4444,51" style="stroke: #A80036; stroke-width: 1.0;"/><!--
@startuml
class Implementor{
+ void operate()
}

class Abstraction{
- Implementor impl
+ void setImplementor(Implementor)
+ abstract void call()
}

class AbstractionA{
+ void call()
}

Abstraction <|- - AbstractionA
Abstraction -> Implementor
@enduml

PlantUML version 1.2018.10(Sun Aug 26 01:02:59 CST 2018)
(APACHE source distribution)
Java Runtime: Java(TM) SE Runtime Environment
JVM: Java HotSpot(TM) 64-Bit Server VM
Java Version: 1.8.0_181-b13
Operating System: Linux
OS Version: 4.15.0-43-generic
Default Encoding: UTF-8
Language: en
Country: US
--></g></svg>