<?xml version="1.0" encoding="UTF-8" standalone="no"?><svg xmlns="http://www.w3.org/2000/svg" xmlns:xlink="http://www.w3.org/1999/xlink" contentScriptType="application/ecmascript" contentStyleType="text/css" height="131px" preserveAspectRatio="none" style="width:249px;height:131px;" version="1.1" viewBox="0 0 249 131" width="249px" zoomAndPan="magnify"><defs><filter height="300%" id="f1k6648ydn96o0" width="300%" x="-1" y="-1"><feGaussianBlur result="blurOut" stdDeviation="2.0"/><feColorMatrix in="blurOut" result="blurOut2" type="matrix" values="0 0 0 0 0 0 0 0 0 0 0 0 0 0 0 0 0 0 .4 0"/><feOffset dx="4.0" dy="4.0" in="blurOut2" result="blurOut3"/><feBlend in="SourceGraphic" in2="blurOut3" mode="normal"/></filter></defs><g><!--class Product--><rect fill="#FEFECE" filter="url(#f1k6648ydn96o0)" height="48" id="Product" style="stroke: #A80036; stroke-width: 1.5;" width="81" x="6" y="40"/><ellipse cx="21" cy="56" fill="#ADD1B2" rx="11" ry="11" style="stroke: #A80036; stroke-width: 1.0;"/><path d="M23.9688,61.6406 Q23.3906,61.9375 22.75,62.0859 Q22.1094,62.2344 21.4063,62.2344 Q18.9063,62.2344 17.5859,60.5859 Q16.2656,58.9375 16.2656,55.8125 Q16.2656,52.6875 17.5859,51.0313 Q18.9063,49.375 21.4063,49.375 Q22.1094,49.375 22.7578,49.5313 Q23.4063,49.6875 23.9688,49.9844 L23.9688,52.7031 Q23.3438,52.125 22.75,51.8516 Q22.1563,51.5781 21.5313,51.5781 Q20.1875,51.5781 19.5,52.6484 Q18.8125,53.7188 18.8125,55.8125 Q18.8125,57.9063 19.5,58.9766 Q20.1875,60.0469 21.5313,60.0469 Q22.1563,60.0469 22.75,59.7734 Q23.3438,59.5 23.9688,58.9219 L23.9688,61.6406 Z "/><text fill="#000000" font-family="sans-serif" font-size="12" lengthAdjust="spacingAndGlyphs" textLength="49" x="35" y="60.1543">Product</text><line style="stroke: #A80036; stroke-width: 1.5;" x1="7" x2="86" y1="72" y2="72"/><line style="stroke: #A80036; stroke-width: 1.5;" x1="7" x2="86" y1="80" y2="80"/><!--class Builder--><rect fill="#FEFECE" filter="url(#f1k6648ydn96o0)" height="112.0234" id="Builder" style="stroke: #A80036; stroke-width: 1.5;" width="116" x="122.5" y="8"/><ellipse cx="155.95" cy="24" fill="#ADD1B2" rx="11" ry="11" style="stroke: #A80036; stroke-width: 1.0;"/><path d="M158.9188,29.6406 Q158.3406,29.9375 157.7,30.0859 Q157.0594,30.2344 156.3563,30.2344 Q153.8563,30.2344 152.5359,28.5859 Q151.2156,26.9375 151.2156,23.8125 Q151.2156,20.6875 152.5359,19.0313 Q153.8563,17.375 156.3563,17.375 Q157.0594,17.375 157.7078,17.5313 Q158.3563,17.6875 158.9188,17.9844 L158.9188,20.7031 Q158.2938,20.125 157.7,19.8516 Q157.1063,19.5781 156.4813,19.5781 Q155.1375,19.5781 154.45,20.6484 Q153.7625,21.7188 153.7625,23.8125 Q153.7625,25.9063 154.45,26.9766 Q155.1375,28.0469 156.4813,28.0469 Q157.1063,28.0469 157.7,27.7734 Q158.2938,27.5 158.9188,26.9219 L158.9188,29.6406 Z "/><text fill="#000000" font-family="sans-serif" font-size="12" lengthAdjust="spacingAndGlyphs" textLength="43" x="174.05" y="28.1543">Builder</text><line style="stroke: #A80036; stroke-width: 1.5;" x1="123.5" x2="237.5" y1="40" y2="40"/><rect fill="none" height="6" style="stroke: #C82930; stroke-width: 1.0;" width="6" x="130.5" y="48.9023"/><text fill="#000000" font-family="sans-serif" font-size="11" lengthAdjust="spacingAndGlyphs" textLength="90" x="142.5" y="54.2104">Product product</text><line style="stroke: #A80036; stroke-width: 1.5;" x1="123.5" x2="237.5" y1="60.8047" y2="60.8047"/><ellipse cx="133.5" cy="72.707" fill="#84BE84" rx="3" ry="3" style="stroke: #038048; stroke-width: 1.0;"/><text fill="#000000" font-family="sans-serif" font-size="11" lengthAdjust="spacingAndGlyphs" textLength="59" x="142.5" y="75.0151">Builder a()</text><ellipse cx="133.5" cy="85.5117" fill="#84BE84" rx="3" ry="3" style="stroke: #038048; stroke-width: 1.0;"/><text fill="#000000" font-family="sans-serif" font-size="11" lengthAdjust="spacingAndGlyphs" textLength="59" x="142.5" y="87.8198">Builder b()</text><ellipse cx="133.5" cy="98.3164" fill="#84BE84" rx="3" ry="3" style="stroke: #038048; stroke-width: 1.0;"/><text fill="#000000" font-family="sans-serif" font-size="11" lengthAdjust="spacingAndGlyphs" textLength="58" x="142.5" y="100.6245">Builder c()</text><ellipse cx="133.5" cy="111.1211" fill="#84BE84" rx="3" ry="3" style="stroke: #038048; stroke-width: 1.0;"/><text fill="#000000" font-family="sans-serif" font-size="11" lengthAdjust="spacingAndGlyphs" textLength="82" x="142.5" y="113.4292">Product build()</text><!--
@startuml
class Product{
}
class Builder{
- Product product
+ Builder a()
+ Builder b()
+ Builder c()
+ Product build()
}
@enduml

PlantUML version 1.2018.10(Sun Aug 26 01:02:59 CST 2018)
(APACHE source distribution)
Java Runtime: Java(TM) SE Runtime Environment
JVM: Java HotSpot(TM) 64-Bit Server VM
Java Version: 1.8.0_181-b13
Operating System: Linux
OS Version: 4.15.0-43-generic
Default Encoding: UTF-8
Language: en
Country: US
--></g></svg>