<?xml version="1.0" encoding="UTF-8" standalone="no"?><svg xmlns="http://www.w3.org/2000/svg" xmlns:xlink="http://www.w3.org/1999/xlink" contentScriptType="application/ecmascript" contentStyleType="text/css" height="213px" preserveAspectRatio="none" style="width:344px;height:213px;" version="1.1" viewBox="0 0 344 213" width="344px" zoomAndPan="magnify"><defs><filter height="300%" id="fhfru3yk0hzri" width="300%" x="-1" y="-1"><feGaussianBlur result="blurOut" stdDeviation="2.0"/><feColorMatrix in="blurOut" result="blurOut2" type="matrix" values="0 0 0 0 0 0 0 0 0 0 0 0 0 0 0 0 0 0 .4 0"/><feOffset dx="4.0" dy="4.0" in="blurOut2" result="blurOut3"/><feBlend in="SourceGraphic" in2="blurOut3" mode="normal"/></filter></defs><g><!--class Handler--><rect fill="#FEFECE" filter="url(#fhfru3yk0hzri)" height="73.6094" id="Handler" style="stroke: #A80036; stroke-width: 1.5;" width="137" x="100.5" y="8"/><ellipse cx="140.7" cy="24" fill="#ADD1B2" rx="11" ry="11" style="stroke: #A80036; stroke-width: 1.0;"/><path d="M143.6688,29.6406 Q143.0906,29.9375 142.45,30.0859 Q141.8094,30.2344 141.1063,30.2344 Q138.6063,30.2344 137.2859,28.5859 Q135.9656,26.9375 135.9656,23.8125 Q135.9656,20.6875 137.2859,19.0313 Q138.6063,17.375 141.1063,17.375 Q141.8094,17.375 142.4578,17.5313 Q143.1063,17.6875 143.6688,17.9844 L143.6688,20.7031 Q143.0438,20.125 142.45,19.8516 Q141.8563,19.5781 141.2313,19.5781 Q139.8875,19.5781 139.2,20.6484 Q138.5125,21.7188 138.5125,23.8125 Q138.5125,25.9063 139.2,26.9766 Q139.8875,28.0469 141.2313,28.0469 Q141.8563,28.0469 142.45,27.7734 Q143.0438,27.5 143.6688,26.9219 L143.6688,29.6406 Z "/><text fill="#000000" font-family="sans-serif" font-size="12" lengthAdjust="spacingAndGlyphs" textLength="49" x="160.3" y="28.1543">Handler</text><line style="stroke: #A80036; stroke-width: 1.5;" x1="101.5" x2="236.5" y1="40" y2="40"/><rect fill="none" height="6" style="stroke: #C82930; stroke-width: 1.0;" width="6" x="108.5" y="48.9023"/><text fill="#000000" font-family="sans-serif" font-size="11" lengthAdjust="spacingAndGlyphs" textLength="111" x="120.5" y="54.2104">Handler successor;</text><line style="stroke: #A80036; stroke-width: 1.5;" x1="101.5" x2="236.5" y1="60.8047" y2="60.8047"/><ellipse cx="111.5" cy="72.707" fill="#84BE84" rx="3" ry="3" style="stroke: #038048; stroke-width: 1.0;"/><text fill="#000000" font-family="sans-serif" font-size="11" lengthAdjust="spacingAndGlyphs" textLength="79" x="120.5" y="75.0151">void request()</text><!--class ConcreteHandlerA--><rect fill="#FEFECE" filter="url(#fhfru3yk0hzri)" height="60.8047" id="ConcreteHandlerA" style="stroke: #A80036; stroke-width: 1.5;" width="146" x="6" y="142"/><ellipse cx="21" cy="158" fill="#ADD1B2" rx="11" ry="11" style="stroke: #A80036; stroke-width: 1.0;"/><path d="M23.9688,163.6406 Q23.3906,163.9375 22.75,164.0859 Q22.1094,164.2344 21.4063,164.2344 Q18.9063,164.2344 17.5859,162.5859 Q16.2656,160.9375 16.2656,157.8125 Q16.2656,154.6875 17.5859,153.0313 Q18.9063,151.375 21.4063,151.375 Q22.1094,151.375 22.7578,151.5313 Q23.4063,151.6875 23.9688,151.9844 L23.9688,154.7031 Q23.3438,154.125 22.75,153.8516 Q22.1563,153.5781 21.5313,153.5781 Q20.1875,153.5781 19.5,154.6484 Q18.8125,155.7188 18.8125,157.8125 Q18.8125,159.9063 19.5,160.9766 Q20.1875,162.0469 21.5313,162.0469 Q22.1563,162.0469 22.75,161.7734 Q23.3438,161.5 23.9688,160.9219 L23.9688,163.6406 Z "/><text fill="#000000" font-family="sans-serif" font-size="12" lengthAdjust="spacingAndGlyphs" textLength="114" x="35" y="162.1543">ConcreteHandlerA</text><line style="stroke: #A80036; stroke-width: 1.5;" x1="7" x2="151" y1="174" y2="174"/><line style="stroke: #A80036; stroke-width: 1.5;" x1="7" x2="151" y1="182" y2="182"/><ellipse cx="17" cy="193.9023" fill="#84BE84" rx="3" ry="3" style="stroke: #038048; stroke-width: 1.0;"/><text fill="#000000" font-family="sans-serif" font-size="11" lengthAdjust="spacingAndGlyphs" textLength="79" x="26" y="196.2104">void request()</text><!--class ConcreteHandlerB--><rect fill="#FEFECE" filter="url(#fhfru3yk0hzri)" height="60.8047" id="ConcreteHandlerB" style="stroke: #A80036; stroke-width: 1.5;" width="146" x="187" y="142"/><ellipse cx="202" cy="158" fill="#ADD1B2" rx="11" ry="11" style="stroke: #A80036; stroke-width: 1.0;"/><path d="M204.9688,163.6406 Q204.3906,163.9375 203.75,164.0859 Q203.1094,164.2344 202.4063,164.2344 Q199.9063,164.2344 198.5859,162.5859 Q197.2656,160.9375 197.2656,157.8125 Q197.2656,154.6875 198.5859,153.0313 Q199.9063,151.375 202.4063,151.375 Q203.1094,151.375 203.7578,151.5313 Q204.4063,151.6875 204.9688,151.9844 L204.9688,154.7031 Q204.3438,154.125 203.75,153.8516 Q203.1563,153.5781 202.5313,153.5781 Q201.1875,153.5781 200.5,154.6484 Q199.8125,155.7188 199.8125,157.8125 Q199.8125,159.9063 200.5,160.9766 Q201.1875,162.0469 202.5313,162.0469 Q203.1563,162.0469 203.75,161.7734 Q204.3438,161.5 204.9688,160.9219 L204.9688,163.6406 Z "/><text fill="#000000" font-family="sans-serif" font-size="12" lengthAdjust="spacingAndGlyphs" textLength="114" x="216" y="162.1543">ConcreteHandlerB</text><line style="stroke: #A80036; stroke-width: 1.5;" x1="188" x2="332" y1="174" y2="174"/><line style="stroke: #A80036; stroke-width: 1.5;" x1="188" x2="332" y1="182" y2="182"/><ellipse cx="198" cy="193.9023" fill="#84BE84" rx="3" ry="3" style="stroke: #038048; stroke-width: 1.0;"/><text fill="#000000" font-family="sans-serif" font-size="11" lengthAdjust="spacingAndGlyphs" textLength="79" x="207" y="196.2104">void request()</text><!--link Handler to ConcreteHandlerA--><path d="M130.9292,98.9336 C120.5675,113.6128 109.7035,129.0033 100.6064,141.8909 " fill="none" id="Handler-ConcreteHandlerA" style="stroke: #A80036; stroke-width: 1.0;"/><polygon fill="none" points="125.4738,94.5236,142.7263,82.221,136.9114,102.5972,125.4738,94.5236" style="stroke: #A80036; stroke-width: 1.0;"/><!--link Handler to ConcreteHandlerB--><path d="M207.4938,98.9336 C217.9707,113.6128 228.9553,129.0033 238.1535,141.8909 " fill="none" id="Handler-ConcreteHandlerB" style="stroke: #A80036; stroke-width: 1.0;"/><polygon fill="none" points="201.4867,102.5666,195.5656,82.221,212.882,94.4335,201.4867,102.5666" style="stroke: #A80036; stroke-width: 1.0;"/><!--link Handler to Handler--><path d="M257.3356,25.4255 C266.5777,29.2466 272.5,35.7715 272.5,45 C272.5,54.2285 266.5777,60.7534 257.3356,64.5745 " fill="none" id="Handler-Handler" style="stroke: #A80036; stroke-width: 1.0;"/><polygon fill="none" points="258.665,71.4473,237.6768,68.5327,255.9016,57.7227,258.665,71.4473" style="stroke: #A80036; stroke-width: 1.0;"/><polygon fill="#A80036" points="237.6768,21.4673,245.7102,27.1651,242.5784,22.4542,247.2893,19.3225,237.6768,21.4673" style="stroke: #A80036; stroke-width: 1.0;"/><line style="stroke: #A80036; stroke-width: 1.0;" x1="242.5784" x2="257.2833" y1="22.4542" y2="25.415"/><!--
@startuml
class Handler{
- Handler successor;
+ void request()
}
class ConcreteHandlerA{
+ void request()
}
class ConcreteHandlerB{
+ void request()
}
Handler <|- - ConcreteHandlerA
Handler <|- - ConcreteHandlerB
Handler <- -|> Handler
@enduml

PlantUML version 1.2018.10(Sun Aug 26 01:02:59 CST 2018)
(APACHE source distribution)
Java Runtime: Java(TM) SE Runtime Environment
JVM: Java HotSpot(TM) 64-Bit Server VM
Java Version: 1.8.0_181-b13
Operating System: Linux
OS Version: 4.15.0-43-generic
Default Encoding: UTF-8
Language: en
Country: US
--></g></svg>