<?xml version="1.0" encoding="UTF-8" standalone="no"?><svg xmlns="http://www.w3.org/2000/svg" xmlns:xlink="http://www.w3.org/1999/xlink" contentScriptType="application/ecmascript" contentStyleType="text/css" height="200px" preserveAspectRatio="none" style="width:630px;height:200px;" version="1.1" viewBox="0 0 630 200" width="630px" zoomAndPan="magnify"><defs><filter height="300%" id="f18hlj7evpphkh" width="300%" x="-1" y="-1"><feGaussianBlur result="blurOut" stdDeviation="2.0"/><feColorMatrix in="blurOut" result="blurOut2" type="matrix" values="0 0 0 0 0 0 0 0 0 0 0 0 0 0 0 0 0 0 .4 0"/><feOffset dx="4.0" dy="4.0" in="blurOut2" result="blurOut3"/><feBlend in="SourceGraphic" in2="blurOut3" mode="normal"/></filter></defs><g><!--class ReceiverA--><rect fill="#FEFECE" filter="url(#f18hlj7evpphkh)" height="60.8047" id="ReceiverA" style="stroke: #A80036; stroke-width: 1.5;" width="95" x="6" y="129"/><ellipse cx="21.9" cy="145" fill="#ADD1B2" rx="11" ry="11" style="stroke: #A80036; stroke-width: 1.0;"/><path d="M24.8688,150.6406 Q24.2906,150.9375 23.65,151.0859 Q23.0094,151.2344 22.3063,151.2344 Q19.8063,151.2344 18.4859,149.5859 Q17.1656,147.9375 17.1656,144.8125 Q17.1656,141.6875 18.4859,140.0313 Q19.8063,138.375 22.3063,138.375 Q23.0094,138.375 23.6578,138.5313 Q24.3063,138.6875 24.8688,138.9844 L24.8688,141.7031 Q24.2438,141.125 23.65,140.8516 Q23.0563,140.5781 22.4313,140.5781 Q21.0875,140.5781 20.4,141.6484 Q19.7125,142.7188 19.7125,144.8125 Q19.7125,146.9063 20.4,147.9766 Q21.0875,149.0469 22.4313,149.0469 Q23.0563,149.0469 23.65,148.7734 Q24.2438,148.5 24.8688,147.9219 L24.8688,150.6406 Z "/><text fill="#000000" font-family="sans-serif" font-size="12" lengthAdjust="spacingAndGlyphs" textLength="61" x="36.1" y="149.1543">ReceiverA</text><line style="stroke: #A80036; stroke-width: 1.5;" x1="7" x2="100" y1="161" y2="161"/><line style="stroke: #A80036; stroke-width: 1.5;" x1="7" x2="100" y1="169" y2="169"/><ellipse cx="17" cy="180.9023" fill="#84BE84" rx="3" ry="3" style="stroke: #038048; stroke-width: 1.0;"/><text fill="#000000" font-family="sans-serif" font-size="11" lengthAdjust="spacingAndGlyphs" textLength="69" x="26" y="183.2104">void action()</text><!--class ReceiverB--><rect fill="#FEFECE" filter="url(#f18hlj7evpphkh)" height="60.8047" id="ReceiverB" style="stroke: #A80036; stroke-width: 1.5;" width="95" x="524" y="129"/><ellipse cx="539.9" cy="145" fill="#ADD1B2" rx="11" ry="11" style="stroke: #A80036; stroke-width: 1.0;"/><path d="M542.8688,150.6406 Q542.2906,150.9375 541.65,151.0859 Q541.0094,151.2344 540.3063,151.2344 Q537.8063,151.2344 536.4859,149.5859 Q535.1656,147.9375 535.1656,144.8125 Q535.1656,141.6875 536.4859,140.0313 Q537.8063,138.375 540.3063,138.375 Q541.0094,138.375 541.6578,138.5313 Q542.3063,138.6875 542.8688,138.9844 L542.8688,141.7031 Q542.2438,141.125 541.65,140.8516 Q541.0563,140.5781 540.4313,140.5781 Q539.0875,140.5781 538.4,141.6484 Q537.7125,142.7188 537.7125,144.8125 Q537.7125,146.9063 538.4,147.9766 Q539.0875,149.0469 540.4313,149.0469 Q541.0563,149.0469 541.65,148.7734 Q542.2438,148.5 542.8688,147.9219 L542.8688,150.6406 Z "/><text fill="#000000" font-family="sans-serif" font-size="12" lengthAdjust="spacingAndGlyphs" textLength="61" x="554.1" y="149.1543">ReceiverB</text><line style="stroke: #A80036; stroke-width: 1.5;" x1="525" x2="618" y1="161" y2="161"/><line style="stroke: #A80036; stroke-width: 1.5;" x1="525" x2="618" y1="169" y2="169"/><ellipse cx="535" cy="180.9023" fill="#84BE84" rx="3" ry="3" style="stroke: #038048; stroke-width: 1.0;"/><text fill="#000000" font-family="sans-serif" font-size="11" lengthAdjust="spacingAndGlyphs" textLength="69" x="544" y="183.2104">void action()</text><!--class Command--><rect fill="#FEFECE" filter="url(#f18hlj7evpphkh)" height="60.8047" id="Command" style="stroke: #A80036; stroke-width: 1.5;" width="105" x="260" y="8"/><ellipse cx="279.95" cy="24" fill="#A9DCDF" rx="11" ry="11" style="stroke: #A80036; stroke-width: 1.0;"/><path d="M280.0594,19.3438 L278.9031,24.4219 L281.2313,24.4219 L280.0594,19.3438 Z M278.575,17.1094 L281.5594,17.1094 L284.9188,29.5 L282.4656,29.5 L281.7,26.4375 L278.4188,26.4375 L277.6688,29.5 L275.2313,29.5 L278.575,17.1094 Z "/><text fill="#000000" font-family="sans-serif" font-size="12" font-style="italic" lengthAdjust="spacingAndGlyphs" textLength="62" x="295.05" y="28.1543">Command</text><line style="stroke: #A80036; stroke-width: 1.5;" x1="261" x2="364" y1="40" y2="40"/><line style="stroke: #A80036; stroke-width: 1.5;" x1="261" x2="364" y1="48" y2="48"/><ellipse cx="271" cy="59.9023" fill="#84BE84" rx="3" ry="3" style="stroke: #038048; stroke-width: 1.0;"/><text fill="#000000" font-family="sans-serif" font-size="11" lengthAdjust="spacingAndGlyphs" textLength="79" x="280" y="62.2104">void execute()</text><!--class ConcreteCommandA--><rect fill="#FEFECE" filter="url(#f18hlj7evpphkh)" height="48" id="ConcreteCommandA" style="stroke: #A80036; stroke-width: 1.5;" width="159" x="136" y="135.5"/><ellipse cx="151" cy="151.5" fill="#ADD1B2" rx="11" ry="11" style="stroke: #A80036; stroke-width: 1.0;"/><path d="M153.9688,157.1406 Q153.3906,157.4375 152.75,157.5859 Q152.1094,157.7344 151.4063,157.7344 Q148.9063,157.7344 147.5859,156.0859 Q146.2656,154.4375 146.2656,151.3125 Q146.2656,148.1875 147.5859,146.5313 Q148.9063,144.875 151.4063,144.875 Q152.1094,144.875 152.7578,145.0313 Q153.4063,145.1875 153.9688,145.4844 L153.9688,148.2031 Q153.3438,147.625 152.75,147.3516 Q152.1563,147.0781 151.5313,147.0781 Q150.1875,147.0781 149.5,148.1484 Q148.8125,149.2188 148.8125,151.3125 Q148.8125,153.4063 149.5,154.4766 Q150.1875,155.5469 151.5313,155.5469 Q152.1563,155.5469 152.75,155.2734 Q153.3438,155 153.9688,154.4219 L153.9688,157.1406 Z "/><text fill="#000000" font-family="sans-serif" font-size="12" lengthAdjust="spacingAndGlyphs" textLength="127" x="165" y="155.6543">ConcreteCommandA</text><line style="stroke: #A80036; stroke-width: 1.5;" x1="137" x2="294" y1="167.5" y2="167.5"/><line style="stroke: #A80036; stroke-width: 1.5;" x1="137" x2="294" y1="175.5" y2="175.5"/><!--class ConcreteCommandB--><rect fill="#FEFECE" filter="url(#f18hlj7evpphkh)" height="48" id="ConcreteCommandB" style="stroke: #A80036; stroke-width: 1.5;" width="159" x="330" y="135.5"/><ellipse cx="345" cy="151.5" fill="#ADD1B2" rx="11" ry="11" style="stroke: #A80036; stroke-width: 1.0;"/><path d="M347.9688,157.1406 Q347.3906,157.4375 346.75,157.5859 Q346.1094,157.7344 345.4063,157.7344 Q342.9063,157.7344 341.5859,156.0859 Q340.2656,154.4375 340.2656,151.3125 Q340.2656,148.1875 341.5859,146.5313 Q342.9063,144.875 345.4063,144.875 Q346.1094,144.875 346.7578,145.0313 Q347.4063,145.1875 347.9688,145.4844 L347.9688,148.2031 Q347.3438,147.625 346.75,147.3516 Q346.1563,147.0781 345.5313,147.0781 Q344.1875,147.0781 343.5,148.1484 Q342.8125,149.2188 342.8125,151.3125 Q342.8125,153.4063 343.5,154.4766 Q344.1875,155.5469 345.5313,155.5469 Q346.1563,155.5469 346.75,155.2734 Q347.3438,155 347.9688,154.4219 L347.9688,157.1406 Z "/><text fill="#000000" font-family="sans-serif" font-size="12" lengthAdjust="spacingAndGlyphs" textLength="127" x="359" y="155.6543">ConcreteCommandB</text><line style="stroke: #A80036; stroke-width: 1.5;" x1="331" x2="488" y1="167.5" y2="167.5"/><line style="stroke: #A80036; stroke-width: 1.5;" x1="331" x2="488" y1="175.5" y2="175.5"/><!--link Command to ConcreteCommandA--><path d="M275.3191,84.8802 C261.4883,102.1331 246.3568,121.0085 234.7728,135.4587 " fill="none" id="Command-ConcreteCommandA" style="stroke: #A80036; stroke-width: 1.0;"/><polygon fill="none" points="270.0515,80.2598,288.0228,69.0334,280.9748,89.0166,270.0515,80.2598" style="stroke: #A80036; stroke-width: 1.0;"/><!--link Command to ConcreteCommandB--><path d="M349.6809,84.8802 C363.5117,102.1331 378.6432,121.0085 390.2272,135.4587 " fill="none" id="Command-ConcreteCommandB" style="stroke: #A80036; stroke-width: 1.0;"/><polygon fill="none" points="344.0252,89.0166,336.9772,69.0334,354.9485,80.2598,344.0252,89.0166" style="stroke: #A80036; stroke-width: 1.0;"/><!--link ReceiverA to ConcreteCommandA--><path d="M106.3771,159.5 C116.1292,159.5 125.8813,159.5 135.6334,159.5 " fill="none" id="ReceiverA-ConcreteCommandA" style="stroke: #A80036; stroke-width: 1.0;"/><polygon fill="#A80036" points="101.2773,159.5,110.2773,163.5,106.2773,159.5,110.2773,155.5,101.2773,159.5" style="stroke: #A80036; stroke-width: 1.0;"/><!--link ConcreteCommandB to ReceiverB--><path d="M489.2344,159.5 C499.0858,159.5 508.9372,159.5 518.7885,159.5 " fill="none" id="ConcreteCommandB-ReceiverB" style="stroke: #A80036; stroke-width: 1.0;"/><polygon fill="#A80036" points="523.9402,159.5,514.9402,155.5,518.9402,159.5,514.9402,163.5,523.9402,159.5" style="stroke: #A80036; stroke-width: 1.0;"/><!--
@startuml

class ReceiverA {
+ void action()
}
class ReceiverB {
+ void action()
}

abstract class Command {
+ void execute()
}

class ConcreteCommandA {
}

class ConcreteCommandB {
}

Command <|- - ConcreteCommandA
Command <|- - ConcreteCommandB
ReceiverA <- ConcreteCommandA
ConcreteCommandB -> ReceiverB
@enduml

PlantUML version 1.2018.10(Sun Aug 26 01:02:59 CST 2018)
(APACHE source distribution)
Java Runtime: Java(TM) SE Runtime Environment
JVM: Java HotSpot(TM) 64-Bit Server VM
Java Version: 1.8.0_181-b13
Operating System: Linux
OS Version: 4.15.0-43-generic
Default Encoding: UTF-8
Language: en
Country: US
--></g></svg>