<?xml version="1.0" encoding="UTF-8" standalone="no"?><svg xmlns="http://www.w3.org/2000/svg" xmlns:xlink="http://www.w3.org/1999/xlink" contentScriptType="application/ecmascript" contentStyleType="text/css" height="226px" preserveAspectRatio="none" style="width:326px;height:226px;" version="1.1" viewBox="0 0 326 226" width="326px" zoomAndPan="magnify"><defs><filter height="300%" id="fdr6tv654k2qz" width="300%" x="-1" y="-1"><feGaussianBlur result="blurOut" stdDeviation="2.0"/><feColorMatrix in="blurOut" result="blurOut2" type="matrix" values="0 0 0 0 0 0 0 0 0 0 0 0 0 0 0 0 0 0 .4 0"/><feOffset dx="4.0" dy="4.0" in="blurOut2" result="blurOut3"/><feBlend in="SourceGraphic" in2="blurOut3" mode="normal"/></filter></defs><g><!--class Component--><rect fill="#FEFECE" filter="url(#fdr6tv654k2qz)" height="60.8047" id="Component" style="stroke: #A80036; stroke-width: 1.5;" width="105" x="92" y="8"/><ellipse cx="107.45" cy="24" fill="#ADD1B2" rx="11" ry="11" style="stroke: #A80036; stroke-width: 1.0;"/><path d="M110.4188,29.6406 Q109.8406,29.9375 109.2,30.0859 Q108.5594,30.2344 107.8563,30.2344 Q105.3563,30.2344 104.0359,28.5859 Q102.7156,26.9375 102.7156,23.8125 Q102.7156,20.6875 104.0359,19.0313 Q105.3563,17.375 107.8563,17.375 Q108.5594,17.375 109.2078,17.5313 Q109.8563,17.6875 110.4188,17.9844 L110.4188,20.7031 Q109.7938,20.125 109.2,19.8516 Q108.6063,19.5781 107.9813,19.5781 Q106.6375,19.5781 105.95,20.6484 Q105.2625,21.7188 105.2625,23.8125 Q105.2625,25.9063 105.95,26.9766 Q106.6375,28.0469 107.9813,28.0469 Q108.6063,28.0469 109.2,27.7734 Q109.7938,27.5 110.4188,26.9219 L110.4188,29.6406 Z "/><text fill="#000000" font-family="sans-serif" font-size="12" lengthAdjust="spacingAndGlyphs" textLength="72" x="121.55" y="28.1543">Component</text><line style="stroke: #A80036; stroke-width: 1.5;" x1="93" x2="196" y1="40" y2="40"/><line style="stroke: #A80036; stroke-width: 1.5;" x1="93" x2="196" y1="48" y2="48"/><ellipse cx="103" cy="59.9023" fill="#84BE84" rx="3" ry="3" style="stroke: #038048; stroke-width: 1.0;"/><text fill="#000000" font-family="sans-serif" font-size="11" lengthAdjust="spacingAndGlyphs" textLength="79" x="112" y="62.2104">void operate()</text><!--class Leaf--><rect fill="#FEFECE" filter="url(#fdr6tv654k2qz)" height="60.8047" id="Leaf" style="stroke: #A80036; stroke-width: 1.5;" width="105" x="6" y="141.5"/><ellipse cx="42.15" cy="157.5" fill="#ADD1B2" rx="11" ry="11" style="stroke: #A80036; stroke-width: 1.0;"/><path d="M45.1188,163.1406 Q44.5406,163.4375 43.9,163.5859 Q43.2594,163.7344 42.5563,163.7344 Q40.0563,163.7344 38.7359,162.0859 Q37.4156,160.4375 37.4156,157.3125 Q37.4156,154.1875 38.7359,152.5313 Q40.0563,150.875 42.5563,150.875 Q43.2594,150.875 43.9078,151.0313 Q44.5563,151.1875 45.1188,151.4844 L45.1188,154.2031 Q44.4938,153.625 43.9,153.3516 Q43.3063,153.0781 42.6813,153.0781 Q41.3375,153.0781 40.65,154.1484 Q39.9625,155.2188 39.9625,157.3125 Q39.9625,159.4063 40.65,160.4766 Q41.3375,161.5469 42.6813,161.5469 Q43.3063,161.5469 43.9,161.2734 Q44.4938,161 45.1188,160.4219 L45.1188,163.1406 Z "/><text fill="#000000" font-family="sans-serif" font-size="12" lengthAdjust="spacingAndGlyphs" textLength="26" x="60.85" y="161.6543">Leaf</text><line style="stroke: #A80036; stroke-width: 1.5;" x1="7" x2="110" y1="173.5" y2="173.5"/><line style="stroke: #A80036; stroke-width: 1.5;" x1="7" x2="110" y1="181.5" y2="181.5"/><ellipse cx="17" cy="193.4023" fill="#84BE84" rx="3" ry="3" style="stroke: #038048; stroke-width: 1.0;"/><text fill="#000000" font-family="sans-serif" font-size="11" lengthAdjust="spacingAndGlyphs" textLength="79" x="26" y="195.7104">void operate()</text><!--class Composite--><rect fill="#FEFECE" filter="url(#fdr6tv654k2qz)" height="86.4141" id="Composite" style="stroke: #A80036; stroke-width: 1.5;" width="169" x="146" y="129"/><ellipse cx="193.25" cy="145" fill="#ADD1B2" rx="11" ry="11" style="stroke: #A80036; stroke-width: 1.0;"/><path d="M196.2188,150.6406 Q195.6406,150.9375 195,151.0859 Q194.3594,151.2344 193.6563,151.2344 Q191.1563,151.2344 189.8359,149.5859 Q188.5156,147.9375 188.5156,144.8125 Q188.5156,141.6875 189.8359,140.0313 Q191.1563,138.375 193.6563,138.375 Q194.3594,138.375 195.0078,138.5313 Q195.6563,138.6875 196.2188,138.9844 L196.2188,141.7031 Q195.5938,141.125 195,140.8516 Q194.4063,140.5781 193.7813,140.5781 Q192.4375,140.5781 191.75,141.6484 Q191.0625,142.7188 191.0625,144.8125 Q191.0625,146.9063 191.75,147.9766 Q192.4375,149.0469 193.7813,149.0469 Q194.4063,149.0469 195,148.7734 Q195.5938,148.5 196.2188,147.9219 L196.2188,150.6406 Z "/><text fill="#000000" font-family="sans-serif" font-size="12" lengthAdjust="spacingAndGlyphs" textLength="66" x="213.75" y="149.1543">Composite</text><line style="stroke: #A80036; stroke-width: 1.5;" x1="147" x2="314" y1="161" y2="161"/><line style="stroke: #A80036; stroke-width: 1.5;" x1="147" x2="314" y1="169" y2="169"/><ellipse cx="157" cy="180.9023" fill="#84BE84" rx="3" ry="3" style="stroke: #038048; stroke-width: 1.0;"/><text fill="#000000" font-family="sans-serif" font-size="11" lengthAdjust="spacingAndGlyphs" textLength="121" x="166" y="183.2104">void add(Component)</text><ellipse cx="157" cy="193.707" fill="#84BE84" rx="3" ry="3" style="stroke: #038048; stroke-width: 1.0;"/><text fill="#000000" font-family="sans-serif" font-size="11" lengthAdjust="spacingAndGlyphs" textLength="143" x="166" y="196.0151">void remove(Component)</text><ellipse cx="157" cy="206.5117" fill="#84BE84" rx="3" ry="3" style="stroke: #038048; stroke-width: 1.0;"/><text fill="#000000" font-family="sans-serif" font-size="11" lengthAdjust="spacingAndGlyphs" textLength="79" x="166" y="208.8198">void operate()</text><!--link Component to Leaf--><path d="M113.8144,86.134 C102.0482,104.399 88.9386,124.7493 78.4361,141.0526 " fill="none" id="Component-Leaf" style="stroke: #A80036; stroke-width: 1.0;"/><polygon fill="none" points="108.0541,82.1501,124.7699,69.1276,119.8234,89.7318,108.0541,82.1501" style="stroke: #A80036; stroke-width: 1.0;"/><!--link Component to Composite--><path d="M175.0811,85.9719 C184.0891,99.9551 193.8923,115.173 202.7146,128.8681 " fill="none" id="Component-Composite" style="stroke: #A80036; stroke-width: 1.0;"/><polygon fill="none" points="169.1766,89.7318,164.2301,69.1276,180.9459,82.1501,169.1766,89.7318" style="stroke: #A80036; stroke-width: 1.0;"/><!--
@startuml
class Component{
+ void operate()
}

class Leaf extends Component{
+ void operate()
}

class Composite extends Component{
+ void add(Component)
+ void remove(Component)
+ void operate()
}

@enduml

PlantUML version 1.2018.10(Sun Aug 26 01:02:59 CST 2018)
(APACHE source distribution)
Java Runtime: Java(TM) SE Runtime Environment
JVM: Java HotSpot(TM) 64-Bit Server VM
Java Version: 1.8.0_181-b13
Operating System: Linux
OS Version: 4.15.0-43-generic
Default Encoding: UTF-8
Language: en
Country: US
--></g></svg>