<?xml version="1.0" encoding="UTF-8" standalone="no"?><svg xmlns="http://www.w3.org/2000/svg" xmlns:xlink="http://www.w3.org/1999/xlink" contentScriptType="application/ecmascript" contentStyleType="text/css" height="321px" preserveAspectRatio="none" style="width:442px;height:321px;" version="1.1" viewBox="0 0 442 321" width="442px" zoomAndPan="magnify"><defs><filter height="300%" id="f1sis1z4kgxclw" width="300%" x="-1" y="-1"><feGaussianBlur result="blurOut" stdDeviation="2.0"/><feColorMatrix in="blurOut" result="blurOut2" type="matrix" values="0 0 0 0 0 0 0 0 0 0 0 0 0 0 0 0 0 0 .4 0"/><feOffset dx="4.0" dy="4.0" in="blurOut2" result="blurOut3"/><feBlend in="SourceGraphic" in2="blurOut3" mode="normal"/></filter></defs><g><!--class Component--><rect fill="#FEFECE" filter="url(#f1sis1z4kgxclw)" height="60.8047" id="Component" style="stroke: #A80036; stroke-width: 1.5;" width="105" x="214.5" y="8"/><ellipse cx="229.95" cy="24" fill="#ADD1B2" rx="11" ry="11" style="stroke: #A80036; stroke-width: 1.0;"/><path d="M232.9188,29.6406 Q232.3406,29.9375 231.7,30.0859 Q231.0594,30.2344 230.3563,30.2344 Q227.8563,30.2344 226.5359,28.5859 Q225.2156,26.9375 225.2156,23.8125 Q225.2156,20.6875 226.5359,19.0313 Q227.8563,17.375 230.3563,17.375 Q231.0594,17.375 231.7078,17.5313 Q232.3563,17.6875 232.9188,17.9844 L232.9188,20.7031 Q232.2938,20.125 231.7,19.8516 Q231.1063,19.5781 230.4813,19.5781 Q229.1375,19.5781 228.45,20.6484 Q227.7625,21.7188 227.7625,23.8125 Q227.7625,25.9063 228.45,26.9766 Q229.1375,28.0469 230.4813,28.0469 Q231.1063,28.0469 231.7,27.7734 Q232.2938,27.5 232.9188,26.9219 L232.9188,29.6406 Z "/><text fill="#000000" font-family="sans-serif" font-size="12" lengthAdjust="spacingAndGlyphs" textLength="72" x="244.05" y="28.1543">Component</text><line style="stroke: #A80036; stroke-width: 1.5;" x1="215.5" x2="318.5" y1="40" y2="40"/><line style="stroke: #A80036; stroke-width: 1.5;" x1="215.5" x2="318.5" y1="48" y2="48"/><ellipse cx="225.5" cy="59.9023" fill="#84BE84" rx="3" ry="3" style="stroke: #038048; stroke-width: 1.0;"/><text fill="#000000" font-family="sans-serif" font-size="11" lengthAdjust="spacingAndGlyphs" textLength="79" x="234.5" y="62.2104">void operate()</text><!--class ConcreteComponent--><rect fill="#FEFECE" filter="url(#f1sis1z4kgxclw)" height="60.8047" id="ConcreteComponent" style="stroke: #A80036; stroke-width: 1.5;" width="161" x="270.5" y="129"/><ellipse cx="285.5" cy="145" fill="#ADD1B2" rx="11" ry="11" style="stroke: #A80036; stroke-width: 1.0;"/><path d="M288.4688,150.6406 Q287.8906,150.9375 287.25,151.0859 Q286.6094,151.2344 285.9063,151.2344 Q283.4063,151.2344 282.0859,149.5859 Q280.7656,147.9375 280.7656,144.8125 Q280.7656,141.6875 282.0859,140.0313 Q283.4063,138.375 285.9063,138.375 Q286.6094,138.375 287.2578,138.5313 Q287.9063,138.6875 288.4688,138.9844 L288.4688,141.7031 Q287.8438,141.125 287.25,140.8516 Q286.6563,140.5781 286.0313,140.5781 Q284.6875,140.5781 284,141.6484 Q283.3125,142.7188 283.3125,144.8125 Q283.3125,146.9063 284,147.9766 Q284.6875,149.0469 286.0313,149.0469 Q286.6563,149.0469 287.25,148.7734 Q287.8438,148.5 288.4688,147.9219 L288.4688,150.6406 Z "/><text fill="#000000" font-family="sans-serif" font-size="12" lengthAdjust="spacingAndGlyphs" textLength="129" x="299.5" y="149.1543">ConcreteComponent</text><line style="stroke: #A80036; stroke-width: 1.5;" x1="271.5" x2="430.5" y1="161" y2="161"/><line style="stroke: #A80036; stroke-width: 1.5;" x1="271.5" x2="430.5" y1="169" y2="169"/><ellipse cx="281.5" cy="180.9023" fill="#84BE84" rx="3" ry="3" style="stroke: #038048; stroke-width: 1.0;"/><text fill="#000000" font-family="sans-serif" font-size="11" lengthAdjust="spacingAndGlyphs" textLength="79" x="290.5" y="183.2104">void operate()</text><!--class Decorator--><rect fill="#FEFECE" filter="url(#f1sis1z4kgxclw)" height="60.8047" id="Decorator" style="stroke: #A80036; stroke-width: 1.5;" width="105" x="130.5" y="129"/><ellipse cx="150" cy="145" fill="#ADD1B2" rx="11" ry="11" style="stroke: #A80036; stroke-width: 1.0;"/><path d="M152.9688,150.6406 Q152.3906,150.9375 151.75,151.0859 Q151.1094,151.2344 150.4063,151.2344 Q147.9063,151.2344 146.5859,149.5859 Q145.2656,147.9375 145.2656,144.8125 Q145.2656,141.6875 146.5859,140.0313 Q147.9063,138.375 150.4063,138.375 Q151.1094,138.375 151.7578,138.5313 Q152.4063,138.6875 152.9688,138.9844 L152.9688,141.7031 Q152.3438,141.125 151.75,140.8516 Q151.1563,140.5781 150.5313,140.5781 Q149.1875,140.5781 148.5,141.6484 Q147.8125,142.7188 147.8125,144.8125 Q147.8125,146.9063 148.5,147.9766 Q149.1875,149.0469 150.5313,149.0469 Q151.1563,149.0469 151.75,148.7734 Q152.3438,148.5 152.9688,147.9219 L152.9688,150.6406 Z "/><text fill="#000000" font-family="sans-serif" font-size="12" lengthAdjust="spacingAndGlyphs" textLength="63" x="165" y="149.1543">Decorator</text><line style="stroke: #A80036; stroke-width: 1.5;" x1="131.5" x2="234.5" y1="161" y2="161"/><line style="stroke: #A80036; stroke-width: 1.5;" x1="131.5" x2="234.5" y1="169" y2="169"/><ellipse cx="141.5" cy="180.9023" fill="#84BE84" rx="3" ry="3" style="stroke: #038048; stroke-width: 1.0;"/><text fill="#000000" font-family="sans-serif" font-size="11" lengthAdjust="spacingAndGlyphs" textLength="79" x="150.5" y="183.2104">void operate()</text><!--class ConcreteDecoratorA--><rect fill="#FEFECE" filter="url(#f1sis1z4kgxclw)" height="60.8047" id="ConcreteDecoratorA" style="stroke: #A80036; stroke-width: 1.5;" width="160" x="6" y="250"/><ellipse cx="21" cy="266" fill="#ADD1B2" rx="11" ry="11" style="stroke: #A80036; stroke-width: 1.0;"/><path d="M23.9688,271.6406 Q23.3906,271.9375 22.75,272.0859 Q22.1094,272.2344 21.4063,272.2344 Q18.9063,272.2344 17.5859,270.5859 Q16.2656,268.9375 16.2656,265.8125 Q16.2656,262.6875 17.5859,261.0313 Q18.9063,259.375 21.4063,259.375 Q22.1094,259.375 22.7578,259.5313 Q23.4063,259.6875 23.9688,259.9844 L23.9688,262.7031 Q23.3438,262.125 22.75,261.8516 Q22.1563,261.5781 21.5313,261.5781 Q20.1875,261.5781 19.5,262.6484 Q18.8125,263.7188 18.8125,265.8125 Q18.8125,267.9063 19.5,268.9766 Q20.1875,270.0469 21.5313,270.0469 Q22.1563,270.0469 22.75,269.7734 Q23.3438,269.5 23.9688,268.9219 L23.9688,271.6406 Z "/><text fill="#000000" font-family="sans-serif" font-size="12" lengthAdjust="spacingAndGlyphs" textLength="128" x="35" y="270.1543">ConcreteDecoratorA</text><line style="stroke: #A80036; stroke-width: 1.5;" x1="7" x2="165" y1="282" y2="282"/><line style="stroke: #A80036; stroke-width: 1.5;" x1="7" x2="165" y1="290" y2="290"/><ellipse cx="17" cy="301.9023" fill="#84BE84" rx="3" ry="3" style="stroke: #038048; stroke-width: 1.0;"/><text fill="#000000" font-family="sans-serif" font-size="11" lengthAdjust="spacingAndGlyphs" textLength="79" x="26" y="304.2104">void operate()</text><!--class ConcreteDecoratorB--><rect fill="#FEFECE" filter="url(#f1sis1z4kgxclw)" height="60.8047" id="ConcreteDecoratorB" style="stroke: #A80036; stroke-width: 1.5;" width="160" x="201" y="250"/><ellipse cx="216" cy="266" fill="#ADD1B2" rx="11" ry="11" style="stroke: #A80036; stroke-width: 1.0;"/><path d="M218.9688,271.6406 Q218.3906,271.9375 217.75,272.0859 Q217.1094,272.2344 216.4063,272.2344 Q213.9063,272.2344 212.5859,270.5859 Q211.2656,268.9375 211.2656,265.8125 Q211.2656,262.6875 212.5859,261.0313 Q213.9063,259.375 216.4063,259.375 Q217.1094,259.375 217.7578,259.5313 Q218.4063,259.6875 218.9688,259.9844 L218.9688,262.7031 Q218.3438,262.125 217.75,261.8516 Q217.1563,261.5781 216.5313,261.5781 Q215.1875,261.5781 214.5,262.6484 Q213.8125,263.7188 213.8125,265.8125 Q213.8125,267.9063 214.5,268.9766 Q215.1875,270.0469 216.5313,270.0469 Q217.1563,270.0469 217.75,269.7734 Q218.3438,269.5 218.9688,268.9219 L218.9688,271.6406 Z "/><text fill="#000000" font-family="sans-serif" font-size="12" lengthAdjust="spacingAndGlyphs" textLength="128" x="230" y="270.1543">ConcreteDecoratorB</text><line style="stroke: #A80036; stroke-width: 1.5;" x1="202" x2="360" y1="282" y2="282"/><line style="stroke: #A80036; stroke-width: 1.5;" x1="202" x2="360" y1="290" y2="290"/><ellipse cx="212" cy="301.9023" fill="#84BE84" rx="3" ry="3" style="stroke: #038048; stroke-width: 1.0;"/><text fill="#000000" font-family="sans-serif" font-size="11" lengthAdjust="spacingAndGlyphs" textLength="79" x="221" y="304.2104">void operate()</text><!--link Component to ConcreteComponent--><path d="M299.93,85.9349 C309.9802,100.4119 320.758,115.9371 329.81,128.9764 " fill="none" id="Component-ConcreteComponent" style="stroke: #A80036; stroke-width: 1.0;"/><polygon fill="none" points="293.8519,89.4545,288.1967,69.0334,305.3524,81.4707,293.8519,89.4545" style="stroke: #A80036; stroke-width: 1.0;"/><!--link Component to Decorator--><path d="M234.07,85.9349 C224.0198,100.4119 213.242,115.9371 204.19,128.9764 " fill="none" id="Component-Decorator" style="stroke: #A80036; stroke-width: 1.0;"/><polygon fill="none" points="228.6476,81.4707,245.8033,69.0334,240.1481,89.4545,228.6476,81.4707" style="stroke: #A80036; stroke-width: 1.0;"/><!--link Decorator to ConcreteDecoratorA--><path d="M145.7377,205.9819 C133.9162,220.7283 121.1521,236.6505 110.4694,249.9764 " fill="none" id="Decorator-ConcreteDecoratorA" style="stroke: #A80036; stroke-width: 1.0;"/><polygon fill="none" points="140.5515,201.2598,158.5228,190.0334,151.4748,210.0166,140.5515,201.2598" style="stroke: #A80036; stroke-width: 1.0;"/><!--link Decorator to ConcreteDecoratorB--><path d="M220.6465,205.9819 C232.5899,220.7283 245.4855,236.6505 256.2784,249.9764 " fill="none" id="Decorator-ConcreteDecoratorB" style="stroke: #A80036; stroke-width: 1.0;"/><polygon fill="none" points="214.8776,209.981,207.7295,190.0334,225.7569,201.1696,214.8776,209.981" style="stroke: #A80036; stroke-width: 1.0;"/><!--link Decorator to ConcreteComponent--><path d="M235.8281,159.5 C245.6613,159.5 255.4944,159.5 265.3276,159.5 " fill="none" id="Decorator-ConcreteComponent" style="stroke: #A80036; stroke-width: 1.0;"/><polygon fill="#A80036" points="270.4697,159.5,261.4697,155.5,265.4697,159.5,261.4697,163.5,270.4697,159.5" style="stroke: #A80036; stroke-width: 1.0;"/><!--
@startuml
class Component{
+ void operate()
}
class ConcreteComponent extends Component{
+ void operate()
}
class Decorator extends Component{
+ void operate()
}
class ConcreteDecoratorA extends Decorator{
+ void operate()
}
class ConcreteDecoratorB extends Decorator{
+ void operate()
}

Decorator -> ConcreteComponent
@enduml

PlantUML version 1.2018.10(Sun Aug 26 01:02:59 CST 2018)
(APACHE source distribution)
Java Runtime: Java(TM) SE Runtime Environment
JVM: Java HotSpot(TM) 64-Bit Server VM
Java Version: 1.8.0_181-b13
Operating System: Linux
OS Version: 4.15.0-43-generic
Default Encoding: UTF-8
Language: en
Country: US
--></g></svg>