<?xml version="1.0" encoding="UTF-8" standalone="no"?><svg xmlns="http://www.w3.org/2000/svg" xmlns:xlink="http://www.w3.org/1999/xlink" contentScriptType="application/ecmascript" contentStyleType="text/css" height="133px" preserveAspectRatio="none" style="width:535px;height:133px;" version="1.1" viewBox="0 0 535 133" width="535px" zoomAndPan="magnify"><defs><filter height="300%" id="f1b27ymv4odv37" width="300%" x="-1" y="-1"><feGaussianBlur result="blurOut" stdDeviation="2.0"/><feColorMatrix in="blurOut" result="blurOut2" type="matrix" values="0 0 0 0 0 0 0 0 0 0 0 0 0 0 0 0 0 0 .4 0"/><feOffset dx="4.0" dy="4.0" in="blurOut2" result="blurOut3"/><feBlend in="SourceGraphic" in2="blurOut3" mode="normal"/></filter></defs><g><!--class SystemA--><rect fill="#FEFECE" filter="url(#f1b27ymv4odv37)" height="60.8047" id="SystemA" style="stroke: #A80036; stroke-width: 1.5;" width="102" x="6" y="62"/><ellipse cx="28.65" cy="78" fill="#ADD1B2" rx="11" ry="11" style="stroke: #A80036; stroke-width: 1.0;"/><path d="M31.6188,83.6406 Q31.0406,83.9375 30.4,84.0859 Q29.7594,84.2344 29.0563,84.2344 Q26.5563,84.2344 25.2359,82.5859 Q23.9156,80.9375 23.9156,77.8125 Q23.9156,74.6875 25.2359,73.0313 Q26.5563,71.375 29.0563,71.375 Q29.7594,71.375 30.4078,71.5313 Q31.0563,71.6875 31.6188,71.9844 L31.6188,74.7031 Q30.9938,74.125 30.4,73.8516 Q29.8063,73.5781 29.1813,73.5781 Q27.8375,73.5781 27.15,74.6484 Q26.4625,75.7188 26.4625,77.8125 Q26.4625,79.9063 27.15,80.9766 Q27.8375,82.0469 29.1813,82.0469 Q29.8063,82.0469 30.4,81.7734 Q30.9938,81.5 31.6188,80.9219 L31.6188,83.6406 Z "/><text fill="#000000" font-family="sans-serif" font-size="12" lengthAdjust="spacingAndGlyphs" textLength="53" x="44.35" y="82.1543">SystemA</text><line style="stroke: #A80036; stroke-width: 1.5;" x1="7" x2="107" y1="94" y2="94"/><line style="stroke: #A80036; stroke-width: 1.5;" x1="7" x2="107" y1="102" y2="102"/><ellipse cx="17" cy="113.9023" fill="#84BE84" rx="3" ry="3" style="stroke: #038048; stroke-width: 1.0;"/><text fill="#000000" font-family="sans-serif" font-size="11" lengthAdjust="spacingAndGlyphs" textLength="76" x="26" y="116.2104">void actionA()</text><!--class SystemB--><rect fill="#FEFECE" filter="url(#f1b27ymv4odv37)" height="60.8047" id="SystemB" style="stroke: #A80036; stroke-width: 1.5;" width="103" x="143.5" y="62"/><ellipse cx="166.6" cy="78" fill="#ADD1B2" rx="11" ry="11" style="stroke: #A80036; stroke-width: 1.0;"/><path d="M169.5688,83.6406 Q168.9906,83.9375 168.35,84.0859 Q167.7094,84.2344 167.0063,84.2344 Q164.5063,84.2344 163.1859,82.5859 Q161.8656,80.9375 161.8656,77.8125 Q161.8656,74.6875 163.1859,73.0313 Q164.5063,71.375 167.0063,71.375 Q167.7094,71.375 168.3578,71.5313 Q169.0063,71.6875 169.5688,71.9844 L169.5688,74.7031 Q168.9438,74.125 168.35,73.8516 Q167.7563,73.5781 167.1313,73.5781 Q165.7875,73.5781 165.1,74.6484 Q164.4125,75.7188 164.4125,77.8125 Q164.4125,79.9063 165.1,80.9766 Q165.7875,82.0469 167.1313,82.0469 Q167.7563,82.0469 168.35,81.7734 Q168.9438,81.5 169.5688,80.9219 L169.5688,83.6406 Z "/><text fill="#000000" font-family="sans-serif" font-size="12" lengthAdjust="spacingAndGlyphs" textLength="53" x="182.4" y="82.1543">SystemB</text><line style="stroke: #A80036; stroke-width: 1.5;" x1="144.5" x2="245.5" y1="94" y2="94"/><line style="stroke: #A80036; stroke-width: 1.5;" x1="144.5" x2="245.5" y1="102" y2="102"/><ellipse cx="154.5" cy="113.9023" fill="#84BE84" rx="3" ry="3" style="stroke: #038048; stroke-width: 1.0;"/><text fill="#000000" font-family="sans-serif" font-size="11" lengthAdjust="spacingAndGlyphs" textLength="77" x="163.5" y="116.2104">void actionB()</text><!--class SystemC--><rect fill="#FEFECE" filter="url(#f1b27ymv4odv37)" height="60.8047" id="SystemC" style="stroke: #A80036; stroke-width: 1.5;" width="103" x="281.5" y="62"/><ellipse cx="304.6" cy="78" fill="#ADD1B2" rx="11" ry="11" style="stroke: #A80036; stroke-width: 1.0;"/><path d="M307.5688,83.6406 Q306.9906,83.9375 306.35,84.0859 Q305.7094,84.2344 305.0063,84.2344 Q302.5063,84.2344 301.1859,82.5859 Q299.8656,80.9375 299.8656,77.8125 Q299.8656,74.6875 301.1859,73.0313 Q302.5063,71.375 305.0063,71.375 Q305.7094,71.375 306.3578,71.5313 Q307.0063,71.6875 307.5688,71.9844 L307.5688,74.7031 Q306.9438,74.125 306.35,73.8516 Q305.7563,73.5781 305.1313,73.5781 Q303.7875,73.5781 303.1,74.6484 Q302.4125,75.7188 302.4125,77.8125 Q302.4125,79.9063 303.1,80.9766 Q303.7875,82.0469 305.1313,82.0469 Q305.7563,82.0469 306.35,81.7734 Q306.9438,81.5 307.5688,80.9219 L307.5688,83.6406 Z "/><text fill="#000000" font-family="sans-serif" font-size="12" lengthAdjust="spacingAndGlyphs" textLength="53" x="320.4" y="82.1543">SystemC</text><line style="stroke: #A80036; stroke-width: 1.5;" x1="282.5" x2="383.5" y1="94" y2="94"/><line style="stroke: #A80036; stroke-width: 1.5;" x1="282.5" x2="383.5" y1="102" y2="102"/><ellipse cx="292.5" cy="113.9023" fill="#84BE84" rx="3" ry="3" style="stroke: #038048; stroke-width: 1.0;"/><text fill="#000000" font-family="sans-serif" font-size="11" lengthAdjust="spacingAndGlyphs" textLength="77" x="301.5" y="116.2104">void actionC()</text><!--class Facade--><rect fill="#FEFECE" filter="url(#f1b27ymv4odv37)" height="60.8047" id="Facade" style="stroke: #A80036; stroke-width: 1.5;" width="105" x="419.5" y="62"/><ellipse cx="446.65" cy="78" fill="#ADD1B2" rx="11" ry="11" style="stroke: #A80036; stroke-width: 1.0;"/><path d="M449.6188,83.6406 Q449.0406,83.9375 448.4,84.0859 Q447.7594,84.2344 447.0563,84.2344 Q444.5563,84.2344 443.2359,82.5859 Q441.9156,80.9375 441.9156,77.8125 Q441.9156,74.6875 443.2359,73.0313 Q444.5563,71.375 447.0563,71.375 Q447.7594,71.375 448.4078,71.5313 Q449.0563,71.6875 449.6188,71.9844 L449.6188,74.7031 Q448.9938,74.125 448.4,73.8516 Q447.8063,73.5781 447.1813,73.5781 Q445.8375,73.5781 445.15,74.6484 Q444.4625,75.7188 444.4625,77.8125 Q444.4625,79.9063 445.15,80.9766 Q445.8375,82.0469 447.1813,82.0469 Q447.8063,82.0469 448.4,81.7734 Q448.9938,81.5 449.6188,80.9219 L449.6188,83.6406 Z "/><text fill="#000000" font-family="sans-serif" font-size="12" lengthAdjust="spacingAndGlyphs" textLength="46" x="463.35" y="82.1543">Facade</text><line style="stroke: #A80036; stroke-width: 1.5;" x1="420.5" x2="523.5" y1="94" y2="94"/><line style="stroke: #A80036; stroke-width: 1.5;" x1="420.5" x2="523.5" y1="102" y2="102"/><ellipse cx="430.5" cy="113.9023" fill="#84BE84" rx="3" ry="3" style="stroke: #038048; stroke-width: 1.0;"/><text fill="#000000" font-family="sans-serif" font-size="11" lengthAdjust="spacingAndGlyphs" textLength="79" x="439.5" y="116.2104">void operate()</text><!--link SystemA to Facade--><path d="M94.8766,58.5164 C109.1046,47.877 126.0753,37.4889 143.5,32 C245.6622,-0.182 282.2515,0.0933 384.5,32 C403.8932,38.0516 422.7756,50.0728 438.0056,61.8162 " fill="none" id="SystemA-Facade" style="stroke: #A80036; stroke-width: 1.0;"/><polygon fill="#A80036" points="90.5516,61.8212,100.1315,59.5352,94.5245,58.7854,95.2743,53.1785,90.5516,61.8212" style="stroke: #A80036; stroke-width: 1.0;"/><!--link SystemB to Facade--><path d="M232.8766,58.5164 C247.1046,47.877 264.0753,37.4889 281.5,32 C325.1627,18.2459 340.8004,18.3635 384.5,32 C403.8932,38.0516 422.7756,50.0728 438.0056,61.8162 " fill="none" id="SystemB-Facade" style="stroke: #A80036; stroke-width: 1.0;"/><polygon fill="#A80036" points="228.5516,61.8212,238.1315,59.5352,232.5245,58.7854,233.2743,53.1785,228.5516,61.8212" style="stroke: #A80036; stroke-width: 1.0;"/><!--link SystemC to Facade--><path d="M389.7522,92.5 C399.639,92.5 409.5258,92.5 419.4126,92.5 " fill="none" id="SystemC-Facade" style="stroke: #A80036; stroke-width: 1.0;"/><polygon fill="#A80036" points="384.582,92.5,393.582,96.5,389.582,92.5,393.582,88.5,384.582,92.5" style="stroke: #A80036; stroke-width: 1.0;"/><!--
@startuml
class SystemA{
+ void actionA()
}
class SystemB{
+ void actionB()
}
class SystemC{
+ void actionC()
}
class Facade{
+ void operate()
}

SystemA <- Facade
SystemB <- Facade
SystemC <- Facade
@enduml

PlantUML version 1.2018.10(Sun Aug 26 01:02:59 CST 2018)
(APACHE source distribution)
Java Runtime: Java(TM) SE Runtime Environment
JVM: Java HotSpot(TM) 64-Bit Server VM
Java Version: 1.8.0_181-b13
Operating System: Linux
OS Version: 4.15.0-43-generic
Default Encoding: UTF-8
Language: en
Country: US
--></g></svg>