<?xml version="1.0" encoding="UTF-8" standalone="no"?><svg xmlns="http://www.w3.org/2000/svg" xmlns:xlink="http://www.w3.org/1999/xlink" contentScriptType="application/ecmascript" contentStyleType="text/css" height="188px" preserveAspectRatio="none" style="width:374px;height:188px;" version="1.1" viewBox="0 0 374 188" width="374px" zoomAndPan="magnify"><defs><filter height="300%" id="fx4f62vx4wbha" width="300%" x="-1" y="-1"><feGaussianBlur result="blurOut" stdDeviation="2.0"/><feColorMatrix in="blurOut" result="blurOut2" type="matrix" values="0 0 0 0 0 0 0 0 0 0 0 0 0 0 0 0 0 0 .4 0"/><feOffset dx="4.0" dy="4.0" in="blurOut2" result="blurOut3"/><feBlend in="SourceGraphic" in2="blurOut3" mode="normal"/></filter></defs><g><!--class Product--><rect fill="#FEFECE" filter="url(#fx4f62vx4wbha)" height="48" id="Product" style="stroke: #A80036; stroke-width: 1.5;" width="81" x="34.5" y="14.5"/><ellipse cx="49.5" cy="30.5" fill="#B4A7E5" rx="11" ry="11" style="stroke: #A80036; stroke-width: 1.0;"/><path d="M45.4219,26.2656 L45.4219,24.1094 L52.8125,24.1094 L52.8125,26.2656 L50.3438,26.2656 L50.3438,34.3438 L52.8125,34.3438 L52.8125,36.5 L45.4219,36.5 L45.4219,34.3438 L47.8906,34.3438 L47.8906,26.2656 L45.4219,26.2656 Z "/><text fill="#000000" font-family="sans-serif" font-size="12" font-style="italic" lengthAdjust="spacingAndGlyphs" textLength="49" x="63.5" y="34.6543">Product</text><line style="stroke: #A80036; stroke-width: 1.5;" x1="35.5" x2="114.5" y1="46.5" y2="46.5"/><line style="stroke: #A80036; stroke-width: 1.5;" x1="35.5" x2="114.5" y1="54.5" y2="54.5"/><!--class ConcreteProduct--><rect fill="#FEFECE" filter="url(#fx4f62vx4wbha)" height="48" id="ConcreteProduct" style="stroke: #A80036; stroke-width: 1.5;" width="138" x="6" y="129"/><ellipse cx="21" cy="145" fill="#ADD1B2" rx="11" ry="11" style="stroke: #A80036; stroke-width: 1.0;"/><path d="M23.9688,150.6406 Q23.3906,150.9375 22.75,151.0859 Q22.1094,151.2344 21.4063,151.2344 Q18.9063,151.2344 17.5859,149.5859 Q16.2656,147.9375 16.2656,144.8125 Q16.2656,141.6875 17.5859,140.0313 Q18.9063,138.375 21.4063,138.375 Q22.1094,138.375 22.7578,138.5313 Q23.4063,138.6875 23.9688,138.9844 L23.9688,141.7031 Q23.3438,141.125 22.75,140.8516 Q22.1563,140.5781 21.5313,140.5781 Q20.1875,140.5781 19.5,141.6484 Q18.8125,142.7188 18.8125,144.8125 Q18.8125,146.9063 19.5,147.9766 Q20.1875,149.0469 21.5313,149.0469 Q22.1563,149.0469 22.75,148.7734 Q23.3438,148.5 23.9688,147.9219 L23.9688,150.6406 Z "/><text fill="#000000" font-family="sans-serif" font-size="12" lengthAdjust="spacingAndGlyphs" textLength="106" x="35" y="149.1543">ConcreteProduct</text><line style="stroke: #A80036; stroke-width: 1.5;" x1="7" x2="143" y1="161" y2="161"/><line style="stroke: #A80036; stroke-width: 1.5;" x1="7" x2="143" y1="169" y2="169"/><!--class ProductFactory--><rect fill="#FEFECE" filter="url(#fx4f62vx4wbha)" height="60.8047" id="ProductFactory" style="stroke: #A80036; stroke-width: 1.5;" width="127" x="207.5" y="8"/><ellipse cx="222.5" cy="24" fill="#B4A7E5" rx="11" ry="11" style="stroke: #A80036; stroke-width: 1.0;"/><path d="M218.4219,19.7656 L218.4219,17.6094 L225.8125,17.6094 L225.8125,19.7656 L223.3438,19.7656 L223.3438,27.8438 L225.8125,27.8438 L225.8125,30 L218.4219,30 L218.4219,27.8438 L220.8906,27.8438 L220.8906,19.7656 L218.4219,19.7656 Z "/><text fill="#000000" font-family="sans-serif" font-size="12" font-style="italic" lengthAdjust="spacingAndGlyphs" textLength="95" x="236.5" y="28.1543">ProductFactory</text><line style="stroke: #A80036; stroke-width: 1.5;" x1="208.5" x2="333.5" y1="40" y2="40"/><line style="stroke: #A80036; stroke-width: 1.5;" x1="208.5" x2="333.5" y1="48" y2="48"/><ellipse cx="218.5" cy="59.9023" fill="#84BE84" rx="3" ry="3" style="stroke: #038048; stroke-width: 1.0;"/><text fill="#000000" font-family="sans-serif" font-size="11" lengthAdjust="spacingAndGlyphs" textLength="91" x="227.5" y="62.2104">Product create()</text><!--class ConcreteProductFactory--><rect fill="#FEFECE" filter="url(#fx4f62vx4wbha)" height="48" id="ConcreteProductFactory" style="stroke: #A80036; stroke-width: 1.5;" width="184" x="179" y="129"/><ellipse cx="194" cy="145" fill="#ADD1B2" rx="11" ry="11" style="stroke: #A80036; stroke-width: 1.0;"/><path d="M196.9688,150.6406 Q196.3906,150.9375 195.75,151.0859 Q195.1094,151.2344 194.4063,151.2344 Q191.9063,151.2344 190.5859,149.5859 Q189.2656,147.9375 189.2656,144.8125 Q189.2656,141.6875 190.5859,140.0313 Q191.9063,138.375 194.4063,138.375 Q195.1094,138.375 195.7578,138.5313 Q196.4063,138.6875 196.9688,138.9844 L196.9688,141.7031 Q196.3438,141.125 195.75,140.8516 Q195.1563,140.5781 194.5313,140.5781 Q193.1875,140.5781 192.5,141.6484 Q191.8125,142.7188 191.8125,144.8125 Q191.8125,146.9063 192.5,147.9766 Q193.1875,149.0469 194.5313,149.0469 Q195.1563,149.0469 195.75,148.7734 Q196.3438,148.5 196.9688,147.9219 L196.9688,150.6406 Z "/><text fill="#000000" font-family="sans-serif" font-size="12" lengthAdjust="spacingAndGlyphs" textLength="152" x="208" y="149.1543">ConcreteProductFactory</text><line style="stroke: #A80036; stroke-width: 1.5;" x1="180" x2="362" y1="161" y2="161"/><line style="stroke: #A80036; stroke-width: 1.5;" x1="180" x2="362" y1="169" y2="169"/><!--link Product to ConcreteProduct--><path d="M75,82.5131 C75,98.1695 75,115.2233 75,128.6343 " fill="none" id="Product-ConcreteProduct" style="stroke: #A80036; stroke-width: 1.0; stroke-dasharray: 7.0,7.0;"/><polygon fill="none" points="68.0001,82.503,75,62.503,82.0001,82.5029,68.0001,82.503" style="stroke: #A80036; stroke-width: 1.0;"/><!--link ProductFactory to ConcreteProductFactory--><path d="M271,89.2346 C271,102.9779 271,117.2288 271,128.7634 " fill="none" id="ProductFactory-ConcreteProductFactory" style="stroke: #A80036; stroke-width: 1.0; stroke-dasharray: 7.0,7.0;"/><polygon fill="none" points="264.0001,89.1839,271,69.1839,278.0001,89.1839,264.0001,89.1839" style="stroke: #A80036; stroke-width: 1.0;"/><!--link ConcreteProduct to ConcreteProductFactory--><path d="M149.4321,153 C159.2669,153 169.1017,153 178.9366,153 " fill="none" id="ConcreteProduct-ConcreteProductFactory" style="stroke: #A80036; stroke-width: 1.0;"/><polygon fill="#A80036" points="144.2891,153,153.2891,157,149.2891,153,153.2891,149,144.2891,153" style="stroke: #A80036; stroke-width: 1.0;"/><!--
@startuml
interface Product{
}
class ConcreteProduct{
}
interface ProductFactory{
+ Product create()
}
class ConcreteProductFactory{
}
Product <|.. ConcreteProduct
ProductFactory <|.. ConcreteProductFactory
ConcreteProduct <- ConcreteProductFactory
@enduml

PlantUML version 1.2018.10(Sun Aug 26 01:02:59 CST 2018)
(APACHE source distribution)
Java Runtime: Java(TM) SE Runtime Environment
JVM: Java HotSpot(TM) 64-Bit Server VM
Java Version: 1.8.0_181-b13
Operating System: Linux
OS Version: 4.15.0-43-generic
Default Encoding: UTF-8
Language: en
Country: US
--></g></svg>