<?xml version="1.0" encoding="UTF-8" standalone="no"?><svg xmlns="http://www.w3.org/2000/svg" xmlns:xlink="http://www.w3.org/1999/xlink" contentScriptType="application/ecmascript" contentStyleType="text/css" height="213px" preserveAspectRatio="none" style="width:414px;height:213px;" version="1.1" viewBox="0 0 414 213" width="414px" zoomAndPan="magnify"><defs><filter height="300%" id="fs0g0t6tbd9qt" width="300%" x="-1" y="-1"><feGaussianBlur result="blurOut" stdDeviation="2.0"/><feColorMatrix in="blurOut" result="blurOut2" type="matrix" values="0 0 0 0 0 0 0 0 0 0 0 0 0 0 0 0 0 0 .4 0"/><feOffset dx="4.0" dy="4.0" in="blurOut2" result="blurOut3"/><feBlend in="SourceGraphic" in2="blurOut3" mode="normal"/></filter></defs><g><!--class Flyweight--><rect fill="#FEFECE" filter="url(#fs0g0t6tbd9qt)" height="60.8047" id="Flyweight" style="stroke: #A80036; stroke-width: 1.5;" width="181" x="6" y="14.5"/><ellipse cx="63.75" cy="30.5" fill="#ADD1B2" rx="11" ry="11" style="stroke: #A80036; stroke-width: 1.0;"/><path d="M66.7188,36.1406 Q66.1406,36.4375 65.5,36.5859 Q64.8594,36.7344 64.1563,36.7344 Q61.6563,36.7344 60.3359,35.0859 Q59.0156,33.4375 59.0156,30.3125 Q59.0156,27.1875 60.3359,25.5313 Q61.6563,23.875 64.1563,23.875 Q64.8594,23.875 65.5078,24.0313 Q66.1563,24.1875 66.7188,24.4844 L66.7188,27.2031 Q66.0938,26.625 65.5,26.3516 Q64.9063,26.0781 64.2813,26.0781 Q62.9375,26.0781 62.25,27.1484 Q61.5625,28.2188 61.5625,30.3125 Q61.5625,32.4063 62.25,33.4766 Q62.9375,34.5469 64.2813,34.5469 Q64.9063,34.5469 65.5,34.2734 Q66.0938,34 66.7188,33.4219 L66.7188,36.1406 Z "/><text fill="#000000" font-family="sans-serif" font-size="12" lengthAdjust="spacingAndGlyphs" textLength="57" x="84.25" y="34.6543">Flyweight</text><line style="stroke: #A80036; stroke-width: 1.5;" x1="7" x2="186" y1="46.5" y2="46.5"/><line style="stroke: #A80036; stroke-width: 1.5;" x1="7" x2="186" y1="54.5" y2="54.5"/><ellipse cx="17" cy="66.4023" fill="#84BE84" rx="3" ry="3" style="stroke: #038048; stroke-width: 1.0;"/><text fill="#000000" font-family="sans-serif" font-size="11" lengthAdjust="spacingAndGlyphs" textLength="155" x="26" y="68.7104">void operate(ExternalState)</text><!--class ConcreteFlyweight--><rect fill="#FEFECE" filter="url(#fs0g0t6tbd9qt)" height="60.8047" id="ConcreteFlyweight" style="stroke: #A80036; stroke-width: 1.5;" width="181" x="6" y="142"/><ellipse cx="36.75" cy="158" fill="#ADD1B2" rx="11" ry="11" style="stroke: #A80036; stroke-width: 1.0;"/><path d="M39.7188,163.6406 Q39.1406,163.9375 38.5,164.0859 Q37.8594,164.2344 37.1563,164.2344 Q34.6563,164.2344 33.3359,162.5859 Q32.0156,160.9375 32.0156,157.8125 Q32.0156,154.6875 33.3359,153.0313 Q34.6563,151.375 37.1563,151.375 Q37.8594,151.375 38.5078,151.5313 Q39.1563,151.6875 39.7188,151.9844 L39.7188,154.7031 Q39.0938,154.125 38.5,153.8516 Q37.9063,153.5781 37.2813,153.5781 Q35.9375,153.5781 35.25,154.6484 Q34.5625,155.7188 34.5625,157.8125 Q34.5625,159.9063 35.25,160.9766 Q35.9375,162.0469 37.2813,162.0469 Q37.9063,162.0469 38.5,161.7734 Q39.0938,161.5 39.7188,160.9219 L39.7188,163.6406 Z "/><text fill="#000000" font-family="sans-serif" font-size="12" lengthAdjust="spacingAndGlyphs" textLength="114" x="54.25" y="162.1543">ConcreteFlyweight</text><line style="stroke: #A80036; stroke-width: 1.5;" x1="7" x2="186" y1="174" y2="174"/><line style="stroke: #A80036; stroke-width: 1.5;" x1="7" x2="186" y1="182" y2="182"/><ellipse cx="17" cy="193.9023" fill="#84BE84" rx="3" ry="3" style="stroke: #038048; stroke-width: 1.0;"/><text fill="#000000" font-family="sans-serif" font-size="11" lengthAdjust="spacingAndGlyphs" textLength="155" x="26" y="196.2104">void operate(ExternalState)</text><!--class FlyweightFactory--><rect fill="#FEFECE" filter="url(#fs0g0t6tbd9qt)" height="73.6094" id="FlyweightFactory" style="stroke: #A80036; stroke-width: 1.5;" width="181" x="222" y="8"/><ellipse cx="257.7" cy="24" fill="#ADD1B2" rx="11" ry="11" style="stroke: #A80036; stroke-width: 1.0;"/><path d="M260.6688,29.6406 Q260.0906,29.9375 259.45,30.0859 Q258.8094,30.2344 258.1063,30.2344 Q255.6063,30.2344 254.2859,28.5859 Q252.9656,26.9375 252.9656,23.8125 Q252.9656,20.6875 254.2859,19.0313 Q255.6063,17.375 258.1063,17.375 Q258.8094,17.375 259.4578,17.5313 Q260.1063,17.6875 260.6688,17.9844 L260.6688,20.7031 Q260.0438,20.125 259.45,19.8516 Q258.8563,19.5781 258.2313,19.5781 Q256.8875,19.5781 256.2,20.6484 Q255.5125,21.7188 255.5125,23.8125 Q255.5125,25.9063 256.2,26.9766 Q256.8875,28.0469 258.2313,28.0469 Q258.8563,28.0469 259.45,27.7734 Q260.0438,27.5 260.6688,26.9219 L260.6688,29.6406 Z "/><text fill="#000000" font-family="sans-serif" font-size="12" lengthAdjust="spacingAndGlyphs" textLength="103" x="276.3" y="28.1543">FlyweightFactory</text><line style="stroke: #A80036; stroke-width: 1.5;" x1="223" x2="402" y1="40" y2="40"/><rect fill="none" height="6" style="stroke: #C82930; stroke-width: 1.0;" width="6" x="230" y="48.9023"/><text fill="#000000" font-family="sans-serif" font-size="11" lengthAdjust="spacingAndGlyphs" textLength="84" x="242" y="54.2104">Map flyWeights</text><line style="stroke: #A80036; stroke-width: 1.5;" x1="223" x2="402" y1="60.8047" y2="60.8047"/><ellipse cx="233" cy="72.707" fill="#84BE84" rx="3" ry="3" style="stroke: #038048; stroke-width: 1.0;"/><text fill="#000000" font-family="sans-serif" font-size="11" lengthAdjust="spacingAndGlyphs" textLength="155" x="242" y="75.0151">Flyweight get(InternalState)</text><!--link Flyweight to ConcreteFlyweight--><path d="M96.5,95.7355 C96.5,111.309 96.5,127.9647 96.5,141.7679 " fill="none" id="Flyweight-ConcreteFlyweight" style="stroke: #A80036; stroke-width: 1.0;"/><polygon fill="none" points="89.5001,95.5395,96.5,75.5394,103.5001,95.5394,89.5001,95.5395" style="stroke: #A80036; stroke-width: 1.0;"/><!--
@startuml
class Flyweight{
+ void operate(ExternalState)
}
class ConcreteFlyweight{
+ void operate(ExternalState)
}
class FlyweightFactory{
- Map flyWeights
+ Flyweight get(InternalState)
}

Flyweight <|- - ConcreteFlyweight
@enduml

PlantUML version 1.2018.10(Sun Aug 26 01:02:59 CST 2018)
(APACHE source distribution)
Java Runtime: Java(TM) SE Runtime Environment
JVM: Java HotSpot(TM) 64-Bit Server VM
Java Version: 1.8.0_181-b13
Operating System: Linux
OS Version: 4.15.0-43-generic
Default Encoding: UTF-8
Language: en
Country: US
--></g></svg>