<?xml version="1.0" encoding="UTF-8" standalone="no"?><svg xmlns="http://www.w3.org/2000/svg" xmlns:xlink="http://www.w3.org/1999/xlink" contentScriptType="application/ecmascript" contentStyleType="text/css" height="213px" preserveAspectRatio="none" style="width:437px;height:213px;" version="1.1" viewBox="0 0 437 213" width="437px" zoomAndPan="magnify"><defs><filter height="300%" id="f18h8da5xoxkmh" width="300%" x="-1" y="-1"><feGaussianBlur result="blurOut" stdDeviation="2.0"/><feColorMatrix in="blurOut" result="blurOut2" type="matrix" values="0 0 0 0 0 0 0 0 0 0 0 0 0 0 0 0 0 0 .4 0"/><feOffset dx="4.0" dy="4.0" in="blurOut2" result="blurOut3"/><feBlend in="SourceGraphic" in2="blurOut3" mode="normal"/></filter></defs><g><!--class Chart--><rect fill="#FEFECE" filter="url(#f18h8da5xoxkmh)" height="60.8047" id="Chart" style="stroke: #A80036; stroke-width: 1.5;" width="101" x="209.5" y="8"/><ellipse cx="240.25" cy="24" fill="#B4A7E5" rx="11" ry="11" style="stroke: #A80036; stroke-width: 1.0;"/><path d="M236.1719,19.7656 L236.1719,17.6094 L243.5625,17.6094 L243.5625,19.7656 L241.0938,19.7656 L241.0938,27.8438 L243.5625,27.8438 L243.5625,30 L236.1719,30 L236.1719,27.8438 L238.6406,27.8438 L238.6406,19.7656 L236.1719,19.7656 Z "/><text fill="#000000" font-family="sans-serif" font-size="12" font-style="italic" lengthAdjust="spacingAndGlyphs" textLength="34" x="257.75" y="28.1543">Chart</text><line style="stroke: #A80036; stroke-width: 1.5;" x1="210.5" x2="309.5" y1="40" y2="40"/><line style="stroke: #A80036; stroke-width: 1.5;" x1="210.5" x2="309.5" y1="48" y2="48"/><ellipse cx="220.5" cy="59.9023" fill="#84BE84" rx="3" ry="3" style="stroke: #038048; stroke-width: 1.0;"/><text fill="#000000" font-family="sans-serif" font-size="11" lengthAdjust="spacingAndGlyphs" textLength="75" x="229.5" y="62.2104">void display()</text><!--class AbstractChartDisplay--><rect fill="#FEFECE" filter="url(#f18h8da5xoxkmh)" height="73.6094" id="AbstractChartDisplay" style="stroke: #A80036; stroke-width: 1.5;" width="174" x="6" y="129"/><ellipse cx="25.95" cy="145" fill="#ADD1B2" rx="11" ry="11" style="stroke: #A80036; stroke-width: 1.0;"/><path d="M28.9188,150.6406 Q28.3406,150.9375 27.7,151.0859 Q27.0594,151.2344 26.3563,151.2344 Q23.8563,151.2344 22.5359,149.5859 Q21.2156,147.9375 21.2156,144.8125 Q21.2156,141.6875 22.5359,140.0313 Q23.8563,138.375 26.3563,138.375 Q27.0594,138.375 27.7078,138.5313 Q28.3563,138.6875 28.9188,138.9844 L28.9188,141.7031 Q28.2938,141.125 27.7,140.8516 Q27.1063,140.5781 26.4813,140.5781 Q25.1375,140.5781 24.45,141.6484 Q23.7625,142.7188 23.7625,144.8125 Q23.7625,146.9063 24.45,147.9766 Q25.1375,149.0469 26.4813,149.0469 Q27.1063,149.0469 27.7,148.7734 Q28.2938,148.5 28.9188,147.9219 L28.9188,150.6406 Z "/><text fill="#000000" font-family="sans-serif" font-size="12" lengthAdjust="spacingAndGlyphs" textLength="131" x="41.05" y="149.1543">AbstractChartDisplay</text><line style="stroke: #A80036; stroke-width: 1.5;" x1="7" x2="179" y1="161" y2="161"/><rect fill="none" height="6" style="stroke: #C82930; stroke-width: 1.0;" width="6" x="14" y="169.9023"/><text fill="#000000" font-family="sans-serif" font-size="11" lengthAdjust="spacingAndGlyphs" textLength="68" x="26" y="175.2104">chart: Chart</text><line style="stroke: #A80036; stroke-width: 1.5;" x1="7" x2="179" y1="181.8047" y2="181.8047"/><ellipse cx="17" cy="193.707" fill="#84BE84" rx="3" ry="3" style="stroke: #038048; stroke-width: 1.0;"/><text fill="#000000" font-family="sans-serif" font-size="11" lengthAdjust="spacingAndGlyphs" textLength="148" x="26" y="196.0151">void setChart(Chart chart)</text><!--class FooChart--><rect fill="#FEFECE" filter="url(#f18h8da5xoxkmh)" height="48" id="FooChart" style="stroke: #A80036; stroke-width: 1.5;" width="89" x="215.5" y="142"/><ellipse cx="230.5" cy="158" fill="#ADD1B2" rx="11" ry="11" style="stroke: #A80036; stroke-width: 1.0;"/><path d="M233.4688,163.6406 Q232.8906,163.9375 232.25,164.0859 Q231.6094,164.2344 230.9063,164.2344 Q228.4063,164.2344 227.0859,162.5859 Q225.7656,160.9375 225.7656,157.8125 Q225.7656,154.6875 227.0859,153.0313 Q228.4063,151.375 230.9063,151.375 Q231.6094,151.375 232.2578,151.5313 Q232.9063,151.6875 233.4688,151.9844 L233.4688,154.7031 Q232.8438,154.125 232.25,153.8516 Q231.6563,153.5781 231.0313,153.5781 Q229.6875,153.5781 229,154.6484 Q228.3125,155.7188 228.3125,157.8125 Q228.3125,159.9063 229,160.9766 Q229.6875,162.0469 231.0313,162.0469 Q231.6563,162.0469 232.25,161.7734 Q232.8438,161.5 233.4688,160.9219 L233.4688,163.6406 Z "/><text fill="#000000" font-family="sans-serif" font-size="12" lengthAdjust="spacingAndGlyphs" textLength="57" x="244.5" y="162.1543">FooChart</text><line style="stroke: #A80036; stroke-width: 1.5;" x1="216.5" x2="303.5" y1="174" y2="174"/><line style="stroke: #A80036; stroke-width: 1.5;" x1="216.5" x2="303.5" y1="182" y2="182"/><!--class BarChart--><rect fill="#FEFECE" filter="url(#f18h8da5xoxkmh)" height="48" id="BarChart" style="stroke: #A80036; stroke-width: 1.5;" width="87" x="339.5" y="142"/><ellipse cx="354.5" cy="158" fill="#ADD1B2" rx="11" ry="11" style="stroke: #A80036; stroke-width: 1.0;"/><path d="M357.4688,163.6406 Q356.8906,163.9375 356.25,164.0859 Q355.6094,164.2344 354.9063,164.2344 Q352.4063,164.2344 351.0859,162.5859 Q349.7656,160.9375 349.7656,157.8125 Q349.7656,154.6875 351.0859,153.0313 Q352.4063,151.375 354.9063,151.375 Q355.6094,151.375 356.2578,151.5313 Q356.9063,151.6875 357.4688,151.9844 L357.4688,154.7031 Q356.8438,154.125 356.25,153.8516 Q355.6563,153.5781 355.0313,153.5781 Q353.6875,153.5781 353,154.6484 Q352.3125,155.7188 352.3125,157.8125 Q352.3125,159.9063 353,160.9766 Q353.6875,162.0469 355.0313,162.0469 Q355.6563,162.0469 356.25,161.7734 Q356.8438,161.5 357.4688,160.9219 L357.4688,163.6406 Z "/><text fill="#000000" font-family="sans-serif" font-size="12" lengthAdjust="spacingAndGlyphs" textLength="55" x="368.5" y="162.1543">BarChart</text><line style="stroke: #A80036; stroke-width: 1.5;" x1="340.5" x2="425.5" y1="174" y2="174"/><line style="stroke: #A80036; stroke-width: 1.5;" x1="340.5" x2="425.5" y1="182" y2="182"/><!--link Chart to FooChart--><path d="M260,89.2199 C260,107.2961 260,126.8323 260,141.6746 " fill="none" id="Chart-FooChart" style="stroke: #A80036; stroke-width: 1.0; stroke-dasharray: 7.0,7.0;"/><polygon fill="none" points="253.0001,89.0395,260,69.0394,267.0001,89.0394,253.0001,89.0395" style="stroke: #A80036; stroke-width: 1.0;"/><!--link Chart to BarChart--><path d="M303.5793,83.6737 C322.4275,103.2114 343.7362,125.2997 359.5332,141.6746 " fill="none" id="Chart-BarChart" style="stroke: #A80036; stroke-width: 1.0; stroke-dasharray: 7.0,7.0;"/><polygon fill="none" points="298.3096,88.2934,289.4616,69.0394,308.3853,78.5733,298.3096,88.2934" style="stroke: #A80036; stroke-width: 1.0;"/><!--link Chart to AbstractChartDisplay--><path d="M204.051,81.2155 C183.8198,96.6615 161.1583,113.963 141.6083,128.8888 " fill="none" id="Chart-AbstractChartDisplay" style="stroke: #A80036; stroke-width: 1.0; stroke-dasharray: 7.0,7.0;"/><polygon fill="none" points="199.8549,75.6123,219.9993,69.0394,208.3505,86.7399,199.8549,75.6123" style="stroke: #A80036; stroke-width: 1.0;"/><!--
@startuml
interface Chart{
+ void display()
}
class AbstractChartDisplay{
- chart: Chart
+ void setChart(Chart chart)
}
class FooChart{
}
class BarChart{
}

Chart <|.. FooChart
Chart <|.. BarChart
Chart <|.. AbstractChartDisplay
@enduml

PlantUML version 1.2018.10(Sun Aug 26 01:02:59 CST 2018)
(APACHE source distribution)
Java Runtime: Java(TM) SE Runtime Environment
JVM: Java HotSpot(TM) 64-Bit Server VM
Java Version: 1.8.0_181-b13
Operating System: Linux
OS Version: 4.15.0-43-generic
Default Encoding: UTF-8
Language: en
Country: US
--></g></svg>