<?xml version="1.0" encoding="UTF-8" standalone="no"?><svg xmlns="http://www.w3.org/2000/svg" xmlns:xlink="http://www.w3.org/1999/xlink" contentScriptType="application/ecmascript" contentStyleType="text/css" height="79px" preserveAspectRatio="none" style="width:139px;height:79px;" version="1.1" viewBox="0 0 139 79" width="139px" zoomAndPan="magnify"><defs><filter height="300%" id="f16bpww26tx4lg" width="300%" x="-1" y="-1"><feGaussianBlur result="blurOut" stdDeviation="2.0"/><feColorMatrix in="blurOut" result="blurOut2" type="matrix" values="0 0 0 0 0 0 0 0 0 0 0 0 0 0 0 0 0 0 .4 0"/><feOffset dx="4.0" dy="4.0" in="blurOut2" result="blurOut3"/><feBlend in="SourceGraphic" in2="blurOut3" mode="normal"/></filter></defs><g><!--class Prototype--><rect fill="#FEFECE" filter="url(#f16bpww26tx4lg)" height="60.8047" id="Prototype" style="stroke: #A80036; stroke-width: 1.5;" width="122" x="6" y="8"/><ellipse cx="34.05" cy="24" fill="#ADD1B2" rx="11" ry="11" style="stroke: #A80036; stroke-width: 1.0;"/><path d="M37.0188,29.6406 Q36.4406,29.9375 35.8,30.0859 Q35.1594,30.2344 34.4563,30.2344 Q31.9562,30.2344 30.6359,28.5859 Q29.3156,26.9375 29.3156,23.8125 Q29.3156,20.6875 30.6359,19.0313 Q31.9562,17.375 34.4563,17.375 Q35.1594,17.375 35.8078,17.5313 Q36.4563,17.6875 37.0188,17.9844 L37.0188,20.7031 Q36.3938,20.125 35.8,19.8516 Q35.2063,19.5781 34.5813,19.5781 Q33.2375,19.5781 32.55,20.6484 Q31.8625,21.7188 31.8625,23.8125 Q31.8625,25.9063 32.55,26.9766 Q33.2375,28.0469 34.5813,28.0469 Q35.2063,28.0469 35.8,27.7734 Q36.3938,27.5 37.0188,26.9219 L37.0188,29.6406 Z "/><text fill="#000000" font-family="sans-serif" font-size="12" lengthAdjust="spacingAndGlyphs" textLength="61" x="50.95" y="28.1543">Prototype</text><line style="stroke: #A80036; stroke-width: 1.5;" x1="7" x2="127" y1="40" y2="40"/><line style="stroke: #A80036; stroke-width: 1.5;" x1="7" x2="127" y1="48" y2="48"/><ellipse cx="17" cy="59.9023" fill="#84BE84" rx="3" ry="3" style="stroke: #038048; stroke-width: 1.0;"/><text fill="#000000" font-family="sans-serif" font-size="11" lengthAdjust="spacingAndGlyphs" textLength="96" x="26" y="62.2104">Prototype clone()</text><!--
@startuml
class Prototype{
+ Prototype clone()
}
@enduml

PlantUML version 1.2018.10(Sun Aug 26 01:02:59 CST 2018)
(APACHE source distribution)
Java Runtime: Java(TM) SE Runtime Environment
JVM: Java HotSpot(TM) 64-Bit Server VM
Java Version: 1.8.0_181-b13
Operating System: Linux
OS Version: 4.15.0-43-generic
Default Encoding: UTF-8
Language: en
Country: US
--></g></svg>