<?xml version="1.0" encoding="UTF-8" standalone="no"?><svg xmlns="http://www.w3.org/2000/svg" xmlns:xlink="http://www.w3.org/1999/xlink" contentScriptType="application/ecmascript" contentStyleType="text/css" height="200px" preserveAspectRatio="none" style="width:337px;height:200px;" version="1.1" viewBox="0 0 337 200" width="337px" zoomAndPan="magnify"><defs><filter height="300%" id="f13s4619m5jj3m" width="300%" x="-1" y="-1"><feGaussianBlur result="blurOut" stdDeviation="2.0"/><feColorMatrix in="blurOut" result="blurOut2" type="matrix" values="0 0 0 0 0 0 0 0 0 0 0 0 0 0 0 0 0 0 .4 0"/><feOffset dx="4.0" dy="4.0" in="blurOut2" result="blurOut3"/><feBlend in="SourceGraphic" in2="blurOut3" mode="normal"/></filter></defs><g><!--class Subject--><rect fill="#FEFECE" filter="url(#f13s4619m5jj3m)" height="60.8047" id="Subject" style="stroke: #A80036; stroke-width: 1.5;" width="105" x="110.5" y="8"/><ellipse cx="137.2" cy="24" fill="#B4A7E5" rx="11" ry="11" style="stroke: #A80036; stroke-width: 1.0;"/><path d="M133.1219,19.7656 L133.1219,17.6094 L140.5125,17.6094 L140.5125,19.7656 L138.0438,19.7656 L138.0438,27.8438 L140.5125,27.8438 L140.5125,30 L133.1219,30 L133.1219,27.8438 L135.5906,27.8438 L135.5906,19.7656 L133.1219,19.7656 Z "/><text fill="#000000" font-family="sans-serif" font-size="12" font-style="italic" lengthAdjust="spacingAndGlyphs" textLength="47" x="153.8" y="28.1543">Subject</text><line style="stroke: #A80036; stroke-width: 1.5;" x1="111.5" x2="214.5" y1="40" y2="40"/><line style="stroke: #A80036; stroke-width: 1.5;" x1="111.5" x2="214.5" y1="48" y2="48"/><ellipse cx="121.5" cy="59.9023" fill="#84BE84" rx="3" ry="3" style="stroke: #038048; stroke-width: 1.0;"/><text fill="#000000" font-family="sans-serif" font-size="11" lengthAdjust="spacingAndGlyphs" textLength="79" x="130.5" y="62.2104">void request()</text><!--class ConcreteSubject--><rect fill="#FEFECE" filter="url(#f13s4619m5jj3m)" height="60.8047" id="ConcreteSubject" style="stroke: #A80036; stroke-width: 1.5;" width="136" x="6" y="129"/><ellipse cx="21" cy="145" fill="#ADD1B2" rx="11" ry="11" style="stroke: #A80036; stroke-width: 1.0;"/><path d="M23.9688,150.6406 Q23.3906,150.9375 22.75,151.0859 Q22.1094,151.2344 21.4063,151.2344 Q18.9063,151.2344 17.5859,149.5859 Q16.2656,147.9375 16.2656,144.8125 Q16.2656,141.6875 17.5859,140.0313 Q18.9063,138.375 21.4063,138.375 Q22.1094,138.375 22.7578,138.5313 Q23.4063,138.6875 23.9688,138.9844 L23.9688,141.7031 Q23.3438,141.125 22.75,140.8516 Q22.1563,140.5781 21.5313,140.5781 Q20.1875,140.5781 19.5,141.6484 Q18.8125,142.7188 18.8125,144.8125 Q18.8125,146.9063 19.5,147.9766 Q20.1875,149.0469 21.5313,149.0469 Q22.1563,149.0469 22.75,148.7734 Q23.3438,148.5 23.9688,147.9219 L23.9688,150.6406 Z "/><text fill="#000000" font-family="sans-serif" font-size="12" lengthAdjust="spacingAndGlyphs" textLength="104" x="35" y="149.1543">ConcreteSubject</text><line style="stroke: #A80036; stroke-width: 1.5;" x1="7" x2="141" y1="161" y2="161"/><line style="stroke: #A80036; stroke-width: 1.5;" x1="7" x2="141" y1="169" y2="169"/><ellipse cx="17" cy="180.9023" fill="#84BE84" rx="3" ry="3" style="stroke: #038048; stroke-width: 1.0;"/><text fill="#000000" font-family="sans-serif" font-size="11" lengthAdjust="spacingAndGlyphs" textLength="79" x="26" y="183.2104">void request()</text><!--class ProxyObject--><rect fill="#FEFECE" filter="url(#f13s4619m5jj3m)" height="60.8047" id="ProxyObject" style="stroke: #A80036; stroke-width: 1.5;" width="149" x="177.5" y="129"/><ellipse cx="212.3" cy="145" fill="#ADD1B2" rx="11" ry="11" style="stroke: #A80036; stroke-width: 1.0;"/><path d="M215.2688,150.6406 Q214.6906,150.9375 214.05,151.0859 Q213.4094,151.2344 212.7063,151.2344 Q210.2063,151.2344 208.8859,149.5859 Q207.5656,147.9375 207.5656,144.8125 Q207.5656,141.6875 208.8859,140.0313 Q210.2063,138.375 212.7063,138.375 Q213.4094,138.375 214.0578,138.5313 Q214.7063,138.6875 215.2688,138.9844 L215.2688,141.7031 Q214.6438,141.125 214.05,140.8516 Q213.4563,140.5781 212.8313,140.5781 Q211.4875,140.5781 210.8,141.6484 Q210.1125,142.7188 210.1125,144.8125 Q210.1125,146.9063 210.8,147.9766 Q211.4875,149.0469 212.8313,149.0469 Q213.4563,149.0469 214.05,148.7734 Q214.6438,148.5 215.2688,147.9219 L215.2688,150.6406 Z "/><text fill="#000000" font-family="sans-serif" font-size="12" lengthAdjust="spacingAndGlyphs" textLength="73" x="230.7" y="149.1543">ProxyObject</text><line style="stroke: #A80036; stroke-width: 1.5;" x1="178.5" x2="325.5" y1="161" y2="161"/><line style="stroke: #A80036; stroke-width: 1.5;" x1="178.5" x2="325.5" y1="169" y2="169"/><ellipse cx="188.5" cy="180.9023" fill="#84BE84" rx="3" ry="3" style="stroke: #038048; stroke-width: 1.0;"/><text fill="#000000" font-family="sans-serif" font-size="11" lengthAdjust="spacingAndGlyphs" textLength="123" x="197.5" y="183.2104">void customRequest()</text><!--link Subject to ConcreteSubject--><path d="M128.4607,85.458 C117.7127,100.0704 106.1475,115.7938 96.4513,128.9764 " fill="none" id="Subject-ConcreteSubject" style="stroke: #A80036; stroke-width: 1.0; stroke-dasharray: 7.0,7.0;"/><polygon fill="none" points="123.0522,80.9969,140.5415,69.0334,134.3301,89.2922,123.0522,80.9969" style="stroke: #A80036; stroke-width: 1.0;"/><!--link Subject to ProxyObject--><path d="M197.5393,85.458 C208.2873,100.0704 219.8525,115.7938 229.5487,128.9764 " fill="none" id="Subject-ProxyObject" style="stroke: #A80036; stroke-width: 1.0; stroke-dasharray: 7.0,7.0;"/><polygon fill="none" points="191.6699,89.2922,185.4585,69.0334,202.9478,80.9969,191.6699,89.2922" style="stroke: #A80036; stroke-width: 1.0;"/><!--link ConcreteSubject to ProxyObject--><path d="M147.364,159.5 C157.3527,159.5 167.3413,159.5 177.33,159.5 " fill="none" id="ConcreteSubject-ProxyObject" style="stroke: #A80036; stroke-width: 1.0;"/><polygon fill="#A80036" points="142.1406,159.5,151.1406,163.5,147.1406,159.5,151.1406,155.5,142.1406,159.5" style="stroke: #A80036; stroke-width: 1.0;"/><!--
@startuml
interface Subject{
+ void request()
}
class ConcreteSubject{
+ void request()
}
class ProxyObject{
+ void customRequest()
}
Subject <|.. ConcreteSubject
Subject <|.. ProxyObject
ConcreteSubject <- ProxyObject
@enduml

PlantUML version 1.2018.10(Sun Aug 26 01:02:59 CST 2018)
(APACHE source distribution)
Java Runtime: Java(TM) SE Runtime Environment
JVM: Java HotSpot(TM) 64-Bit Server VM
Java Version: 1.8.0_181-b13
Operating System: Linux
OS Version: 4.15.0-43-generic
Default Encoding: UTF-8
Language: en
Country: US
--></g></svg>