<?xml version="1.0" encoding="UTF-8" standalone="no"?><svg xmlns="http://www.w3.org/2000/svg" xmlns:xlink="http://www.w3.org/1999/xlink" contentScriptType="application/ecmascript" contentStyleType="text/css" height="226px" preserveAspectRatio="none" style="width:369px;height:226px;" version="1.1" viewBox="0 0 369 226" width="369px" zoomAndPan="magnify"><defs><filter height="300%" id="foof807eiluys" width="300%" x="-1" y="-1"><feGaussianBlur result="blurOut" stdDeviation="2.0"/><feColorMatrix in="blurOut" result="blurOut2" type="matrix" values="0 0 0 0 0 0 0 0 0 0 0 0 0 0 0 0 0 0 .4 0"/><feOffset dx="4.0" dy="4.0" in="blurOut2" result="blurOut3"/><feBlend in="SourceGraphic" in2="blurOut3" mode="normal"/></filter></defs><g><!--class Implementor--><rect fill="#FEFECE" filter="url(#foof807eiluys)" height="60.9551" id="Implementor" style="stroke: #A80036; stroke-width: 1.5;" width="105" x="253.5" y="21"/><ellipse cx="268.5" cy="37" fill="#ADD1B2" rx="11" ry="11" style="stroke: #A80036; stroke-width: 1.0;"/><path d="M270.9731,43.1431 Q270.3921,43.4419 269.7529,43.5913 Q269.1138,43.7407 268.4082,43.7407 Q265.9014,43.7407 264.5815,42.0889 Q263.2617,40.437 263.2617,37.3159 Q263.2617,34.1865 264.5815,32.5347 Q265.9014,30.8828 268.4082,30.8828 Q269.1138,30.8828 269.7612,31.0322 Q270.4087,31.1816 270.9731,31.4805 L270.9731,34.2031 Q270.3423,33.6221 269.7488,33.3523 Q269.1553,33.0825 268.5244,33.0825 Q267.1797,33.0825 266.4949,34.1492 Q265.8101,35.2158 265.8101,37.3159 Q265.8101,39.4077 266.4949,40.4744 Q267.1797,41.541 268.5244,41.541 Q269.1553,41.541 269.7488,41.2712 Q270.3423,41.0015 270.9731,40.4204 Z "/><text fill="#000000" font-family="sans-serif" font-size="12" lengthAdjust="spacingAndGlyphs" textLength="73" x="282.5" y="41.5352">Implementor</text><line style="stroke: #A80036; stroke-width: 1.5;" x1="254.5" x2="357.5" y1="53" y2="53"/><line style="stroke: #A80036; stroke-width: 1.5;" x1="254.5" x2="357.5" y1="61" y2="61"/><ellipse cx="264.5" cy="72.9775" fill="#84BE84" rx="3" ry="3" style="stroke: #038048; stroke-width: 1.0;"/><text fill="#000000" font-family="sans-serif" font-size="11" lengthAdjust="spacingAndGlyphs" textLength="75" x="273.5" y="75.6348">void operate()</text><!--class Abstraction--><rect fill="#FEFECE" filter="url(#foof807eiluys)" height="86.8652" id="Abstraction" style="stroke: #A80036; stroke-width: 1.5;" width="212" x="6" y="8"/><ellipse cx="75.25" cy="24" fill="#ADD1B2" rx="11" ry="11" style="stroke: #A80036; stroke-width: 1.0;"/><path d="M77.7231,30.1431 Q77.1421,30.4419 76.5029,30.5913 Q75.8638,30.7407 75.1582,30.7407 Q72.6514,30.7407 71.3315,29.0889 Q70.0117,27.437 70.0117,24.3159 Q70.0117,21.1865 71.3315,19.5347 Q72.6514,17.8828 75.1582,17.8828 Q75.8638,17.8828 76.5112,18.0322 Q77.1587,18.1816 77.7231,18.4805 L77.7231,21.2031 Q77.0923,20.6221 76.4988,20.3523 Q75.9053,20.0825 75.2744,20.0825 Q73.9297,20.0825 73.2449,21.1492 Q72.5601,22.2158 72.5601,24.3159 Q72.5601,26.4077 73.2449,27.4744 Q73.9297,28.541 75.2744,28.541 Q75.9053,28.541 76.4988,28.2712 Q77.0923,28.0015 77.7231,27.4204 Z "/><text fill="#000000" font-family="sans-serif" font-size="12" lengthAdjust="spacingAndGlyphs" textLength="65" x="95.75" y="28.5352">Abstraction</text><line style="stroke: #A80036; stroke-width: 1.5;" x1="7" x2="217" y1="40" y2="40"/><rect fill="none" height="6" style="stroke: #C82930; stroke-width: 1.0;" width="6" x="14" y="48.9775"/><text fill="#000000" font-family="sans-serif" font-size="11" lengthAdjust="spacingAndGlyphs" textLength="94" x="26" y="54.6348">Implementor impl</text><line style="stroke: #A80036; stroke-width: 1.5;" x1="7" x2="217" y1="60.9551" y2="60.9551"/><ellipse cx="17" cy="72.9326" fill="#84BE84" rx="3" ry="3" style="stroke: #038048; stroke-width: 1.0;"/><text fill="#000000" font-family="sans-serif" font-size="11" lengthAdjust="spacingAndGlyphs" textLength="186" x="26" y="75.5898">void setImplementor(Implementor)</text><ellipse cx="17" cy="85.8877" fill="#84BE84" rx="3" ry="3" style="stroke: #038048; stroke-width: 1.0;"/><text fill="#000000" font-family="sans-serif" font-size="11" lengthAdjust="spacingAndGlyphs" textLength="99" x="26" y="88.5449">abstract void call()</text><!--class AbstractionA--><rect fill="#FEFECE" filter="url(#foof807eiluys)" height="60.9551" id="AbstractionA" style="stroke: #A80036; stroke-width: 1.5;" width="105" x="59.5" y="155"/><ellipse cx="74.5" cy="171" fill="#ADD1B2" rx="11" ry="11" style="stroke: #A80036; stroke-width: 1.0;"/><path d="M76.9731,177.1431 Q76.3921,177.4419 75.7529,177.5913 Q75.1138,177.7407 74.4082,177.7407 Q71.9014,177.7407 70.5815,176.0889 Q69.2617,174.437 69.2617,171.3159 Q69.2617,168.1865 70.5815,166.5347 Q71.9014,164.8828 74.4082,164.8828 Q75.1138,164.8828 75.7612,165.0322 Q76.4087,165.1816 76.9731,165.4805 L76.9731,168.2031 Q76.3423,167.6221 75.7488,167.3523 Q75.1553,167.0825 74.5244,167.0825 Q73.1797,167.0825 72.4949,168.1492 Q71.8101,169.2158 71.8101,171.3159 Q71.8101,173.4077 72.4949,174.4744 Q73.1797,175.541 74.5244,175.541 Q75.1553,175.541 75.7488,175.2712 Q76.3423,175.0015 76.9731,174.4204 Z "/><text fill="#000000" font-family="sans-serif" font-size="12" lengthAdjust="spacingAndGlyphs" textLength="73" x="88.5" y="175.5352">AbstractionA</text><line style="stroke: #A80036; stroke-width: 1.5;" x1="60.5" x2="163.5" y1="187" y2="187"/><line style="stroke: #A80036; stroke-width: 1.5;" x1="60.5" x2="163.5" y1="195" y2="195"/><ellipse cx="70.5" cy="206.9775" fill="#84BE84" rx="3" ry="3" style="stroke: #038048; stroke-width: 1.0;"/><text fill="#000000" font-family="sans-serif" font-size="11" lengthAdjust="spacingAndGlyphs" textLength="52" x="79.5" y="209.6348">void call()</text><!--link Abstraction to AbstractionA--><path d="M112,115.4569 C112,129.2177 112,143.1501 112,154.9257 " fill="none" id="Abstraction-AbstractionA" style="stroke: #A80036; stroke-width: 1.0;"/><polygon fill="none" points="105.0001,115.006,112,95.006,119.0001,115.0059,105.0001,115.006" style="stroke: #A80036; stroke-width: 1.0;"/><!--link Abstraction to Implementor--><path d="M218.0938,51.5 C228.1333,51.5 238.1728,51.5 248.2123,51.5 " fill="none" id="Abstraction-Implementor" style="stroke: #A80036; stroke-width: 1.0;"/><polygon fill="#A80036" points="253.4623,51.5,244.4623,47.5,248.4623,51.5,244.4623,55.5,253.4623,51.5" style="stroke: #A80036; stroke-width: 1.0;"/><!--
@startuml
class Implementor{
+ void operate()
}

class Abstraction{
- Implementor impl
+ void setImplementor(Implementor)
+ abstract void call()
}

class AbstractionA{
+ void call()
}

Abstraction <|- - AbstractionA
Abstraction -> Implementor
@enduml

PlantUML version 1.2018.10(Sun Aug 26 01:02:59 CST 2018)
(APACHE source distribution)
Java Runtime: OpenJDK Runtime Environment
JVM: OpenJDK 64-Bit Server VM
Java Version: 12+33
Operating System: Mac OS X
OS Version: 10.14.4
Default Encoding: UTF-8
Language: zh
Country: CN
--></g></svg>