<?xml version="1.0" encoding="UTF-8" standalone="no"?><svg xmlns="http://www.w3.org/2000/svg" xmlns:xlink="http://www.w3.org/1999/xlink" contentScriptType="application/ecmascript" contentStyleType="text/css" height="133px" preserveAspectRatio="none" style="width:524px;height:133px;" version="1.1" viewBox="0 0 524 133" width="524px" zoomAndPan="magnify"><defs><filter height="300%" id="f1b27ymv4odv37" width="300%" x="-1" y="-1"><feGaussianBlur result="blurOut" stdDeviation="2.0"/><feColorMatrix in="blurOut" result="blurOut2" type="matrix" values="0 0 0 0 0 0 0 0 0 0 0 0 0 0 0 0 0 0 .4 0"/><feOffset dx="4.0" dy="4.0" in="blurOut2" result="blurOut3"/><feBlend in="SourceGraphic" in2="blurOut3" mode="normal"/></filter></defs><g><!--class SystemA--><rect fill="#FEFECE" filter="url(#f1b27ymv4odv37)" height="60.9551" id="SystemA" style="stroke: #A80036; stroke-width: 1.5;" width="101" x="6" y="62"/><ellipse cx="30.45" cy="78" fill="#ADD1B2" rx="11" ry="11" style="stroke: #A80036; stroke-width: 1.0;"/><path d="M32.9231,84.1431 Q32.3421,84.4419 31.7029,84.5913 Q31.0638,84.7407 30.3582,84.7407 Q27.8514,84.7407 26.5315,83.0889 Q25.2117,81.437 25.2117,78.3159 Q25.2117,75.1865 26.5315,73.5347 Q27.8514,71.8828 30.3582,71.8828 Q31.0638,71.8828 31.7112,72.0322 Q32.3587,72.1816 32.9231,72.4805 L32.9231,75.2031 Q32.2923,74.6221 31.6988,74.3523 Q31.1053,74.0825 30.4744,74.0825 Q29.1297,74.0825 28.4449,75.1492 Q27.7601,76.2158 27.7601,78.3159 Q27.7601,80.4077 28.4449,81.4744 Q29.1297,82.541 30.4744,82.541 Q31.1053,82.541 31.6988,82.2712 Q32.2923,82.0015 32.9231,81.4204 Z "/><text fill="#000000" font-family="sans-serif" font-size="12" lengthAdjust="spacingAndGlyphs" textLength="48" x="46.55" y="82.5352">SystemA</text><line style="stroke: #A80036; stroke-width: 1.5;" x1="7" x2="106" y1="94" y2="94"/><line style="stroke: #A80036; stroke-width: 1.5;" x1="7" x2="106" y1="102" y2="102"/><ellipse cx="17" cy="113.9775" fill="#84BE84" rx="3" ry="3" style="stroke: #038048; stroke-width: 1.0;"/><text fill="#000000" font-family="sans-serif" font-size="11" lengthAdjust="spacingAndGlyphs" textLength="75" x="26" y="116.6348">void actionA()</text><!--class SystemB--><rect fill="#FEFECE" filter="url(#f1b27ymv4odv37)" height="60.9551" id="SystemB" style="stroke: #A80036; stroke-width: 1.5;" width="99" x="142" y="62"/><ellipse cx="166" cy="78" fill="#ADD1B2" rx="11" ry="11" style="stroke: #A80036; stroke-width: 1.0;"/><path d="M168.4731,84.1431 Q167.8921,84.4419 167.2529,84.5913 Q166.6138,84.7407 165.9082,84.7407 Q163.4014,84.7407 162.0815,83.0889 Q160.7617,81.437 160.7617,78.3159 Q160.7617,75.1865 162.0815,73.5347 Q163.4014,71.8828 165.9082,71.8828 Q166.6138,71.8828 167.2612,72.0322 Q167.9087,72.1816 168.4731,72.4805 L168.4731,75.2031 Q167.8423,74.6221 167.2488,74.3523 Q166.6553,74.0825 166.0244,74.0825 Q164.6797,74.0825 163.9949,75.1492 Q163.3101,76.2158 163.3101,78.3159 Q163.3101,80.4077 163.9949,81.4744 Q164.6797,82.541 166.0244,82.541 Q166.6553,82.541 167.2488,82.2712 Q167.8423,82.0015 168.4731,81.4204 Z "/><text fill="#000000" font-family="sans-serif" font-size="12" lengthAdjust="spacingAndGlyphs" textLength="47" x="182" y="82.5352">SystemB</text><line style="stroke: #A80036; stroke-width: 1.5;" x1="143" x2="240" y1="94" y2="94"/><line style="stroke: #A80036; stroke-width: 1.5;" x1="143" x2="240" y1="102" y2="102"/><ellipse cx="153" cy="113.9775" fill="#84BE84" rx="3" ry="3" style="stroke: #038048; stroke-width: 1.0;"/><text fill="#000000" font-family="sans-serif" font-size="11" lengthAdjust="spacingAndGlyphs" textLength="73" x="162" y="116.6348">void actionB()</text><!--class SystemC--><rect fill="#FEFECE" filter="url(#f1b27ymv4odv37)" height="60.9551" id="SystemC" style="stroke: #A80036; stroke-width: 1.5;" width="101" x="276" y="62"/><ellipse cx="300.45" cy="78" fill="#ADD1B2" rx="11" ry="11" style="stroke: #A80036; stroke-width: 1.0;"/><path d="M302.9231,84.1431 Q302.3421,84.4419 301.7029,84.5913 Q301.0638,84.7407 300.3582,84.7407 Q297.8514,84.7407 296.5315,83.0889 Q295.2117,81.437 295.2117,78.3159 Q295.2117,75.1865 296.5315,73.5347 Q297.8514,71.8828 300.3582,71.8828 Q301.0638,71.8828 301.7112,72.0322 Q302.3587,72.1816 302.9231,72.4805 L302.9231,75.2031 Q302.2923,74.6221 301.6988,74.3523 Q301.1053,74.0825 300.4744,74.0825 Q299.1297,74.0825 298.4449,75.1492 Q297.7601,76.2158 297.7601,78.3159 Q297.7601,80.4077 298.4449,81.4744 Q299.1297,82.541 300.4744,82.541 Q301.1053,82.541 301.6988,82.2712 Q302.2923,82.0015 302.9231,81.4204 Z "/><text fill="#000000" font-family="sans-serif" font-size="12" lengthAdjust="spacingAndGlyphs" textLength="48" x="316.55" y="82.5352">SystemC</text><line style="stroke: #A80036; stroke-width: 1.5;" x1="277" x2="376" y1="94" y2="94"/><line style="stroke: #A80036; stroke-width: 1.5;" x1="277" x2="376" y1="102" y2="102"/><ellipse cx="287" cy="113.9775" fill="#84BE84" rx="3" ry="3" style="stroke: #038048; stroke-width: 1.0;"/><text fill="#000000" font-family="sans-serif" font-size="11" lengthAdjust="spacingAndGlyphs" textLength="75" x="296" y="116.6348">void actionC()</text><!--class Facade--><rect fill="#FEFECE" filter="url(#f1b27ymv4odv37)" height="60.9551" id="Facade" style="stroke: #A80036; stroke-width: 1.5;" width="101" x="412" y="62"/><ellipse cx="439.6" cy="78" fill="#ADD1B2" rx="11" ry="11" style="stroke: #A80036; stroke-width: 1.0;"/><path d="M442.0731,84.1431 Q441.4921,84.4419 440.8529,84.5913 Q440.2138,84.7407 439.5082,84.7407 Q437.0014,84.7407 435.6815,83.0889 Q434.3617,81.437 434.3617,78.3159 Q434.3617,75.1865 435.6815,73.5347 Q437.0014,71.8828 439.5082,71.8828 Q440.2138,71.8828 440.8612,72.0322 Q441.5087,72.1816 442.0731,72.4805 L442.0731,75.2031 Q441.4423,74.6221 440.8488,74.3523 Q440.2553,74.0825 439.6244,74.0825 Q438.2797,74.0825 437.5949,75.1492 Q436.9101,76.2158 436.9101,78.3159 Q436.9101,80.4077 437.5949,81.4744 Q438.2797,82.541 439.6244,82.541 Q440.2553,82.541 440.8488,82.2712 Q441.4423,82.0015 442.0731,81.4204 Z "/><text fill="#000000" font-family="sans-serif" font-size="12" lengthAdjust="spacingAndGlyphs" textLength="41" x="456.4" y="82.5352">Facade</text><line style="stroke: #A80036; stroke-width: 1.5;" x1="413" x2="512" y1="94" y2="94"/><line style="stroke: #A80036; stroke-width: 1.5;" x1="413" x2="512" y1="102" y2="102"/><ellipse cx="423" cy="113.9775" fill="#84BE84" rx="3" ry="3" style="stroke: #038048; stroke-width: 1.0;"/><text fill="#000000" font-family="sans-serif" font-size="11" lengthAdjust="spacingAndGlyphs" textLength="75" x="432" y="116.6348">void operate()</text><!--link SystemA to Facade--><path d="M93.8811,58.5217 C107.9394,47.8828 124.7253,37.4937 142,32 C241.5325,0.3468 277.4675,0.3468 377,32 C396.0618,38.062 414.5283,50.0847 429.3917,61.8263 " fill="none" id="SystemA-Facade" style="stroke: #A80036; stroke-width: 1.0;"/><polygon fill="#A80036" points="89.6083,61.8263,99.1746,59.4842,93.5634,58.7673,94.2803,53.1561,89.6083,61.8263" style="stroke: #A80036; stroke-width: 1.0;"/><!--link SystemB to Facade--><path d="M228.3852,58.5272 C242.2737,47.8888 258.8749,37.4986 276,32 C318.7398,18.277 334.2222,18.3958 377,32 C396.0618,38.062 414.5283,50.0847 429.3917,61.8263 " fill="none" id="SystemB-Facade" style="stroke: #A80036; stroke-width: 1.0;"/><polygon fill="#A80036" points="224.1645,61.8316,233.7168,59.4331,228.1015,58.7493,228.7852,53.134,224.1645,61.8316" style="stroke: #A80036; stroke-width: 1.0;"/><!--link SystemC to Facade--><path d="M382.3761,92.5 C392.2086,92.5 402.0411,92.5 411.8735,92.5 " fill="none" id="SystemC-Facade" style="stroke: #A80036; stroke-width: 1.0;"/><polygon fill="#A80036" points="377.2344,92.5,386.2344,96.5,382.2344,92.5,386.2344,88.5,377.2344,92.5" style="stroke: #A80036; stroke-width: 1.0;"/><!--
@startuml
class SystemA{
+ void actionA()
}
class SystemB{
+ void actionB()
}
class SystemC{
+ void actionC()
}
class Facade{
+ void operate()
}

SystemA <- Facade
SystemB <- Facade
SystemC <- Facade
@enduml

PlantUML version 1.2018.10(Sun Aug 26 01:02:59 CST 2018)
(APACHE source distribution)
Java Runtime: OpenJDK Runtime Environment
JVM: OpenJDK 64-Bit Server VM
Java Version: 12+33
Operating System: Mac OS X
OS Version: 10.14.4
Default Encoding: UTF-8
Language: zh
Country: CN
--></g></svg>