<?xml version="1.0" encoding="UTF-8" standalone="no"?><svg xmlns="http://www.w3.org/2000/svg" xmlns:xlink="http://www.w3.org/1999/xlink" contentScriptType="application/ecmascript" contentStyleType="text/css" height="213px" preserveAspectRatio="none" style="width:325px;height:213px;" version="1.1" viewBox="0 0 325 213" width="325px" zoomAndPan="magnify"><defs><filter height="300%" id="fhfru3yk0hzri" width="300%" x="-1" y="-1"><feGaussianBlur result="blurOut" stdDeviation="2.0"/><feColorMatrix in="blurOut" result="blurOut2" type="matrix" values="0 0 0 0 0 0 0 0 0 0 0 0 0 0 0 0 0 0 .4 0"/><feOffset dx="4.0" dy="4.0" in="blurOut2" result="blurOut3"/><feBlend in="SourceGraphic" in2="blurOut3" mode="normal"/></filter></defs><g><!--class Handler--><rect fill="#FEFECE" filter="url(#fhfru3yk0hzri)" height="73.9102" id="Handler" style="stroke: #A80036; stroke-width: 1.5;" width="129" x="96" y="8"/><ellipse cx="133.95" cy="24" fill="#ADD1B2" rx="11" ry="11" style="stroke: #A80036; stroke-width: 1.0;"/><path d="M136.4231,30.1431 Q135.8421,30.4419 135.2029,30.5913 Q134.5638,30.7407 133.8582,30.7407 Q131.3514,30.7407 130.0315,29.0889 Q128.7117,27.437 128.7117,24.3159 Q128.7117,21.1865 130.0315,19.5347 Q131.3514,17.8828 133.8582,17.8828 Q134.5638,17.8828 135.2112,18.0322 Q135.8587,18.1816 136.4231,18.4805 L136.4231,21.2031 Q135.7923,20.6221 135.1988,20.3523 Q134.6053,20.0825 133.9744,20.0825 Q132.6297,20.0825 131.9449,21.1492 Q131.2601,22.2158 131.2601,24.3159 Q131.2601,26.4077 131.9449,27.4744 Q132.6297,28.541 133.9744,28.541 Q134.6053,28.541 135.1988,28.2712 Q135.7923,28.0015 136.4231,27.4204 Z "/><text fill="#000000" font-family="sans-serif" font-size="12" lengthAdjust="spacingAndGlyphs" textLength="46" x="153.05" y="28.5352">Handler</text><line style="stroke: #A80036; stroke-width: 1.5;" x1="97" x2="224" y1="40" y2="40"/><rect fill="none" height="6" style="stroke: #C82930; stroke-width: 1.0;" width="6" x="104" y="48.9775"/><text fill="#000000" font-family="sans-serif" font-size="11" lengthAdjust="spacingAndGlyphs" textLength="103" x="116" y="54.6348">Handler successor;</text><line style="stroke: #A80036; stroke-width: 1.5;" x1="97" x2="224" y1="60.9551" y2="60.9551"/><ellipse cx="107" cy="72.9326" fill="#84BE84" rx="3" ry="3" style="stroke: #038048; stroke-width: 1.0;"/><text fill="#000000" font-family="sans-serif" font-size="11" lengthAdjust="spacingAndGlyphs" textLength="75" x="116" y="75.5898">void request()</text><!--class ConcreteHandlerA--><rect fill="#FEFECE" filter="url(#fhfru3yk0hzri)" height="60.9551" id="ConcreteHandlerA" style="stroke: #A80036; stroke-width: 1.5;" width="137" x="6" y="142"/><ellipse cx="21" cy="158" fill="#ADD1B2" rx="11" ry="11" style="stroke: #A80036; stroke-width: 1.0;"/><path d="M23.4731,164.1431 Q22.8921,164.4419 22.2529,164.5913 Q21.6138,164.7407 20.9082,164.7407 Q18.4014,164.7407 17.0815,163.0889 Q15.7617,161.437 15.7617,158.3159 Q15.7617,155.1865 17.0815,153.5347 Q18.4014,151.8828 20.9082,151.8828 Q21.6138,151.8828 22.2612,152.0322 Q22.9087,152.1816 23.4731,152.4805 L23.4731,155.2031 Q22.8423,154.6221 22.2488,154.3523 Q21.6553,154.0825 21.0244,154.0825 Q19.6797,154.0825 18.9949,155.1492 Q18.3101,156.2158 18.3101,158.3159 Q18.3101,160.4077 18.9949,161.4744 Q19.6797,162.541 21.0244,162.541 Q21.6553,162.541 22.2488,162.2712 Q22.8423,162.0015 23.4731,161.4204 Z "/><text fill="#000000" font-family="sans-serif" font-size="12" lengthAdjust="spacingAndGlyphs" textLength="105" x="35" y="162.5352">ConcreteHandlerA</text><line style="stroke: #A80036; stroke-width: 1.5;" x1="7" x2="142" y1="174" y2="174"/><line style="stroke: #A80036; stroke-width: 1.5;" x1="7" x2="142" y1="182" y2="182"/><ellipse cx="17" cy="193.9775" fill="#84BE84" rx="3" ry="3" style="stroke: #038048; stroke-width: 1.0;"/><text fill="#000000" font-family="sans-serif" font-size="11" lengthAdjust="spacingAndGlyphs" textLength="75" x="26" y="196.6348">void request()</text><!--class ConcreteHandlerB--><rect fill="#FEFECE" filter="url(#fhfru3yk0hzri)" height="60.9551" id="ConcreteHandlerB" style="stroke: #A80036; stroke-width: 1.5;" width="136" x="178.5" y="142"/><ellipse cx="193.5" cy="158" fill="#ADD1B2" rx="11" ry="11" style="stroke: #A80036; stroke-width: 1.0;"/><path d="M195.9731,164.1431 Q195.3921,164.4419 194.7529,164.5913 Q194.1138,164.7407 193.4082,164.7407 Q190.9014,164.7407 189.5815,163.0889 Q188.2617,161.437 188.2617,158.3159 Q188.2617,155.1865 189.5815,153.5347 Q190.9014,151.8828 193.4082,151.8828 Q194.1138,151.8828 194.7612,152.0322 Q195.4087,152.1816 195.9731,152.4805 L195.9731,155.2031 Q195.3423,154.6221 194.7488,154.3523 Q194.1553,154.0825 193.5244,154.0825 Q192.1797,154.0825 191.4949,155.1492 Q190.8101,156.2158 190.8101,158.3159 Q190.8101,160.4077 191.4949,161.4744 Q192.1797,162.541 193.5244,162.541 Q194.1553,162.541 194.7488,162.2712 Q195.3423,162.0015 195.9731,161.4204 Z "/><text fill="#000000" font-family="sans-serif" font-size="12" lengthAdjust="spacingAndGlyphs" textLength="104" x="207.5" y="162.5352">ConcreteHandlerB</text><line style="stroke: #A80036; stroke-width: 1.5;" x1="179.5" x2="313.5" y1="174" y2="174"/><line style="stroke: #A80036; stroke-width: 1.5;" x1="179.5" x2="313.5" y1="182" y2="182"/><ellipse cx="189.5" cy="193.9775" fill="#84BE84" rx="3" ry="3" style="stroke: #038048; stroke-width: 1.0;"/><text fill="#000000" font-family="sans-serif" font-size="11" lengthAdjust="spacingAndGlyphs" textLength="75" x="198.5" y="196.6348">void request()</text><!--link Handler to ConcreteHandlerA--><path d="M124.1212,98.9336 C114.22,113.6128 103.8389,129.0033 95.1461,141.8909 " fill="none" id="Handler-ConcreteHandlerA" style="stroke: #A80036; stroke-width: 1.0;"/><polygon fill="none" points="118.4069,94.8874,135.3941,82.221,130.0134,102.7162,118.4069,94.8874" style="stroke: #A80036; stroke-width: 1.0;"/><!--link Handler to ConcreteHandlerB--><path d="M196.8788,98.9336 C206.78,113.6128 217.1611,129.0033 225.8539,141.8909 " fill="none" id="Handler-ConcreteHandlerB" style="stroke: #A80036; stroke-width: 1.0;"/><polygon fill="none" points="190.9866,102.7162,185.6059,82.221,202.5931,94.8874,190.9866,102.7162" style="stroke: #A80036; stroke-width: 1.0;"/><!--link Handler to Handler--><path d="M244.7494,25.1439 C254.0183,28.9221 260,35.5408 260,45 C260,54.4592 254.0183,61.0779 244.7494,64.8561 " fill="none" id="Handler-Handler" style="stroke: #A80036; stroke-width: 1.0;"/><polygon fill="none" points="246.052,71.7337,225.097,68.589,243.4394,57.9797,246.052,71.7337" style="stroke: #A80036; stroke-width: 1.0;"/><polygon fill="#A80036" points="225.097,21.411,233.1924,27.0203,230.0092,22.3441,234.6854,19.1608,225.097,21.411" style="stroke: #A80036; stroke-width: 1.0;"/><line style="stroke: #A80036; stroke-width: 1.0;" x1="230.0092" x2="244.7457" y1="22.3441" y2="25.1433"/><!--
@startuml
class Handler{
- Handler successor;
+ void request()
}
class ConcreteHandlerA{
+ void request()
}
class ConcreteHandlerB{
+ void request()
}
Handler <|- - ConcreteHandlerA
Handler <|- - ConcreteHandlerB
Handler <- -|> Handler
@enduml

PlantUML version 1.2018.10(Sun Aug 26 01:02:59 CST 2018)
(APACHE source distribution)
Java Runtime: OpenJDK Runtime Environment
JVM: OpenJDK 64-Bit Server VM
Java Version: 12+33
Operating System: Mac OS X
OS Version: 10.14.4
Default Encoding: UTF-8
Language: zh
Country: CN
--></g></svg>