<?xml version="1.0" encoding="UTF-8" standalone="no"?><svg xmlns="http://www.w3.org/2000/svg" xmlns:xlink="http://www.w3.org/1999/xlink" contentScriptType="application/ecmascript" contentStyleType="text/css" height="213px" preserveAspectRatio="none" style="width:289px;height:213px;" version="1.1" viewBox="0 0 289 213" width="289px" zoomAndPan="magnify"><defs><filter height="300%" id="fy0lauzuamua7" width="300%" x="-1" y="-1"><feGaussianBlur result="blurOut" stdDeviation="2.0"/><feColorMatrix in="blurOut" result="blurOut2" type="matrix" values="0 0 0 0 0 0 0 0 0 0 0 0 0 0 0 0 0 0 .4 0"/><feOffset dx="4.0" dy="4.0" in="blurOut2" result="blurOut3"/><feBlend in="SourceGraphic" in2="blurOut3" mode="normal"/></filter></defs><g><!--class Target--><rect fill="#FEFECE" filter="url(#fy0lauzuamua7)" height="60.9551" id="Target" style="stroke: #A80036; stroke-width: 1.5;" width="78" x="24.5" y="8"/><ellipse cx="43.1" cy="24" fill="#B4A7E5" rx="11" ry="11" style="stroke: #A80036; stroke-width: 1.0;"/><path d="M39.5277,20.2651 L39.5277,18.1069 L46.9071,18.1069 L46.9071,20.2651 L44.4418,20.2651 L44.4418,28.3418 L46.9071,28.3418 L46.9071,30.5 L39.5277,30.5 L39.5277,28.3418 L41.9931,28.3418 L41.9931,20.2651 Z "/><text fill="#000000" font-family="sans-serif" font-size="12" font-style="italic" lengthAdjust="spacingAndGlyphs" textLength="38" x="57.9" y="28.5352">Target</text><line style="stroke: #A80036; stroke-width: 1.5;" x1="25.5" x2="101.5" y1="40" y2="40"/><line style="stroke: #A80036; stroke-width: 1.5;" x1="25.5" x2="101.5" y1="48" y2="48"/><ellipse cx="35.5" cy="59.9775" fill="#84BE84" rx="3" ry="3" style="stroke: #038048; stroke-width: 1.0;"/><text fill="#000000" font-family="sans-serif" font-size="11" lengthAdjust="spacingAndGlyphs" textLength="52" x="44.5" y="62.6348">void call()</text><!--class Adaptee--><rect fill="#FEFECE" filter="url(#fy0lauzuamua7)" height="60.9551" id="Adaptee" style="stroke: #A80036; stroke-width: 1.5;" width="122" x="156.5" y="135.5"/><ellipse cx="189.95" cy="151.5" fill="#ADD1B2" rx="11" ry="11" style="stroke: #A80036; stroke-width: 1.0;"/><path d="M192.4231,157.6431 Q191.8421,157.9419 191.2029,158.0913 Q190.5638,158.2407 189.8582,158.2407 Q187.3514,158.2407 186.0315,156.5889 Q184.7117,154.937 184.7117,151.8159 Q184.7117,148.6865 186.0315,147.0347 Q187.3514,145.3828 189.8582,145.3828 Q190.5638,145.3828 191.2112,145.5322 Q191.8587,145.6816 192.4231,145.9805 L192.4231,148.7031 Q191.7923,148.1221 191.1988,147.8523 Q190.6053,147.5825 189.9744,147.5825 Q188.6297,147.5825 187.9449,148.6492 Q187.2601,149.7158 187.2601,151.8159 Q187.2601,153.9077 187.9449,154.9744 Q188.6297,156.041 189.9744,156.041 Q190.6053,156.041 191.1988,155.7712 Q191.7923,155.5015 192.4231,154.9204 Z "/><text fill="#000000" font-family="sans-serif" font-size="12" lengthAdjust="spacingAndGlyphs" textLength="49" x="208.05" y="156.0352">Adaptee</text><line style="stroke: #A80036; stroke-width: 1.5;" x1="157.5" x2="277.5" y1="167.5" y2="167.5"/><line style="stroke: #A80036; stroke-width: 1.5;" x1="157.5" x2="277.5" y1="175.5" y2="175.5"/><ellipse cx="167.5" cy="187.4775" fill="#84BE84" rx="3" ry="3" style="stroke: #038048; stroke-width: 1.0;"/><text fill="#000000" font-family="sans-serif" font-size="11" lengthAdjust="spacingAndGlyphs" textLength="96" x="176.5" y="190.1348">void anotherCall()</text><!--class Adapter--><rect fill="#FEFECE" filter="url(#fy0lauzuamua7)" height="73.9102" id="Adapter" style="stroke: #A80036; stroke-width: 1.5;" width="115" x="6" y="129"/><ellipse cx="37.2" cy="145" fill="#ADD1B2" rx="11" ry="11" style="stroke: #A80036; stroke-width: 1.0;"/><path d="M39.6731,151.1431 Q39.0921,151.4419 38.4529,151.5913 Q37.8138,151.7407 37.1082,151.7407 Q34.6014,151.7407 33.2815,150.0889 Q31.9617,148.437 31.9617,145.3159 Q31.9617,142.1865 33.2815,140.5347 Q34.6014,138.8828 37.1082,138.8828 Q37.8138,138.8828 38.4612,139.0322 Q39.1087,139.1816 39.6731,139.4805 L39.6731,142.2031 Q39.0423,141.6221 38.4488,141.3523 Q37.8553,141.0825 37.2244,141.0825 Q35.8797,141.0825 35.1949,142.1492 Q34.5101,143.2158 34.5101,145.3159 Q34.5101,147.4077 35.1949,148.4744 Q35.8797,149.541 37.2244,149.541 Q37.8553,149.541 38.4488,149.2712 Q39.0423,149.0015 39.6731,148.4204 Z "/><text fill="#000000" font-family="sans-serif" font-size="12" lengthAdjust="spacingAndGlyphs" textLength="47" x="54.8" y="149.5352">Adapter</text><line style="stroke: #A80036; stroke-width: 1.5;" x1="7" x2="120" y1="161" y2="161"/><rect fill="none" height="6" style="stroke: #C82930; stroke-width: 1.0;" width="6" x="14" y="169.9775"/><text fill="#000000" font-family="sans-serif" font-size="11" lengthAdjust="spacingAndGlyphs" textLength="89" x="26" y="175.6348">Adaptee adaptee</text><line style="stroke: #A80036; stroke-width: 1.5;" x1="7" x2="120" y1="181.9551" y2="181.9551"/><ellipse cx="17" cy="193.9326" fill="#84BE84" rx="3" ry="3" style="stroke: #038048; stroke-width: 1.0;"/><text fill="#000000" font-family="sans-serif" font-size="11" lengthAdjust="spacingAndGlyphs" textLength="52" x="26" y="196.5898">void call()</text><!--link Target to Adapter--><path d="M63.5,74.2168 C63.5,91.2683 63.5,111.6609 63.5,128.8888 " fill="none" id="Target-Adapter" style="stroke: #A80036; stroke-width: 1.0; stroke-dasharray: 7.0,7.0;"/><polygon fill="#A80036" points="63.5,69.0394,59.5,78.0394,63.5,74.0394,67.5,78.0394,63.5,69.0394" style="stroke: #A80036; stroke-width: 1.0;"/><!--link Adapter to Adaptee--><path d="M121.25,166 C131.1752,166 141.1004,166 151.0256,166 " fill="none" id="Adapter-Adaptee" style="stroke: #A80036; stroke-width: 1.0;"/><polygon fill="#A80036" points="156.2158,166,147.2158,162,151.2158,166,147.2158,170,156.2158,166" style="stroke: #A80036; stroke-width: 1.0;"/><!--
@startuml
interface Target{
+ void call()
}
class Adaptee{
+ void anotherCall()
}
class Adapter{
- Adaptee adaptee
+ void call()
}
Target <.. Adapter
Adapter -> Adaptee
@enduml

PlantUML version 1.2018.10(Sun Aug 26 01:02:59 CST 2018)
(APACHE source distribution)
Java Runtime: OpenJDK Runtime Environment
JVM: OpenJDK 64-Bit Server VM
Java Version: 12+33
Operating System: Mac OS X
OS Version: 10.14.4
Default Encoding: UTF-8
Language: zh
Country: CN
--></g></svg>